<?xml version="1.0" encoding="UTF-8"?>
<svg id="Layer_1" data-name="Layer 1" xmlns="http://www.w3.org/2000/svg" viewBox="0 0 97.8 104.19">
  <defs>
    <style>
      .cls-1 {
        fill: #ffffff;
      }
    </style>
  </defs>
  <path class="cls-1" d="M87.08,60.03c-5.92,0-10.73-4.81-10.73-10.73s4.81-10.73,10.73-10.73,10.73,4.81,10.73,10.73-4.81,10.73-10.73,10.73ZM87.08,42.58c-3.71,0-6.73,3.02-6.73,6.73s3.02,6.73,6.73,6.73,6.73-3.02,6.73-6.73-3.02-6.73-6.73-6.73Z"/>
  <path class="cls-1" d="M68.18,39.21c-10.81,0-19.61-8.79-19.61-19.6S57.37,0,68.18,0s19.6,8.79,19.6,19.6-8.79,19.6-19.6,19.6ZM68.18,4c-8.6,0-15.61,7-15.61,15.6s7,15.6,15.61,15.6,15.6-7,15.6-15.6-7-15.6-15.6-15.6Z"/>
  <path class="cls-1" d="M58.95,104.19c-13.12,0-23.8-10.67-23.8-23.8s10.67-23.8,23.8-23.8,23.8,10.68,23.8,23.8-10.67,23.8-23.8,23.8ZM58.95,60.6c-10.92,0-19.8,8.88-19.8,19.8s8.88,19.8,19.8,19.8,19.8-8.88,19.8-19.8-8.88-19.8-19.8-19.8Z"/>
  <g>
    <g>
      <circle class="cls-1" cx="21.06" cy="49.47" r="5.02"/>
      <path class="cls-1" d="M21.06,56.5c-3.87,0-7.02-3.15-7.02-7.02s3.15-7.02,7.02-7.02,7.02,3.15,7.02,7.02-3.15,7.02-7.02,7.02ZM21.06,46.45c-1.67,0-3.02,1.36-3.02,3.02s1.36,3.02,3.02,3.02,3.02-1.36,3.02-3.02-1.36-3.02-3.02-3.02Z"/>
    </g>
    <path class="cls-1" d="M21.06,70.54c-11.61,0-21.06-9.45-21.06-21.06s9.45-21.06,21.06-21.06,21.06,9.45,21.06,21.06-9.45,21.06-21.06,21.06ZM21.06,32.41c-9.41,0-17.06,7.65-17.06,17.06s7.65,17.06,17.06,17.06,17.06-7.65,17.06-17.06-7.65-17.06-17.06-17.06Z"/>
  </g>
</svg>