<?xml version="1.0" encoding="UTF-8"?>
<svg id="Layer_1" data-name="Layer 1" xmlns="http://www.w3.org/2000/svg" viewBox="0 0 117.29 117.29">
  <defs>
    <style>
      .cls-1 {
        fill: #ffffff;
      }
    </style>
  </defs>
  <path class="cls-1" d="M86.99,117.29c-10.87,0-20.97-5.88-26.36-15.35-1.67-2.8-2.92-5.66-4.13-8.42-3.56-8.11-6.12-13.97-16.81-14.02h-.17C17.72,79.42,0,61.6,0,39.71S17.81,0,39.71,0s39.71,17.81,39.71,39.71c0,11.59,5.68,13.79,13.53,16.83,3.01,1.17,6.13,2.38,9.22,4.23,2.23,1.29,4.31,2.88,6.15,4.7,5.82,5.8,8.98,13.42,8.98,21.53,0,16.71-13.59,30.3-30.3,30.3ZM39.86,75.5c13.17.12,16.64,8.03,20.31,16.41,1.16,2.65,2.36,5.39,3.93,8.02,4.69,8.26,13.46,13.37,22.9,13.37,14.5,0,26.3-11.8,26.3-26.3,0-7.04-2.75-13.66-7.74-18.63-1.66-1.64-3.46-3.02-5.43-4.15-2.82-1.7-5.77-2.84-8.63-3.95-7.91-3.06-16.09-6.23-16.09-20.56,0-19.69-16.02-35.71-35.71-35.71S4,20.02,4,39.71s16,35.79,35.67,35.79h.18Z"/>
  <g>
    <g>
      <circle class="cls-1" cx="86.91" cy="87" r="4.98"/>
      <path class="cls-1" d="M86.91,93.98c-3.85,0-6.98-3.13-6.98-6.98s3.13-6.98,6.98-6.98,6.98,3.13,6.98,6.98-3.13,6.98-6.98,6.98ZM86.91,84.02c-1.64,0-2.98,1.34-2.98,2.98s1.34,2.98,2.98,2.98,2.98-1.34,2.98-2.98-1.34-2.98-2.98-2.98Z"/>
    </g>
    <path class="cls-1" d="M86.91,107.9c-11.52,0-20.9-9.37-20.9-20.9s9.38-20.9,20.9-20.9,20.9,9.38,20.9,20.9-9.38,20.9-20.9,20.9ZM86.91,70.1c-9.32,0-16.9,7.58-16.9,16.9s7.58,16.9,16.9,16.9,16.9-7.58,16.9-16.9-7.58-16.9-16.9-16.9Z"/>
  </g>
</svg>