<?xml version="1.0" encoding="UTF-8"?>
<svg id="Layer_1" data-name="Layer 1" xmlns="http://www.w3.org/2000/svg" viewBox="0 0 117.39 117.39">
  <defs>
    <style>
      .cls-1 {
        fill: #ffffff;
      }
    </style>
  </defs>
  <g>
    <g>
      <circle class="cls-1" cx="96.49" cy="96.49" r="4.98"/>
      <path class="cls-1" d="M96.49,103.47c-3.85,0-6.98-3.13-6.98-6.98s3.13-6.98,6.98-6.98,6.98,3.13,6.98,6.98-3.13,6.98-6.98,6.98ZM96.49,93.51c-1.64,0-2.98,1.34-2.98,2.98s1.34,2.98,2.98,2.98,2.98-1.34,2.98-2.98-1.34-2.98-2.98-2.98Z"/>
    </g>
    <path class="cls-1" d="M96.49,117.39c-11.52,0-20.9-9.38-20.9-20.9s9.38-20.9,20.9-20.9,20.9,9.37,20.9,20.9-9.38,20.9-20.9,20.9ZM96.49,79.59c-9.32,0-16.9,7.58-16.9,16.9s7.58,16.9,16.9,16.9,16.9-7.58,16.9-16.9-7.58-16.9-16.9-16.9Z"/>
  </g>
  <path class="cls-1" d="M20.9,41.8C9.38,41.8,0,32.42,0,20.9S9.38,0,20.9,0s20.9,9.38,20.9,20.9-9.38,20.9-20.9,20.9ZM20.9,4c-9.32,0-16.9,7.58-16.9,16.9s7.58,16.9,16.9,16.9,16.9-7.58,16.9-16.9S30.22,4,20.9,4Z"/>
  <path class="cls-1" d="M111.67,84l-3.61-1.73c3.53-7.39,5.32-15.32,5.32-23.58,0-30.16-24.54-54.7-54.7-54.7-8.26,0-16.19,1.79-23.58,5.32l-1.73-3.61C41.32,1.92,49.83,0,58.69,0c32.37,0,58.7,26.33,58.7,58.7,0,8.86-1.92,17.37-5.72,25.3Z"/>
  <path class="cls-1" d="M58.69,117.39C26.33,117.39,0,91.06,0,58.7c0-8.87,1.93-17.38,5.73-25.31l3.61,1.73c-3.54,7.38-5.33,15.31-5.33,23.57,0,30.16,24.53,54.69,54.69,54.69,8.27,0,16.2-1.79,23.57-5.33l1.73,3.61c-7.92,3.8-16.43,5.73-25.3,5.73Z"/>
</svg>