<?xml version="1.0" encoding="UTF-8"?>
<svg id="Layer_1" data-name="Layer 1" xmlns="http://www.w3.org/2000/svg" viewBox="0 0 117.38 117.38">
  <defs>
    <style>
      .cls-1 {
        fill: #ffffff;
      }
    </style>
  </defs>
  <path class="cls-1" d="M58.69,117.38C26.33,117.38,0,91.06,0,58.69S26.33,0,58.69,0s58.69,26.33,58.69,58.69-26.33,58.69-58.69,58.69ZM58.69,4C28.54,4,4,28.53,4,58.69s24.54,54.69,54.69,54.69,54.69-24.53,54.69-54.69S88.85,4,58.69,4Z"/>
  <g>
    <g>
      <circle class="cls-1" cx="58.69" cy="58.82" r="4.98"/>
      <path class="cls-1" d="M58.69,65.79c-3.85,0-6.98-3.13-6.98-6.98s3.13-6.98,6.98-6.98,6.98,3.13,6.98,6.98-3.13,6.98-6.98,6.98ZM58.69,55.84c-1.64,0-2.98,1.34-2.98,2.98s1.34,2.98,2.98,2.98,2.98-1.34,2.98-2.98-1.34-2.98-2.98-2.98Z"/>
    </g>
    <path class="cls-1" d="M58.69,79.71c-11.52,0-20.9-9.38-20.9-20.9s9.38-20.9,20.9-20.9,20.9,9.37,20.9,20.9-9.38,20.9-20.9,20.9ZM58.69,41.92c-9.32,0-16.9,7.58-16.9,16.9s7.58,16.9,16.9,16.9,16.9-7.58,16.9-16.9-7.58-16.9-16.9-16.9Z"/>
  </g>
</svg>