<?xml version="1.0" encoding="UTF-8"?>
<svg id="Layer_1" data-name="Layer 1" xmlns="http://www.w3.org/2000/svg" viewBox="0 0 79.59 79.59">
  <defs>
    <style>
      .cls-1 {
        fill: #ffffff;
      }
    </style>
  </defs>
  <g>
    <g>
      <circle class="cls-1" cx="39.79" cy="39.79" r="4.98"/>
      <path class="cls-1" d="M39.79,46.77c-3.85,0-6.98-3.13-6.98-6.98s3.13-6.98,6.98-6.98,6.98,3.13,6.98,6.98-3.13,6.98-6.98,6.98ZM39.79,36.82c-1.64,0-2.98,1.34-2.98,2.98s1.34,2.98,2.98,2.98,2.98-1.34,2.98-2.98-1.34-2.98-2.98-2.98Z"/>
    </g>
    <path class="cls-1" d="M39.79,60.69c-11.52,0-20.9-9.37-20.9-20.9s9.38-20.9,20.9-20.9,20.9,9.38,20.9,20.9-9.38,20.9-20.9,20.9ZM39.79,22.9c-9.32,0-16.9,7.58-16.9,16.9s7.58,16.9,16.9,16.9,16.9-7.58,16.9-16.9-7.58-16.9-16.9-16.9Z"/>
  </g>
  <path class="cls-1" d="M39.79,79.59C17.85,79.59,0,61.74,0,39.79S17.85,0,39.79,0s39.79,17.85,39.79,39.79-17.85,39.79-39.79,39.79ZM39.79,4C20.06,4,4,20.06,4,39.79s16.06,35.79,35.79,35.79,35.79-16.06,35.79-35.79S59.53,4,39.79,4Z"/>
  <rect class="cls-1" x="37.79" y="58.69" width="4" height="18.9"/>
</svg>