<?xml version="1.0" encoding="UTF-8"?>
<svg id="Layer_1" data-name="Layer 1" xmlns="http://www.w3.org/2000/svg" viewBox="0 0 97.92 117.42">
  <defs>
    <style>
      .cls-1 {
        fill: #ffffff;
      }
    </style>
  </defs>
  <path class="cls-1" d="M97.92,117.42H0v-3.28l47.43-56.6h3.07l47.42,56.6v3.28ZM5.82,113.42h86.28l-43.14-51.49L5.82,113.42Z"/>
  <g>
    <circle class="cls-1" cx="48.96" cy="92.94" r="4.98"/>
    <path class="cls-1" d="M48.96,99.92c-3.85,0-6.98-3.13-6.98-6.98s3.13-6.98,6.98-6.98,6.98,3.13,6.98,6.98-3.13,6.98-6.98,6.98ZM48.96,89.96c-1.64,0-2.98,1.34-2.98,2.98s1.34,2.98,2.98,2.98,2.98-1.34,2.98-2.98-1.34-2.98-2.98-2.98Z"/>
  </g>
  <path class="cls-1" d="M48.96,113.84c-11.52,0-20.9-9.37-20.9-20.9s9.38-20.9,20.9-20.9,20.9,9.37,20.9,20.9-9.38,20.9-20.9,20.9ZM48.96,76.04c-9.32,0-16.9,7.58-16.9,16.9s7.58,16.9,16.9,16.9,16.9-7.58,16.9-16.9-7.58-16.9-16.9-16.9Z"/>
  <path class="cls-1" d="M50.49,59.89h-3.07L0,3.28V0h97.92v3.28l-47.43,56.6ZM5.82,4l43.14,51.49L92.1,4H5.82Z"/>
</svg>