<?xml version="1.0" encoding="UTF-8"?>
<svg id="Layer_1" data-name="Layer 1" xmlns="http://www.w3.org/2000/svg" viewBox="0 0 117.39 117.39">
  <defs>
    <style>
      .cls-1 {
        fill: #ffffff;
      }
    </style>
  </defs>
  <g>
    <g>
      <circle class="cls-1" cx="96.49" cy="20.9" r="4.98"/>
      <path class="cls-1" d="M96.49,27.88c-3.85,0-6.98-3.13-6.98-6.98s3.13-6.98,6.98-6.98,6.98,3.13,6.98,6.98-3.13,6.98-6.98,6.98ZM96.49,17.92c-1.64,0-2.98,1.34-2.98,2.98s1.34,2.98,2.98,2.98,2.98-1.34,2.98-2.98-1.34-2.98-2.98-2.98Z"/>
    </g>
    <path class="cls-1" d="M96.49,41.8c-11.52,0-20.9-9.37-20.9-20.9S84.97,0,96.49,0s20.9,9.38,20.9,20.9-9.38,20.9-20.9,20.9ZM96.49,4c-9.32,0-16.9,7.58-16.9,16.9s7.58,16.9,16.9,16.9,16.9-7.58,16.9-16.9-7.58-16.9-16.9-16.9Z"/>
  </g>
  <path class="cls-1" d="M39.79,117.39C17.85,117.39,0,99.53,0,77.59s17.85-39.79,39.79-39.79,39.8,17.85,39.8,39.79-17.85,39.8-39.8,39.8ZM39.79,41.8c-19.74,0-35.79,16.06-35.79,35.79s16.06,35.8,35.79,35.8,35.8-16.06,35.8-35.8-16.06-35.79-35.8-35.79Z"/>
</svg>