<?xml version="1.0" encoding="UTF-8"?>
<svg id="Layer_1" data-name="Layer 1" xmlns="http://www.w3.org/2000/svg" viewBox="0 0 118.46 113.38">
  <defs>
    <style>
      .cls-1 {
        fill: #ffffff;
      }
    </style>
  </defs>
  <g>
    <g>
      <circle class="cls-1" cx="59.23" cy="56.69" r="4.98"/>
      <path class="cls-1" d="M59.23,63.67c-3.85,0-6.98-3.13-6.98-6.98s3.13-6.98,6.98-6.98,6.98,3.13,6.98,6.98-3.13,6.98-6.98,6.98ZM59.23,53.71c-1.64,0-2.98,1.34-2.98,2.98s1.34,2.98,2.98,2.98,2.98-1.34,2.98-2.98-1.34-2.98-2.98-2.98Z"/>
    </g>
    <path class="cls-1" d="M59.23,77.59c-11.52,0-20.9-9.37-20.9-20.9s9.37-20.9,20.9-20.9,20.9,9.38,20.9,20.9-9.38,20.9-20.9,20.9ZM59.23,39.8c-9.32,0-16.9,7.58-16.9,16.9s7.58,16.9,16.9,16.9,16.9-7.58,16.9-16.9-7.58-16.9-16.9-16.9Z"/>
  </g>
  <rect class="cls-1" x="57.24" y=".01" width="4" height="113.37" transform="translate(-22.74 58.49) rotate(-45)"/>
  <rect class="cls-1" x="57.23" width="4" height="113.38"/>
  <rect class="cls-1" x="2.58" y="54.68" width="113.34" height="4" transform="translate(-22.72 58.49) rotate(-45)"/>
  <path class="cls-1" d="M59.22,87.02c-22.58,0-43.82-10.61-58.26-29.11l-.96-1.23.96-1.23c14.44-18.51,35.69-29.13,58.28-29.13s43.82,10.61,58.26,29.11l.96,1.23-.96,1.23c-14.44,18.51-35.69,29.13-58.28,29.13ZM5.09,56.69c13.65,16.76,33.29,26.34,54.13,26.34s40.49-9.58,54.14-26.36c-13.65-16.76-33.29-26.34-54.13-26.34S18.75,39.91,5.09,56.69Z"/>
  <g>
    <g>
      <circle class="cls-1" cx="59.23" cy="56.69" r="4.98"/>
      <path class="cls-1" d="M59.23,63.67c-3.85,0-6.98-3.13-6.98-6.98s3.13-6.98,6.98-6.98,6.98,3.13,6.98,6.98-3.13,6.98-6.98,6.98ZM59.23,53.71c-1.64,0-2.98,1.34-2.98,2.98s1.34,2.98,2.98,2.98,2.98-1.34,2.98-2.98-1.34-2.98-2.98-2.98Z"/>
    </g>
    <path class="cls-1" d="M59.23,77.59c-11.52,0-20.9-9.37-20.9-20.9s9.37-20.9,20.9-20.9,20.9,9.38,20.9,20.9-9.38,20.9-20.9,20.9ZM59.23,39.8c-9.32,0-16.9,7.58-16.9,16.9s7.58,16.9,16.9,16.9,16.9-7.58,16.9-16.9-7.58-16.9-16.9-16.9Z"/>
  </g>
  <rect class="cls-1" x="57.24" y=".01" width="4" height="113.37" transform="translate(-22.74 58.49) rotate(-45)"/>
  <rect class="cls-1" x="57.23" width="4" height="113.38"/>
  <rect class="cls-1" x="2.58" y="54.68" width="113.34" height="4" transform="translate(-22.72 58.49) rotate(-45)"/>
  <path class="cls-1" d="M59.22,87.02c-22.58,0-43.82-10.61-58.26-29.11l-.96-1.23.96-1.23c14.44-18.51,35.69-29.13,58.28-29.13s43.82,10.61,58.26,29.11l.96,1.23-.96,1.23c-14.44,18.51-35.69,29.13-58.28,29.13ZM5.09,56.69c13.65,16.76,33.29,26.34,54.13,26.34s40.49-9.58,54.14-26.36c-13.65-16.76-33.29-26.34-54.13-26.34S18.75,39.91,5.09,56.69Z"/>
</svg>