<?xml version="1.0" encoding="UTF-8"?>
<svg id="Layer_1" data-name="Layer 1" xmlns="http://www.w3.org/2000/svg" viewBox="0 0 600 368">
  <defs>
    <style>
      .cls-1 {
        fill: #1d1d1b;
      }
    </style>
  </defs>
  <polygon class="cls-1" points="419.55 98.25 419.42 99.89 419.59 99.89 419.59 98.25 419.55 98.25"/>
  <polygon class="cls-1" points="386.65 84.63 390.07 86.1 390.76 84.46 387.43 82.95 386.65 84.63"/>
  <polygon class="cls-1" points="371.78 294.85 372.56 294.6 371.78 292.56 371.78 294.85"/>
  <polygon class="cls-1" points="371.78 290.96 375.07 293.69 377.36 292.91 372.9 289.58 374.2 285.56 371.87 286.43 371.78 286.68 371.78 290.96"/>
  <polygon class="cls-1" points="371.56 132.66 371.78 132.92 371.78 132.19 371.56 132.66"/>
  <polygon class="cls-1" points="371.09 290.32 371.78 290.96 371.78 286.68 371.09 290.32"/>
  <polygon class="cls-1" points="358.98 290.49 358.98 295.85 359.76 298.57 361.71 298.01 359.55 290.19 358.98 290.49"/>
  <polygon class="cls-1" points="358.98 289.41 360.32 288.11 358.98 286.9 358.98 289.41"/>
  <polygon class="cls-1" points="359.55 112 359.29 112.69 359.07 112.91 358.98 112.91 358.98 119.13 359.68 118.48 359.98 117.79 359.76 117.49 359.55 117.44 359.55 117.57 358.98 117.44 359.42 116.19 359.16 115.5 359.63 114.63 360.19 114.16 360.58 112.91 360.32 112.21 359.76 111.91 359.55 112"/>
  <polygon class="cls-1" points="358.98 77.03 358.98 78.28 359.07 78.28 359.16 77.03 358.98 77.03"/>
  <polygon class="cls-1" points="358.94 286.9 356.56 289.93 357.6 290.75 358.98 289.41 358.98 286.9 358.94 286.9"/>
  <polygon class="cls-1" points="357.6 291.09 358.98 295.85 358.98 290.49 357.6 291.09"/>
  <polygon class="cls-1" points="353.97 66.05 351.55 76.51 349.3 76.03 351.72 65.48 353.97 66.05"/>
  <polygon class="cls-1" points="341.52 291.18 341.91 293.04 341.91 291.09 341.52 291.18"/>
  <polygon class="cls-1" points="332.05 64.58 332.05 65.01 332.1 64.58 332.05 64.58"/>
  <polygon class="cls-1" points="330.02 64.66 328.98 72.31 331.02 72.62 332.05 65.01 332.05 64.58 330.02 64.66"/>
  <polygon class="cls-1" points="278.15 295.29 278.15 296.84 281.35 295.72 280.65 294.03 278.15 295.29"/>
  <polygon class="cls-1" points="277.24 295.76 277.8 296.97 278.15 296.84 278.15 295.29 277.24 295.76"/>
  <polygon class="cls-1" points="270.02 297.58 270.02 304.45 270.19 304.8 272.61 305.14 270.19 300.13 273.09 297.19 270.67 296.84 270.02 297.58"/>
  <polygon class="cls-1" points="268.55 299.48 268.55 300.95 270.02 304.45 270.02 297.58 268.55 299.48"/>
  <polygon class="cls-1" points="268.16 299.96 268.55 300.95 268.55 299.48 268.16 299.96"/>
  <polygon class="cls-1" points="250.83 118.48 251.3 117.79 251.26 117.57 250.83 117.44 250.83 118.48"/>
  <polygon class="cls-1" points="244.13 289.71 243.78 288.67 243.78 290.53 244.69 290.83 247.28 288.8 245.81 288.37 244.13 289.71"/>
  <polygon class="cls-1" points="245.47 68.77 247.2 76.29 249.23 75.9 247.41 67.95 245.47 68.77"/>
  <polygon class="cls-1" points="243.3 104.17 243.3 113.81 243.43 113.81 243.52 113.94 243.69 114.03 243.78 114.25 243.78 104.04 243.3 104.17"/>
  <polygon class="cls-1" points="243.3 123.15 243.3 126.31 243.65 126.52 243.78 127 243.78 123.02 243.3 123.15"/>
  <polygon class="cls-1" points="243.3 173.38 243.3 175.89 243.78 175.54 243.78 172.95 243.3 173.38"/>
  <path class="cls-1" d="M243.65,245.83l-.35.26v2.64l.48-.43v-11.33l-.13,8.78v.09ZM243.78,237.06v-.09.09Z"/>
  <polygon class="cls-1" points="243.3 290.4 243.78 290.53 243.78 288.59 243.43 287.68 243.3 287.59 243.3 290.4"/>
  <polygon class="cls-1" points="243.13 104.17 242.87 104.65 243.09 105.51 242.96 105.77 242.66 106.08 242.31 106.21 241.06 108.63 241.19 109.49 241.06 109.49 241.14 109.71 241.19 109.62 241.4 110.18 241.27 110.18 241.84 112.26 241.96 112.26 242.05 112.47 242.66 112.34 242.74 112.47 242.96 112.47 243.3 113.81 243.3 104.17 243.13 104.17"/>
  <polygon class="cls-1" points="242.44 123.45 242.53 123.5 242.09 123.67 242.22 124.02 242.4 124.02 242.53 124.27 242.74 124.4 243.09 125.53 242.87 125.7 242.96 125.87 242.87 125.96 242.87 126.09 243.3 126.31 243.3 123.15 242.44 123.45"/>
  <polygon class="cls-1" points="243 290.32 243.3 290.4 243.3 287.59 242.05 287.2 243 290.32"/>
  <polygon class="cls-1" points="232.41 293 235.96 294.12 236.43 292.35 232.89 291.22 232.41 293"/>
  <polygon class="cls-1" points="218.02 285.04 218.02 291.4 219.75 292.09 218.66 286.64 222.21 284.52 219.92 283.57 218.02 285.04"/>
  <polygon class="cls-1" points="218.02 85.46 219.49 84.89 218.02 81.13 218.02 85.46"/>
  <polygon class="cls-1" points="216.76 285.99 217.45 291.18 218.02 291.4 218.02 285.04 216.76 285.99"/>
  <polygon class="cls-1" points="205.05 91.12 205.74 90.77 205.05 89.3 205.05 91.12"/>
  <rect class="cls-1" x="193.46" y="271.42" width=".48" height="1.73"/>
  <polygon class="cls-1" points="191.13 269.74 191.78 269.26 191.13 268.83 191.13 269.74"/>
  <polygon class="cls-1" points="185.81 264.21 186.93 262.69 185.81 261.91 185.81 264.21"/>
  <polygon class="cls-1" points="185.81 264.21 180.71 271.55 178.89 270.21 185.08 261.44 185.81 261.91 185.81 264.21"/>
  <path class="cls-1" d="M419.59,270.86v-4.19l.35.65.09.09c.48.69.82.91,1.51.91l-.13,1.69c-.48.13-1.04.09-1.47-.13-.09.22-.09.43-.13.65-.09.13-.13.26-.22.43"/>
  <path class="cls-1" d="M419.59,106.12v-1.25s.22-.09.26-.09l.99-1.38h-.09c-.48-.35-.91-.56-1.21-.65v-1.69c.48.13,1.12.48,1.73.91.13.09.22.13.35.3l.22-.3c.48-.69.48-1.04-.09-1.47s-1.34-.56-2.25-.65v-1.69c.43,0,.78.09,1.34.22.82.13,1.47.43,2.07.82,1.04.78,1.51,1.69,1.34,2.59-.13.35-.22.56-.69,1.25l-1.6,2.16s0,.09-.09.09c-.48.69-.56,1.04-.26,1.82l-1.69.43c-.3-.48-.43-.99-.35-1.47h-.09l.09.04Z"/>
  <path class="cls-1" d="M419.59,101.1v1.69c-.48-.13-.78.09-1.12.48-.35.48-.22,1.04.22,1.38.22.13.56.22.91.22v1.25s-.43.09-.56.09c-.43,0-.91-.13-1.38-.43v-4.67c.56-.22,1.17-.3,1.95,0"/>
  <path class="cls-1" d="M419.59,266.67v4.19c-.22.26-.48.56-.82.82-.43.3-.78.43-1.12.56v-1.9s.43,0,.56-.13c.26-.22.48-.65.56-1.04l-.91-1.47-.13.09s0,.09-.09.09v-3.76c.26.13.43.35.82.99l1.12,1.6v-.04Z"/>
  <path class="cls-1" d="M417.65,101.1v4.67l-.13-.13c-.35-.22-.65-.48-.82-.69v-2.94c.26-.43.61-.69.99-.91"/>
  <path class="cls-1" d="M417.65,264.08v3.76c-.48.35-.82.69-.99.99v-2.03s.22-.13.35-.3l-.13-.22s-.13-.22-.22-.26v-2.38c.35,0,.61.13.91.26,0,.09.09.09.09.13"/>
  <path class="cls-1" d="M417.65,270.34v1.9c-.35.09-.65.13-.99.09v-2.72s.13.22.22.3c.22.35.48.48.78.48"/>
  <path class="cls-1" d="M416.69,96.57v-1.34s.13.22.13.3c.22.26.3.43.43.82l-.56.22Z"/>
  <path class="cls-1" d="M416.69,95.23v1.34l-1.04.43c-.13-.48-.43-.99-.69-1.21-.82-.48-1.6,0-2.59,1.6-.56.82-.78,1.47-.69,1.9,0,.35.22.69.56.82.43.26.82.35,1.56.22h.13l.13,1.56c-.43.13-.56.13-.91.13-.65,0-1.25-.22-1.9-.65-1.9-1.12-2.16-3.07-.78-5.23.91-1.6,2.16-2.25,3.29-2.29.65,0,1.38.22,2.03.56.35.22.65.48.91.82"/>
  <path class="cls-1" d="M416.69,102.01v2.94c-.69-.91-.69-1.9,0-2.85v-.09Z"/>
  <path class="cls-1" d="M416.69,263.64v2.38c-.43-.48-.69-.56-1.25-.22-.56.43-.99,1.12-1.38,2.07l-1.51-.78c.22-.43.35-.69.69-1.25.43-.69.91-1.17,1.47-1.6.78-.48,1.38-.69,2.03-.65"/>
  <path class="cls-1" d="M416.69,266.8h0c-2.07,1.47-2.64,2.85-1.6,4.41.48.61.99,1.04,1.6,1.12v-2.72c-.13-.26-.13-.56,0-.78,0,0,0-2.03,0-2.03Z"/>
  <path class="cls-1" d="M406.41,277.95v-1.34c.09.48.09.91,0,1.34"/>
  <path class="cls-1" d="M406.41,270.34v-.13l1.25-1.34c.35.22.65.43.91.78,0-.48.22-1.12.43-1.47.13-.13.35-.35.56-.48s.35-.22.69-.22l.48,1.82s-.35.09-.56.22c-.43.22-.61.65-.69,1.25l2.94,4.76-1.73,1.04-2.81-4.45c-.56-.82-1.04-1.47-1.47-1.73"/>
  <path class="cls-1" d="M406.41,97.34v-1.12l.09,1.04s0,.09-.09.09"/>
  <path class="cls-1" d="M406.41,94.45v-1.73l.22.13.09-.13c.26-.48.35-.78.35-1.12s-.22-.65-.56-.82l-.09-.09v-1.6c.26.09.48.13.78.3.78.48,1.38,1.17,1.6,1.9.3.99,0,2.07-.78,3.54-.09.13-.22.26-.26.43l-1.34-.78v-.04Z"/>
  <path class="cls-1" d="M406.41,89.09v1.6c-.65-.35-1.34,0-1.9.91v.09l1.9,1.04v1.73l-2.64-1.47c-.65,1.12-.43,2.03.48,2.51.65.35,1.34.43,2.16.3v1.51c-1.12.13-2.07,0-3.07-.56-.22-.13-.48-.3-.61-.43v-5.88c.48-.69,1.04-1.12,1.73-1.38.69-.22,1.34-.22,1.95,0"/>
  <path class="cls-1" d="M406.41,270.21v.13s0-.09-.09-.09l.09-.09v.04Z"/>
  <path class="cls-1" d="M406.41,276.66v1.47c-.22.82-.69,1.6-1.73,2.25-.61.35-1.34.48-1.95.48v-1.95.09c.43.26.91.22,1.25.09.78-.48.78-1.34-.22-2.98-.35-.69-.78-1.17-1.04-1.47v-1.9c.26,0,.56.09.82.22.91.35,1.6.91,2.25,2.03.35.65.56,1.25.65,1.73"/>
  <path class="cls-1" d="M402.69,90.47v5.88c-.26-.3-.56-.48-.69-.78v-4.06s.09-.09.09-.13c.22-.35.43-.69.65-.91"/>
  <path class="cls-1" d="M402.69,272.68v1.9s-.22-.13-.35-.13c-.09-.09-.22-.13-.35-.13v-1.6s.43-.09.69,0"/>
  <path class="cls-1" d="M402.69,278.86v1.95c-.26-.09-.48-.09-.69-.13v-2.59c.22.35.48.65.69.78"/>
  <path class="cls-1" d="M402,84.89v-1.21c.26.3.43.56.56.82l-.56.35v.04Z"/>
  <path class="cls-1" d="M402,83.73v1.21l-.99.56c-.3-.65-.69-1.04-1.25-1.34-.65-.3-1.47-.3-2.03.09-.69.35-1.25,1.04-1.82,2.16-.65,1.34-.91,2.16-.82,2.81,0,.91.48,1.6,1.34,2.03.56.3,1.17.35,1.95.22l.26,1.69c-1.04.22-2.03.09-3.16-.43-1.34-.69-2.12-1.6-2.46-2.94-.35-1.25-.22-2.59.48-4.06.65-1.17,1.34-2.03,2.16-2.64,1.38-1.04,3.2-1.17,4.76-.43.65.26,1.12.69,1.51,1.12"/>
  <path class="cls-1" d="M402,91.55c-.78,1.47-.78,2.94,0,4.06v-4.06Z"/>
  <path class="cls-1" d="M402,272.68v1.6s-.43.09-.65.22c-.43.22-.65.69-.56,1.21.13.43.35.99.69,1.69.13.26.35.56.48.78v2.59c-.99-.3-1.82-1.04-2.42-2.16-1.25-2.16-.82-4.32,1.04-5.36.48-.26.91-.43,1.38-.48"/>
  <path class="cls-1" d="M381.12,291.22v-1.73c.26.22.69.13.99.09.82-.35.91-1.25.22-2.98-.43-.99-.82-1.56-1.21-1.82v-1.73c.43.09.91.13,1.34.43.82.43,1.47,1.12,1.95,2.29.48,1.25.56,2.25.22,3.2-.26.91-.82,1.51-1.95,2.03-.56.22-1.04.26-1.51.26"/>
  <path class="cls-1" d="M381.12,231.61v-37.65c2.94-2.94,5.32-6.14,7.05-9.38,3.54-6.22,4.88-12.62,4.19-18.07-.91-7.82-4.88-14.65-11.24-20.45v-2.59c7.48,6.27,12.1,13.96,13.18,22.82.3,2.38.22,4.88-.22,7.52.13-.48-.22,1.04-.09.56.43,0-8.73,52.35-8.73,52.35,0,0-1.34,2.12-4.19,4.84"/>
  <path class="cls-1" d="M381.12,179.43c1.9-5.14,2.16-9.99,1.69-13.06,0-.35-.22-2.72-1.69-6.01v19.06Z"/>
  <path class="cls-1" d="M381.12,85.67v-1.9c.35-.35.69-.91.99-1.73.43-1.04.56-1.73.43-2.16-.09-.26-.35-.56-.69-.69-.22-.13-.48-.13-.69-.09v-1.6c.43,0,.82.09,1.25.22,1.04.43,1.73,1.12,2.03,2.07.35.91.26,1.9-.22,3.07-.48,1.25-1.12,2.03-2.03,2.46-.35.22-.69.35-1.04.35"/>
  <path class="cls-1" d="M387.13,280.07l-1.47,1.25c.35.26.65.69,1.12,1.73l2.46,4.97,1.82-.91-2.51-5.14c.22-.56.65-.99.99-1.17.48-.22.78-.09,1.21.82l2.25,4.63,1.73-.82-2.46-5.1c.22-.56.56-1.04.91-1.25.48-.22.69-.09,1.12.78l2.25,4.67,1.82-.82-2.46-5.1c-.43-.99-.78-1.34-1.34-1.47-.48-.13-1.12-.09-1.69.22-.78.43-1.17.91-1.56,1.95-.13-.13-.26-.22-.48-.22-.56-.22-1.12-.22-1.69.09-.69.35-1.21.82-1.38,1.6-.26-.35-.43-.48-.65-.65"/>
  <path class="cls-1" d="M381.12,77.5v1.6s-.43.22-.56.43c-.26.35-.56.82-.82,1.56-.35.91-.56,1.56-.48,1.95,0,.48.35.91.69,1.04.43.13.82.09,1.21-.26v1.9c-.56.09-1.12,0-1.73-.3-2.03-.78-2.81-2.81-1.82-5.1.69-1.82,2.03-2.85,3.54-2.81"/>
  <path class="cls-1" d="M381.12,160.37v19.06c-.22.56-.43,1.04-.65,1.6-1.73,3.98-4.54,8.26-8.73,12.15v-2.64c2.07-2.16,3.76-4.41,5.01-6.57-1.95-1.17-3.63-2.12-5.01-2.85v-32.25c.78.56,1.38,1.04,1.9,1.56,3.89,3.54,6.14,7.13,7.48,9.99"/>
  <path class="cls-1" d="M381.12,193.96v37.65c-2.07,1.9-4.97,4.06-8.73,6.01-.22.09-.43.13-.61.26v-36.53c.56-.35,1.12-.69,1.6-1.04,2.94-1.95,5.53-4.11,7.74-6.35"/>
  <path class="cls-1" d="M381.12,283.01v1.73c-.26-.13-.69-.13-.99,0-.48.13-.78.65-.69,1.12,0,.43.13.99.43,1.73.35.82.69,1.38,1.04,1.73.09.09.13.09.22.13v1.73c-1.38-.09-2.64-1.04-3.37-2.72-.91-2.29-.22-4.41,1.73-5.23.56-.22,1.04-.26,1.6-.26"/>
  <path class="cls-1" d="M371.78,82.47v-3.54l1.73-4.97c.35-.99.48-1.6.69-2.29l2.16.26c-.09.43-.22.91-.65,1.95l-2.03,5.88c-.43,1.25-.48,1.47-.43,1.69,0,.13.13.26.35.35.09,0,.09.09.22.09l-.09,1.25c-.43,0-.82-.09-1.25-.22-.26-.09-.56-.22-.78-.43"/>
  <path class="cls-1" d="M371.78,78.88v3.54c-.35-.26-.65-.69-.65-1.17,0-.43.09-.69.43-1.73l.22-.61v-.04Z"/>
  <path class="cls-1" d="M371.78,134.48v4.8l-.09-.09-.56.3-1.04,2.16.26.48-.26.69.09.22-.35.69-.13.09-.82,1.73.09.13-.43.78c1.25.82,2.38,1.69,3.29,2.38v32.25c-2.59-1.34-4.54-2.07-6.66-2.98v-33.59s.43.22.65.35l.43-.69h.22l.65-1.17-.22-.09.69-1.34h.22l.3-.56.35-.13,1.21-2.29-.22-.09.22-.48c-1.38-.78-2.85-1.47-4.32-2.16h-.09v-2.16c.3.13.65.3.91.43,1.56.69,3.07,1.47,4.63,2.29l.26-.56.22-.09.65-1.34-.13.04Z"/>
  <path class="cls-1" d="M371.78,190.54v2.64c-.26.26-.48.48-.78.78-1.9,1.69-3.85,3.07-5.88,4.32v-2.29c1.6-.99,3.07-2.16,4.54-3.5.78-.65,1.47-1.34,2.07-1.95"/>
  <path class="cls-1" d="M371.78,201.35v36.53c-1.95.99-4.24,2.12-6.66,3.16v-36.01c2.29-1.12,4.54-2.29,6.66-3.63"/>
  <path class="cls-1" d="M371.78,292.56l-2.25-6.44c-.35-.99-.69-1.82-.99-2.38l-1.82,1.17c.43.78.65,1.25.82,1.9l2.98,8.47,1.21-.43v-2.29h.04Z"/>
  <path class="cls-1" d="M365.12,80.31v-1.47s.48-.09.69-.22l.48-1.6-.09-.09c-.43-.13-.82-.22-1.12-.22v-1.56c.43.09.78.13,1.21.26.13.09.26.09.48.13l.09-.3c.26-.82.22-1.17-.56-1.38-.35-.13-.69-.13-1.21-.09v-1.69c.78-.09,1.34,0,1.95.22,1.25.35,2.03,1.12,2.03,2.03,0,.35,0,.65-.3,1.38l-.82,2.59v.13c-.26.78-.22,1.12.22,1.73l-1.38.91c-.43-.35-.69-.82-.78-1.25-.22.09-.43.22-.65.3-.09,0-.13,0-.26.09"/>
  <path class="cls-1" d="M365.12,72.18v1.69c-.35,0-.78.09-1.25.22l-.43-1.69c.48-.09.82-.13,1.38-.22h.3Z"/>
  <path class="cls-1" d="M365.12,75.21v1.56c-.65-.09-.91.22-1.12.82-.13.56.09,1.12.56,1.25.22,0,.43.09.56,0v1.47c-.35.09-.82,0-1.34-.13-1.73-.56-2.38-1.69-1.9-3.2.43-1.47,1.56-2.03,3.2-1.73"/>
  <path class="cls-1" d="M365.12,133.7v2.16c-1.95-.91-4.06-1.82-6.14-2.59v-2.12c2.07.82,4.19,1.69,6.14,2.51"/>
  <path class="cls-1" d="M365.12,144.55v33.59c-.69-.26-1.47-.56-2.29-.91l-.09.13-3.76-2.59v-4.28c.82.69.91,1.82.82,2.51l1.04.69.09-1.82s1.38-.09,1.69-.13c.13-1.17.22-3.29.22-4.11,0-3.07-1.21-6.48-3.85-9.77v-16.56c1.04.48,2.07.99,3.07,1.51,1.12.56,2.16,1.12,3.07,1.69"/>
  <path class="cls-1" d="M365.12,195.99v2.29c-1.04.69-2.07,1.25-3.2,1.82-.99.48-1.95.99-2.94,1.38v-2.07c.69-.35,1.38-.69,2.07-.99,1.38-.78,2.81-1.51,4.06-2.42"/>
  <path class="cls-1" d="M365.12,204.98v36.01c-2.03.91-4.11,1.82-6.14,2.59v-36.01c2.07-.78,4.11-1.6,6.14-2.59"/>
  <path class="cls-1" d="M358.98,169.66c.26,0,.43-.13.56-.26.09-.13.13-.35.09-.69.09-3.07-.22-5.71-.65-8.08v9.08-.04Z"/>
  <path class="cls-1" d="M358.98,71.71v-3.72h.99c-.26.69-.56,1.56-.78,2.29l1.82.48-.91,1.21-1.12-.3v.04Z"/>
  <path class="cls-1" d="M358.98,67.99v3.72l-.13-.09-1.04,3.93c-.22.91-.13,1.25.56,1.38.13.09.26.09.65.09v1.25c-.65.09-1.21.09-1.69-.09-.99-.26-1.69-.99-1.73-1.69-.09-.35,0-.48.13-1.25l1.12-4.11-.78-.22.43-1.38.78.22c.13-.78.3-1.25.56-1.82l1.21.09-.09-.04Z"/>
  <path class="cls-1" d="M358.98,112.91v6.22l-.43.35-.56.99-.13.43.22.22-.13.43-.22.22.13.78.43.65-.65.13-.43.13-.43.65-.65,2.03.43.82-.3.61-.13.3.35.43-.3.56-.56.35.65.99v.22c.91.26,1.73.61,2.64.91v2.12c-5.23-1.95-10.98-3.63-17.12-5.01v-1.95c.99.22,1.95.43,2.85.65l.13-.22-.09-.13.09-.22.22-.22.35-.13.78-.13.09-.22-.09-.13.22-.65.35-.26.13-.22-.13-.09.3-.78.35.13.26-.13.26-.56-.26-.13.22-.61-.09-.13.13-.43-.13-.13.22-.56h.22l.22-.69-.35-.26-.35-.56.26-.91.13-.09.09-.13-.13-.48.35-.91.82-.43.22.22.48.65.26.13.48-.22.3-.78-.22-.22.09-.3.3-.26h.22l.43.91.48.13.69-.35.26-.82-.26-.26-.09-.48.09-.48-.43-.78.65-1.6-.65-.35-.09-.22.13-.35h.82l.43-.35.43-.56,1.47-1.12v-.09l.35-.99.13.09.22-.65.3.09.13-.13.26.3.09.78-.22.69.35.48v.69l.22.22-.78,2.38-.26.09-1.34,3.85.09.78.13.35.09.91v.56l-.13.35-.43.3.09.61.65.22.56-.35.22-.43v-.69l-.35-1.04.26-1.12-.13-.22.09-.43.65-.26.48-.43.13-.48-.13-.13.35-1.04.65.13.09-.26-.13-.3-.09-.35.22-.48.56-.09v-.3Z"/>
  <path class="cls-1" d="M358.98,141.31v16.56c-.43-.48-.78-.91-1.21-1.34.48,1.25.82,2.59,1.21,4.06v9.08h-.09v.78l.09.09v4.28l-.99-.65.09-.09c-.35-.22-.3-.56-.22-.91,0,0,.22-.91-.22-1.25-.35,0-.56-.13-.65-.35-.13-.13-.22-.35-.09-.78v-1.95c0-.43.35-.82.78-.99,0-6.57-1.6-11.24-3.63-14.61-3.16-2.38-7.18-4.41-12.23-5.92v-12.06s.35.09.48.13c1.38.35,2.72.78,3.98,1.21,4.45,1.34,8.73,2.94,12.62,4.76"/>
  <path class="cls-1" d="M358.98,199.41v2.12c-2.59,1.04-5.32,2.03-8.52,2.94-2.98.91-5.88,1.69-8.6,2.38v-2.03c2.51-.65,5.23-1.34,8.04-2.16,3.42-1.04,6.44-2.12,9.08-3.2"/>
  <path class="cls-1" d="M358.98,207.58v36.01c-4.24,1.6-8.17,2.81-10.68,2.85l.43,5.23s.13.35.09.69c0,.3-.09.56-.43.69-.3.26-.48.22-.78.09.09.09.22.13.3.22-1.73,1.04-3.85,2.03-6.01,2.81v-8.65c2.07,1.47,3.72,2.46,4.8,3.07l-.35-3.89c-1.56-1.38-3.07-2.72-4.45-3.98v-30.22c5.36-1.12,11.33-2.64,17.12-4.88"/>
  <path class="cls-1" d="M341.91,302.9v-1.82h.56c.35-.09.78-.43.91-.69l-.69-3.72c-.26-.22-.56-.26-.78-.35v-1.56s.26.09.43.13c0-.13-.13-.69-.3-1.12l-.13-.78v-1.95l1.73-.09,1.51,8.08c.35,1.95.65,2.51.82,2.81l-1.82.35s-.13-.22-.22-.43c-.43.56-.99.91-1.69.99-.13.09-.3.09-.43.09"/>
  <path class="cls-1" d="M341.91,69.89v-1.21c.09.35.09.78,0,1.21"/>
  <path class="cls-1" d="M349.43,292.87c.26.26.43.56.48.91.26-.26.48-.56.78-.82.35-.26.82-.56,1.34-.65.82-.22,1.73.09,2.07.65.22.3.35.65.43,1.12l1.38,5.58-2.03.48-1.21-5.01c-.22-.82-.43-1.04-.99-.91-.43.09-.82.48-1.17.99l1.34,5.45-2.03.48-1.38-5.58c-.13-.65-.35-1.25-.69-1.73l1.69-.91v-.04Z"/>
  <path class="cls-1" d="M341.91,68.68v1.21s0,.26-.09.43c-.22,1.38-.69,2.25-1.47,2.85-.56.48-1.21.78-2.03.78v-1.6c.65-.09,1.04-.82,1.25-2.38.22-1.04.22-1.82,0-2.16-.22-.3-.48-.48-.82-.56-.13-.09-.26-.09-.43,0v-1.6s.43,0,.65.09c1.12.22,1.95.69,2.42,1.6.3.43.43.91.48,1.38"/>
  <path class="cls-1" d="M341.91,126.31v1.95c-1.21-.22-2.38-.48-3.54-.69v-2.03c1.21.3,2.38.48,3.54.78"/>
  <path class="cls-1" d="M341.91,135.25v12.06s-.26-.09-.43-.13c-1.04-.26-2.07-.56-3.16-.69v-12.15c1.21.3,2.46.61,3.54.91"/>
  <path class="cls-1" d="M341.91,204.81v2.03c-1.21.3-2.42.56-3.54.78v-1.95c1.12-.26,2.38-.56,3.54-.82"/>
  <path class="cls-1" d="M341.91,212.46v30.22c-1.25-1.17-2.42-2.25-3.54-3.37v-26.2c1.21-.22,2.38-.43,3.54-.69"/>
  <path class="cls-1" d="M341.91,247.52v8.65c-1.12.43-2.38.82-3.54,1.21v-12.62c1.25,1.04,2.51,1.95,3.54,2.81"/>
  <path class="cls-1" d="M341.91,294.81v1.51h-.48c-.91.22-1.12,1.04-.78,2.81.22,1.34.56,1.9,1.25,1.95v1.82c-1.73.13-3.16-1.12-3.54-3.37v-2.16c.26-1.34,1.21-2.38,2.51-2.59.43-.09.78-.09,1.04,0"/>
  <path class="cls-1" d="M338.32,65.61v1.6c-.35.09-.65.26-.78.56-.22.43-.35.99-.48,1.73-.22.91-.22,1.6-.13,2.03.13.43.56.69.99.78.13.09.3.09.43,0v1.6s-.48-.09-.78-.09c-2.07-.43-3.2-2.25-2.81-4.67.35-2.25,1.73-3.54,3.54-3.54"/>
  <path class="cls-1" d="M338.32,125.53v2.03c-2.03-.43-4.11-.78-6.27-1.12v-1.95c2.16.26,4.24.69,6.27,1.04"/>
  <path class="cls-1" d="M338.32,134.35v12.15c-2.03-.26-4.19-.26-6.27-.09v-13.49c2.16.43,4.24.91,6.27,1.38"/>
  <path class="cls-1" d="M338.32,205.63v1.95c-2.25.48-4.32.91-6.27,1.25v-1.95c1.95-.35,4.06-.78,6.27-1.25"/>
  <path class="cls-1" d="M338.32,213.15v26.2c-2.29-2.16-4.32-4.19-6.27-6.27v-18.93c1.95-.22,4.06-.56,6.27-.99"/>
  <path class="cls-1" d="M338.32,244.75c-1.9-1.6-4.06-3.5-6.27-5.75v19.89c2.16-.43,4.24-.91,6.27-1.51v-12.62Z"/>
  <path class="cls-1" d="M338.32,297.41v2.12c-.13-.78-.13-1.47,0-2.12"/>
  <path class="cls-1" d="M332.05,304.49v-1.51h.43c.91-.13,1.17-.99.91-2.85-.13-1.04-.43-1.69-.78-2.03-.13-.13-.35-.22-.56-.26v-1.51c.82,0,1.6.26,2.25.82.69.65,1.12,1.47,1.34,2.72.22,1.34,0,2.29-.56,3.16-.48.78-1.17,1.34-2.46,1.47-.13.09-.35.09-.56.09"/>
  <path class="cls-1" d="M332.05,63.54v-2.16c.43.3.69.78.65,1.25-.09.43-.26.69-.65.91"/>
  <path class="cls-1" d="M332.05,61.38v2.16s-.56.26-.82.22c-.69-.09-1.17-.78-1.12-1.47.13-.69.78-1.21,1.47-1.04.22,0,.35.09.48.13"/>
  <path class="cls-1" d="M332.05,132.92v13.49c-7.87.91-15.56,5.19-17.72,11.59v3.85c.43.13,1.21,0,1.21,0v3.2h-1.25s.09,2.59.09,2.81c-.35-.13-1.38-.22-2.85-.26v-37.22c7.61.48,14.44,1.38,20.62,2.59"/>
  <path class="cls-1" d="M332.05,206.88v1.95c-6.57,1.21-11.33,1.56-13.7,1.69.99,1.69,1.95,3.29,2.85,4.76,1.38-.09,5.45-.35,10.81-1.12v18.93c-1.47-1.6-2.85-3.2-4.19-4.88-2.64-3.29-5.1-6.79-7.74-11.02-.13-.09-.3-.22-.35-.56-1.21-1.9-2.38-3.89-3.63-6.05-.13-.13-.26-.26-.35-.69-.78-1.38-1.6-2.85-2.42-4.41l-1.9,3.85v-4.45l.26-.48h-.26v-1.95h1.34s.48-.13.91.09c.56.26.69.56.65.82,1.04,1.9,2.03,3.72,3.03,5.36,1.69-.09,6.92-.35,14.74-1.73"/>
  <path class="cls-1" d="M332.05,239c-6.22-6.35-13.62-15.65-20.62-28.83v51.05c4.97-.22,12.84-.78,20.62-2.29v-19.93Z"/>
  <path class="cls-1" d="M332.05,296.28v1.51h-.35c-.48.09-.82.43-.99.99-.09.43-.09.99.09,1.73.13.91.3,1.6.56,1.95.13.26.43.43.69.48v1.51c-1.82,0-3.2-1.34-3.54-3.54-.35-2.51.82-4.32,2.94-4.67h.65l-.04.04Z"/>
  <path class="cls-1" d="M311.43,305.96v-7.35c.48-.35,1.12-.48,1.69-.56.56,0,1.12.09,1.56.26.35.13.48.22.82.48l-.99,1.47c-.43-.43-.82-.65-1.25-.56-.91.09-1.34.82-1.21,2.72.09,1.04.22,1.69.48,1.95.26.26.65.43.99.43.48,0,.91-.3,1.38-.78l.09-.09,1.04,1.17c-.3.35-.43.43-.69.65-.56.35-1.12.56-1.9.65-.78,0-1.47-.13-2.03-.48"/>
  <path class="cls-1" d="M319.95,294.25c.13.43.26,1.21.35,1.9l.13,1.6s.09.56.09.65c.48-.56,1.34-.99,2.16-1.04.99-.09,1.82.26,2.16.91.13.48.22.69.35,1.47l.48,5.53-2.03.22-.48-5.32c-.09-.78-.35-1.04-.91-.99-.48,0-1.12.43-1.51.82l.56,5.66-2.07.22-.91-9.08c-.09-.78-.22-1.47-.35-1.82l2.03-.69-.04-.04Z"/>
  <path class="cls-1" d="M315.84,62.89c.22.35.26.69.26,1.12.26-.35.82-.78,1.25-.91.13-.09.43-.09.69-.09s.43.09.69.22l-.69,1.82s-.35-.22-.56-.22c-.48-.09-.91.13-1.34.56l-.43,5.58-2.03-.13.35-5.32c.09-1.04,0-1.9-.13-2.29l1.9-.35h.04Z"/>
  <path class="cls-1" d="M325.61,65.96c-.35-.43-.78-.69-1.12-.69-.99-.13-1.47.65-1.69,2.51-.09,1.04,0,1.69.22,2.03.22.3.56.48.91.56.48,0,.91-.13,1.47-.56l.13-.09.78,1.34c-.26.3-.48.43-.78.56-.56.22-1.21.35-1.95.3-2.16-.22-3.29-1.9-2.98-4.45.22-1.82.99-2.94,1.95-3.42.56-.35,1.38-.48,2.03-.43.56.09,1.12.26,1.51.48.26.22.35.35.69.69l-1.21,1.21.04-.04Z"/>
  <path class="cls-1" d="M311.43,122.24v1.95c-1.34-.09-2.64-.13-3.98-.22v-1.95l3.98.22"/>
  <path class="cls-1" d="M311.43,130.37v37.22c-1.12-.09-2.51-.13-3.98-.13v-37.26l3.98.22"/>
  <path class="cls-1" d="M311.43,202.35v1.95c-.56,0-1.21.09-1.82.09-.69,0-1.38,0-2.16.09v-1.95c.78,0,1.47-.09,2.07-.09.69,0,1.34,0,1.9-.09"/>
  <path class="cls-1" d="M311.43,204.81v4.45l-.22.48.22.43v51.05c-1.73.09-3.16.13-3.98.13v-52.44c.69-.09,1.34-.09,2.03-.09l1.95-4.06v.04Z"/>
  <path class="cls-1" d="M311.43,298.66v7.35c-.99-.56-1.6-1.73-1.69-3.42-.09-1.82.56-3.07,1.38-3.76.13-.09.22-.13.26-.13"/>
  <path class="cls-1" d="M307.46,70.8v-1.6s.22.09.26.09c.78,0,1.38-.22,2.07-.78l.78,1.34c-.99.69-1.95.99-3.07.99h-.09l.04-.04Z"/>
  <path class="cls-1" d="M307.46,67.21v-1.56l1.21.09v-.09c0-.65,0-.91-.22-1.25-.22-.26-.48-.43-.91-.48h-.09v-1.47h.13c.91,0,1.73.35,2.25.91.69.78.99,1.82.91,3.5v.48l-3.29-.13Z"/>
  <path class="cls-1" d="M307.46,62.5v1.47c-.78.09-1.21.65-1.21,1.69v.09h1.21v1.56l-1.34-.09v.09c0,1.12.48,1.82,1.34,1.95v1.6c-2.25-.13-3.63-1.82-3.5-4.28,0-1.38.35-2.38,1.04-3.07.69-.69,1.47-1.04,2.42-.99"/>
  <path class="cls-1" d="M307.46,122.03v1.95c-.69-.09-1.38-.09-2.07-.09l-.43.48.09,3.54.13.22-.13.56-.13.56v.78c.82,0,1.73.09,2.59.09v37.26h-4.06v-53.6l.13.48h.48l.65.3.69,1.04v2.16l.09.91-.43.56.13.22.09.78-.22.09.09.65.22-.09v-.35h.43l.3.22-.09.82-.13.43c.56,0,1.12.09,1.69.09"/>
  <path class="cls-1" d="M307.46,202.48v1.95c-1.21,0-2.59.09-4.06.09v-1.95c1.47,0,2.85-.09,4.06-.09"/>
  <path class="cls-1" d="M307.46,208.92v52.44h-.91v-12.49c0-1.04-1.12-3.2-3.16-4.8v-35.1h4.06v-.04Z"/>
  <path class="cls-1" d="M303.44,306.74v-1.73h.09c.48,0,.82-.22.99-.65.13-.43.22-.82.22-1.82,0-.69-.09-.99-.13-1.34-.13-.69-.56-.99-1.12-.99v-1.73h.43c1.9-.09,3.16,1.47,3.2,3.98,0,1.6-.48,2.85-1.47,3.63-.48.48-1.04.65-1.69.69-.22,0-.35-.09-.48-.09"/>
  <path class="cls-1" d="M303.44,113.81v53.65c-3.5,0-7.26.09-10.07.13v-37.48c1.12-.09,2.25-.09,3.37-.09v-.09l.09-.35-.26-.3v-.82l.22-.78v-1.82l-1.25-2.07h-2.07v-1.9c.48-.09.99-.09,1.38-.09l.3-.35v-1.12l.22-.13v-.61l-.35-.22v-1.9l.09-1.82.13-.48.65-.99.78-.61-.26-.35-.56-.69-.22-.22.22-.3h.99l.48.22.65.65.09.56h.26v-.69l-.13-.43-.56-.56.13-.48.22-.69.09-1.38-.3-.09.13-.48.09-.56.91-.69v-.61h-.22l-.09-.48h-.22v-.22h.22v-.35h.82l.22.3.09,1.04.13.13h.61l.13-.22.65-.13.48-.65.13-.26.22-.48.56-1.04h.56v1.9l.13.3v3.07l-.09.13-.13.61-.09.69-.26.09-.13.56-.82.82v.65l-.22.22h.26v3.5l.43.91.13.35h.13l-.09-.91-.22-.78-.22-.22v-.35l.13-.09.26-.91.56-.35-.09-.3-.26-.35-.13-.35.13-.48h.35l.56.56v.13l-.04-.09Z"/>
  <path class="cls-1" d="M303.44,202.56v1.95c-2.94.09-6.27.09-10.07-.09v-1.95c3.76.13,7.13.13,10.07.09"/>
  <path class="cls-1" d="M303.44,208.92v35.1c-1.34-1.04-3.07-1.9-5.14-1.9-.48,0-1.04.09-1.56.13,0,.09-.09.09-.13.09-.13,0-.35.09-.48.09-.56.22-.99.56-1.34.99-.48.69-.69,1.6-.69,2.51v.43l-.13,8.43s-.09.35-.09.43l-.48.91v-47.25c3.29.09,6.7.13,10.07.09"/>
  <path class="cls-1" d="M303.44,298.49v1.73c-.56,0-.91.35-1.21.65l.09,3.63c.3.26.65.48,1.12.48v1.73c-.56-.09-.99-.26-1.34-.61-.09.26-.09.35-.22.56h-1.82c.13-.35.13-.56.13-1.69l-.13-7.35c0-.99,0-1.51-.09-1.95l2.03-.56c.09.56.09.91.13,1.38v2.59c.3-.35.69-.56,1.25-.65"/>
  <path class="cls-1" d="M293.36,306.74v-1.47c.82-.09,1.25-.82,1.34-2.64,0-1.12-.13-1.82-.43-2.16-.13-.26-.48-.43-.82-.43h-.09v-1.51h.09c1.12,0,2.03.43,2.64,1.25.65.78.82,1.6.82,2.94-.09,1.34-.35,2.25-1.04,2.98-.65.65-1.38,1.04-2.51,1.04"/>
  <path class="cls-1" d="M293.36,64.23v-1.69c.35-.09.65-.22,1.04-.22.65,0,1.21.22,1.6.61.09.13.22.3.26.43.78-.78,1.38-1.04,2.25-1.04.65-.09,1.25.13,1.56.43.43.43.56.82.65,1.95l.09,5.66h-1.95l-.09-5.23c0-.91-.13-1.12-.69-1.12-.35,0-.91.26-1.34.69l.09,5.75h-1.95l-.09-5.19c-.09-.99-.22-1.17-.78-1.17-.22,0-.43,0-.65.13"/>
  <path class="cls-1" d="M293.36,62.54v1.69s-.48.26-.69.48l.09,5.71-1.56.09v-7.82l.99-.26s.22.43.3.78c.26-.26.56-.43.91-.61"/>
  <path class="cls-1" d="M293.36,121.9v1.9c-.69.09-1.38.09-2.16.13v-1.95c.78-.09,1.47-.09,2.16-.09"/>
  <path class="cls-1" d="M293.36,130.07v37.48c-.82,0-1.51,0-2.16.09v-37.48c.69,0,1.47-.09,2.16-.09"/>
  <path class="cls-1" d="M293.36,202.48v1.95c-.69,0-1.38,0-2.16-.09v-1.95c.78.09,1.47.09,2.16.09"/>
  <path class="cls-1" d="M293.36,208.83v47.29l-2.07,4.11s0,.13-.09.13v-4.24l.78-1.56.13-8.26s.09-.13.09-.22c-.09-.09-.09-.13-.09-.22,0-.35.09-.78.13-1.12-.43.43-.78.82-1.04,1.25v-37.31c.69,0,1.47,0,2.16.09"/>
  <path class="cls-1" d="M293.36,298.49v1.51c-.48,0-.82.26-1.04.78-.13.43-.22.99-.3,1.73,0,.91.09,1.6.22,2.03.22.43.65.65,1.04.69h.09v1.47h-.13c-.78,0-1.47-.26-2.03-.61v-6.92c.65-.48,1.34-.69,2.16-.69"/>
  <path class="cls-1" d="M291.2,62.67v7.82h-.48l-.09-5.53c0-1.17-.13-1.69-.35-2.03l.91-.3v.04Z"/>
  <path class="cls-1" d="M291.2,130.15v37.48c-.99,0-1.69.09-1.95.13-.26-.43-.13-2.64-.13-2.64-.26-.13-.82-.09-1.25-.09v-3.2h1.25c.09-1.47,0-3.76,0-3.76-.43-2.29-4.54-7.05-10.98-9.77v-16.9c4.19-.56,8.52-.99,13.06-1.25"/>
  <path class="cls-1" d="M291.2,202.43v1.95c-4.06-.13-8.43-.43-13.06-.99v-1.95c4.63.56,8.99.82,13.06.99"/>
  <path class="cls-1" d="M291.2,208.79v37.31c-.65,1.04-.99,2.03-.99,2.72v9.34l.99-2.03v4.28c-.13.35-.35.65-.99.43-4.06.22-8.99-.43-12.1-.99v-51.96c4.28.43,8.6.69,13.06.91"/>
  <path class="cls-1" d="M291.2,299.22v6.92c-.99-.69-1.47-1.95-1.47-3.54.09-1.47.65-2.64,1.47-3.37"/>
  <path class="cls-1" d="M278.15,305.92v-1.47c.35-.09.65-.22.91-.48l.22-1.69h-.13c-.35-.09-.69-.09-.99,0v-1.51c.26,0,.56.09.82.09.13,0,.26,0,.43.09l.09-.35c.09-.82-.09-1.17-.82-1.25h-.48v-1.69h.91c1.34.13,2.16.69,2.46,1.6.09.35.09.65,0,1.47l-.26,2.64s-.09.09-.09.13c-.09.82.09,1.17.65,1.69l-1.25,1.21c-.43-.26-.82-.69-.99-1.12-.22.13-.35.26-.56.43-.22.13-.48.22-.82.26"/>
  <path class="cls-1" d="M278.15,71.28v-7.87s.22.35.26.61c.48-.56,1.12-.91,1.82-.99.69,0,1.25.13,1.69.56.13.09.3.22.35.35.69-.78,1.34-1.12,2.16-1.21.65-.09,1.17.09,1.6.35.48.35.65.82.69,1.9l.43,5.66-2.03.13-.35-5.23c-.09-.91-.22-1.12-.78-1.04-.35,0-.91.35-1.34.78l.43,5.66-1.95.13-.35-5.1c-.09-1.04-.22-1.25-.82-1.17-.35,0-.82.26-1.25.69l.43,5.75-.99.09v-.04Z"/>
  <path class="cls-1" d="M278.15,63.41v7.87l-1.04.13-.43-5.53c-.09-1.17-.22-1.69-.43-2.03l1.82-.61s.09.09.09.13"/>
  <path class="cls-1" d="M278.15,131.41v16.9c-2.38-1.04-5.1-1.82-8.08-2.07v-13.49c.78-.13,1.56-.3,2.29-.43,1.9-.35,3.85-.61,5.79-.91"/>
  <path class="cls-1" d="M278.15,201.44v1.95c-2.64-.26-5.36-.65-8.08-1.12v-1.95c2.72.48,5.45.82,8.08,1.12"/>
  <path class="cls-1" d="M278.15,297.58v1.69c-.56.09-1.21.26-1.9.69l-.78-1.51c.48-.26.78-.35,1.38-.56.43-.13.82-.22,1.25-.26"/>
  <path class="cls-1" d="M278.15,300.73v1.51c-.69.09-.99.35-1.04,1.04-.09.56.26,1.04.82,1.12h.22v1.47h-.78c-1.73-.22-2.64-1.17-2.46-2.72.13-1.69,1.25-2.42,3.2-2.42"/>
  <path class="cls-1" d="M270.02,72.4v-1.56h.35c.91-.13,1.17-.99.99-2.85-.13-1.04-.43-1.73-.69-2.03-.13-.13-.35-.3-.65-.3v-1.6c.91,0,1.6.26,2.29.91.69.61,1.12,1.47,1.25,2.72.13,1.38-.09,2.38-.65,3.2-.48.78-1.25,1.25-2.42,1.38-.13,0-.35.09-.48.09"/>
  <path class="cls-1" d="M270.02,64.1v1.6s-.22-.09-.35-.09c-.48.09-.82.43-.91.99-.13.43-.13.99,0,1.73.09.91.3,1.6.48,1.95.13.26.48.48.78.56v1.51c-.56,0-1.04-.13-1.47-.35v-7.65c.26-.09.56-.22.91-.22.22-.09.43-.09.56-.09"/>
  <path class="cls-1" d="M270.02,124.23v1.95c-.48.09-.99.13-1.47.26v-1.95c.48-.13.99-.22,1.47-.3"/>
  <path class="cls-1" d="M270.02,132.75v13.49c-.48,0-.99-.09-1.47-.09v-13.14c.48-.13.99-.22,1.47-.3"/>
  <path class="cls-1" d="M270.02,200.31v1.95c-.48-.09-.99-.22-1.47-.26v-1.95c.48.09.99.22,1.47.26"/>
  <path class="cls-1" d="M270.02,232.17v7.74s-.35-.09-.48-.09c-.35-.09-.69-.13-.99-.13v-7.74l1.47.22Z"/>
  <path class="cls-1" d="M268.55,296.76v-3.72l.43-.09c0,.65-.13,1.56-.3,2.59,0,0-.13,1.21-.13,1.21Z"/>
  <path class="cls-1" d="M268.55,64.36v7.69c-1.12-.56-1.9-1.69-2.07-3.37-.26-2.07.56-3.72,2.07-4.32"/>
  <path class="cls-1" d="M268.55,124.49v1.95c-1.51.22-3.16.48-4.67.82v-2.03c1.51-.3,3.16-.56,4.67-.78"/>
  <path class="cls-1" d="M268.55,133.01v13.14c-1.51,0-3.07.09-4.67.35v-12.49c1.51-.35,3.07-.69,4.67-.99"/>
  <path class="cls-1" d="M268.55,200.05v1.95c-1.51-.26-3.07-.56-4.67-.91v-2.03c1.6.35,3.16.69,4.67.99"/>
  <path class="cls-1" d="M268.55,231.96v7.74h-.22s-.3.09-.48.09c-.43,0-.91.35-1.25.78-.43.65-.69,1.38-.69,2.29v9.77s-.13.48-.22.56l-1.82,2.16v-2.98l.09-.09v-9.77c.09-.26.09-.48.13-.78-.09.09-.13.13-.22.22v-10.76l4.67.78Z"/>
  <path class="cls-1" d="M268.55,293.04v3.72l-1.04,7.69-2.12-.26,1.25-8.86c.09-.69.13-1.25.13-2.07l1.73-.13.04-.09Z"/>
  <path class="cls-1" d="M263.88,72.88v-1.69l.91.82c-.26.35-.56.65-.91.82"/>
  <path class="cls-1" d="M263.88,71.23v1.69c-.48.35-1.12.56-1.9.69-1.47.22-2.64-.09-3.72-.91-1.04-.78-1.69-2.03-1.95-3.54-.22-1.34-.13-2.46.22-3.42.56-1.69,1.9-2.85,3.63-3.16,1.04-.22,2.16,0,2.85.35l-.78,1.6c-.56-.26-1.21-.35-1.73-.26-.78.13-1.38.56-1.69,1.25-.35.65-.35,1.56-.13,2.81.26,1.47.48,2.25.91,2.81.56.69,1.34.99,2.25.82.65-.13,1.17-.43,1.73-.99l.26.3.04-.04Z"/>
  <path class="cls-1" d="M263.88,125.27v2.03c-2.29.43-4.63.91-6.92,1.47-2.07.48-4.11.99-6.14,1.56v-10.07l.78,2.59.78-.78-.22-.35-.69-.65-.09-.43.56-.13-.09-.22.56-.22.22.22.56-.26v-.13l.78-.22.09.13.43-.13.35.22-.22,1.25.13.56.56.35.13.43-.22.48-.13.43,1.04.56.22.69.09.22.56.3.22.61h.13l-.09.13.09.43.35.3c2.03-.48,4.11-.91,6.22-1.34"/>
  <path class="cls-1" d="M263.88,134v12.49c-.99.13-2.03.43-2.98.69-.99.26-1.9.61-2.81,1.04-2.59,1.12-5.01,2.72-7.26,4.67v-15.09c3.76-1.38,8.17-2.64,13.06-3.85"/>
  <path class="cls-1" d="M263.88,199.06v2.03c-3.2-.78-6.44-1.6-9.64-2.59-1.21-.43-2.29-.78-3.42-1.17v-2.03c1.25.43,2.64.91,4.06,1.34,2.94.99,6.01,1.82,8.99,2.42"/>
  <path class="cls-1" d="M263.88,206.06v13.06c-.91.91-1.6,2.25-1.69,3.76l.13,6.48,1.51-1.51v3.07l-.26.22.26.09v10.76c-1.12,1.34-1.82,3.07-1.69,4.76v7.61l1.69-1.95v2.98l-.91,1.12s-.43.48-.78.43h-.09c-5.36-1.25-9.64-2.81-11.33-3.42v-50.19c4.06,1.04,8.43,1.95,13.06,2.81"/>
  <path class="cls-1" d="M250.83,301.56v-1.51c.56,0,1.12-.13,1.73-.43l.48,1.38c-.78.35-1.47.56-2.25.56"/>
  <path class="cls-1" d="M250.83,298.01v-1.51l1.12.22v-.09c.13-.56.13-.91,0-1.17-.09-.35-.35-.65-.78-.69h-.35v-1.6s.43.09.69.13c.82.22,1.6.69,2.03,1.34.56.82.65,1.95.26,3.63-.09.13-.09.26-.13.43l-2.85-.65v-.04Z"/>
  <path class="cls-1" d="M262.15,297.54c-.78-.56-1.25-.82-1.82-.91-.61-.13-1.04.09-1.17.56-.09.43.13.65.82.99l.91.43c.91.43,1.21.78,1.38,1.17.22.43.3.82.22,1.38-.3,1.6-1.82,2.42-3.85,2.12-.99-.22-1.95-.69-2.98-1.47l.99-1.38c.56.48,1.6,1.21,2.42,1.38.65.09,1.12-.22,1.21-.69.13-.56-.22-.91-.99-1.21l-.91-.35c-.48-.22-1.04-.69-1.25-1.04-.3-.43-.3-.99-.22-1.47.26-1.51,1.69-2.38,3.5-2.03,1.25.22,1.95.78,2.64,1.25l-.91,1.25Z"/>
  <path class="cls-1" d="M250.83,117.44v1.04l-.35.56.35,1.17v10.07c-2.42.65-4.8,1.34-7.05,2.12v-9.38l.22-.09-.09-.22.99-.26.09.26.48-.13.22.69-.13.26.22.69.22.09.35.3.09.26-.09.13-.09.22-.22.3.22.26.3.22.22-.43-1.47-4.97-.35-.22-.43-.09-.22-.22h-.13l-.13-.35.13-.13v-.26l.43-.13v-.22l.26-.09-.09-.13.13-.09-.22-.22v-.35l-.13-.82.13-.09-.13-.43h-.22l-.13-.35.13-.13-.56-2.12v-10.25h.13l.43.22.13.65-.13.09.13.26-.13.09.09.35h-.13v.13h-.13l.13.48-.09.13v.13h.43l.91.26.43-.09.26-.82h.22l.43.26.13.43-.35,1.12.13.48h.3l.09.43.22-.09.09.26-.13.13.22.91-.09.13.09.13.35.09.43.22.35.35.09.43-.22.78.09.35-.09.09.13.78-.13.09.26.43.26.78.43.35.69.13.13.56.22,1.04-.26.35.22.48.43.09-.13.09Z"/>
  <path class="cls-1" d="M250.83,137.85v15.09c-.43.35-.78.78-1.21,1.12-1.73,3.07-2.98,7.52-3.29,14.09.35.13.69.56.69.99l-.09,2.38c0,.48-.13.69-.3.82h-.09v.09s-.35.09-.56.09c-.09.09-.09.26-.09.48.09.22.09.43,0,.56.09.48.09.91-.82,1.04h-.3l-1.12.99v-2.59l.26-.26c.09-.65.3-1.47.99-1.9v-.82c-.35-.09-.48-.22-.56-.48-.09-.13-.09-.26-.09-.56.09-4.11.65-7.61,1.38-10.42-.78,1.04-1.47,2.12-2.03,3.2v-21.14c1.04-.43,2.25-.91,3.5-1.38,1.12-.43,2.29-.91,3.54-1.34"/>
  <path class="cls-1" d="M250.83,195.3v2.03c-2.59-.91-4.88-1.82-7.05-2.64v-2.12c2.07.91,4.45,1.82,7.05,2.72"/>
  <path class="cls-1" d="M250.83,293.13v1.6c-.56,0-1.04.48-1.25,1.38v.09l1.25.26v1.56l-1.6-.35v.09c-.3,1.21.13,1.95,1.17,2.25.13,0,.3.09.43.09v1.56c-.26-.09-.65-.09-.91-.13-2.25-.48-3.29-2.38-2.72-4.8.26-1.38.78-2.25,1.6-2.85.65-.43,1.25-.65,2.03-.65"/>
  <path class="cls-1" d="M243.78,299.05v-.91l.26.78s-.22.09-.26.13"/>
  <path class="cls-1" d="M243.78,293.26v-1.95c.43.13.82.35,1.12.69.26.22.35.35.65.69l-1.34,1.04s-.3-.35-.43-.48"/>
  <path class="cls-1" d="M243.78,77.16v-.13s.09.09.09.13h-.09Z"/>
  <path class="cls-1" d="M247.2,65.96c.22.69-.26,1.34-.99,1.56-.65.13-1.34-.26-1.47-.99-.22-.69.26-1.38.99-1.51.65-.13,1.34.26,1.47.99"/>
  <path class="cls-1" d="M243.78,77.03v.13l-.48.13v-1.34c.22.56.35.82.48,1.04"/>
  <path class="cls-1" d="M243.78,127.21v5.14s-.35.09-.48.13v-4.76l.35-.13.13-.43v.04Z"/>
  <path class="cls-1" d="M243.78,140.57v21.14c-.13.3-.35.56-.48.91v-21.92s.35-.09.48-.13"/>
  <path class="cls-1" d="M243.78,192.58v2.12s-.35-.13-.48-.22v-2.07s.35.13.48.22"/>
  <path class="cls-1" d="M243.78,201.18v23.34l-.48.35v-11.37s.13-.43.13-.65c0,.09-.09.09-.13.13v-12.02s.35.13.48.22"/>
  <path class="cls-1" d="M243.78,225.34v9.55s-.35.22-.48.35v-10.07l.48.13v.04Z"/>
  <path class="cls-1" d="M243.78,291.31v1.9s-.35-.22-.48-.26v-1.73s.13.09.3.09c.09,0,.13,0,.22.09"/>
  <path class="cls-1" d="M243.78,298.14v.91s-.26.13-.48.22v-1.73h.09l.13-.09s.26.69.26.69Z"/>
  <path class="cls-1" d="M243.3,75.95v1.34l-1.25.35s-.13-.22-.22-.43c-.35.56-.91.91-1.6,1.12-.22.09-.43.09-.69.09v-1.82s.43,0,.69-.09c.43-.13.78-.48.82-.78l-.99-3.63s-.35-.22-.56-.22v-1.56s.13,0,.13.09c0-.09-.09-.22-.13-.43v-3.42l1.17-.13,2.07,7.95c.22.65.35,1.17.48,1.56"/>
  <path class="cls-1" d="M243.3,127.78v4.76c-1.25.43-2.51.91-3.76,1.34v-2.03c1.17-.48,2.38-.82,3.63-1.25l-.22-.69.13-.22.09-.43.13-.48-.13-.69.09-.3h.09-.04Z"/>
  <path class="cls-1" d="M243.3,140.7v21.92c-.65,1.25-1.12,2.59-1.47,3.85-1.21,4.54-.99,6.1-.99,6.1h1.51v1.6l.91-.78v2.51l-2.42,2.12v.09s-.09.09-.3.09c-.13.13-.26.22-.43.22-.22.09-.35.13-.61.22v-36.31c1.12-.48,2.38-.99,3.63-1.47.09,0,.13,0,.13-.09"/>
  <path class="cls-1" d="M243.3,192.36v2.12c-1.34-.56-2.59-1.12-3.76-1.69v-2.16c1.17.56,2.42,1.12,3.76,1.73"/>
  <path class="cls-1" d="M243.3,200.96v12.02c-.99.69-1.73,1.95-1.73,3.72l.09,6.7,1.69-1.17-.13-7.39v-.09c0-.43.09-.91.13-1.25v11.37l-.35.22.35.13v10.07c-1.12,1.04-1.69,2.64-1.51,3.63l-.09,8.86,1.6-1.6v2.64l-.91.91c-.35.35-.65.61-1.25.13-.56-.13-1.04-.35-1.6-.56v-49.67c1.25.48,2.51.91,3.76,1.34"/>
  <path class="cls-1" d="M243.3,291.18v1.73s-.09-.09-.13-.09c-.91-.26-1.56.43-2.03,2.25-.26.99-.26,1.6-.13,2.03.13.35.48.56.82.69.43.09.91,0,1.47-.26v1.73h-.09c-.65.22-1.25.22-2.03,0-.69-.22-1.25-.56-1.69-.99v-5.32c.56-.91,1.25-1.47,1.95-1.69.56-.22,1.25-.26,1.82-.13"/>
  <path class="cls-1" d="M239.54,66.61v3.42s-.13-.48-.22-.69l-.69-2.64.91-.09Z"/>
  <path class="cls-1" d="M239.54,70.37v1.56s-.43-.09-.65,0c-.91.22-1.12,1.04-.65,2.81.35,1.25.69,1.82,1.25,1.9v1.82c-1.6.13-2.94-1.04-3.5-3.16-.65-2.38.22-4.41,2.16-4.88.48-.13.91-.13,1.34,0"/>
  <path class="cls-1" d="M239.54,293v5.32c-.78-.91-1.04-2.25-.56-3.89.13-.56.35-1.04.56-1.38"/>
  <path class="cls-1" d="M226.4,294.38v-1.69c.43-.26.82-.91,1.25-2.03.35-1.04.43-1.73.26-2.16-.09-.26-.35-.56-.69-.69-.26-.09-.56-.09-.82.09v-1.73c.43,0,.91.09,1.34.22,1.04.43,1.73,1.04,2.16,2.03.35.99.26,1.9-.13,3.07-.43,1.25-1.04,2.03-1.95,2.59-.43.22-.91.35-1.38.35"/>
  <path class="cls-1" d="M226.4,82.65v-1.73s.26-.35.35-.56l-.35-1.21v-4.63s.43.3.65.48c.22.3.35.48.56,1.34l.82,2.51s.09.09.09.13c.26.78.48,1.04,1.17,1.25l-.65,1.6c-.48-.09-.99-.26-1.34-.56-.09.22-.22.35-.35.56-.22.3-.56.56-.99.78"/>
  <path class="cls-1" d="M226.4,74.56v4.63l-.13-.43h-.13c-1.34.48-1.69.91-1.38,1.82.22.56.69.82,1.17.69.22-.09.35-.22.48-.35v1.73s-.22.09-.35.13c-1.69.56-2.85.09-3.42-1.47-.56-1.73.35-2.98,2.72-3.85.13,0,.26-.09.48-.09l-.13-.35c-.26-.82-.56-1.04-1.25-.78-.65.22-1.25.78-1.9,1.56l-1.34-1.12c.35-.35.56-.65,1.04-.99.65-.56,1.21-.91,1.9-1.21.82-.3,1.6-.3,2.25,0"/>
  <path class="cls-1" d="M226.4,137.98v2.29s-.35.22-.56.35c-2.94,2.07-5.53,4.06-7.82,6.05v-2.51c2.03-1.73,4.24-3.42,6.7-5.19l1.69-1.04"/>
  <path class="cls-1" d="M226.4,151.08v33.68c-1.38-1.04-2.29-1.95-2.81-2.59-1.82-2.07-3.76-5.36-4.97-8.99-.22-.82-.48-1.69-.65-2.51v-6.92c.78-3.2,2.16-5.88,4.19-8.3.22-.22.43-.43.56-.61,1.04-1.34,2.25-2.51,3.63-3.72"/>
  <path class="cls-1" d="M226.4,193.18v12.36c-1.12.56-2.03,1.9-2.25,4.06v6.22l2.25-1.12v2.38l-.65.35.65.22v8.08c-2.25.22-2.03,3.37-2.07,4.28v8.26l2.07-.82v1.9l-1.38.56c-.26.09-.48.13-.69.13v.09s-.09-.09-.09-.13c-.22,0-.43-.22-.56-.48v-.09c-1.21-1.25-3.63-3.98-4.88-5.79-.26-.43-.56-.82-.78-1.25v-44.18c2.42,1.73,5.32,3.42,8.39,5.1"/>
  <path class="cls-1" d="M226.4,286.12v1.73s-.26.22-.43.35c-.26.35-.56.82-.82,1.6-.26.82-.43,1.51-.43,1.95.09.48.43.82.78.99.35.09.65.09.91-.09v1.69c-.43,0-.91-.09-1.47-.22-2.03-.78-2.81-2.72-1.95-5.1.65-1.82,1.95-2.85,3.42-2.94"/>
  <path class="cls-1" d="M218.02,282.79v-3.54l1.25.22c-.13.56-.48,1.47-.91,2.38l-.35.99v-.04Z"/>
  <path class="cls-1" d="M218.02,78.84v-2.03l.09-.09c.3-.13.43-.13.78-.13l.13,1.95s-.43,0-.61.09c-.13.09-.3.13-.35.22"/>
  <path class="cls-1" d="M218.02,76.81v2.03c-.26.22-.43.48-.56.82l.56,1.47v4.32l-.48.22-1.95-4.97c-.35-.99-.78-1.69-1.12-2.03l1.6-1.17c.26.26.48.56.69.99.13-.48.43-1.04.69-1.38.13-.09.35-.22.56-.3"/>
  <path class="cls-1" d="M218.02,144.2v2.51c-2.38,2.07-4.32,4.11-5.92,6.22-.99,1.25-1.82,2.59-2.51,3.85v-3.72c.26-.43.65-.82.99-1.25,1.95-2.64,4.45-5.1,7.48-7.61"/>
  <path class="cls-1" d="M218.02,163.74v6.92c-.43-2.16-.56-4.28-.13-6.27.09-.22.09-.43.13-.61"/>
  <path class="cls-1" d="M218.02,188.12v44.18c-2.51-4.28-4.19-10.2-4.8-14.22-.35-1.9-1.95-10.76-3.63-20.27v-18.07c.65,1.04,1.34,2.03,2.07,2.94.82.91,1.69,1.69,2.59,2.51,1.12,1.04,2.38,2.03,3.76,2.94"/>
  <path class="cls-1" d="M218.02,279.25v3.54l-2.98,7.35-1.95-.82,3.42-8.26c.26-.61.48-1.12.65-1.95l.91.13h-.04Z"/>
  <path class="cls-1" d="M209.59,286.9v-4.63l.48.43c.78.65.99,1.04,1.04,1.56.13.43.09.91-.22,1.38-.3.65-.78,1.04-1.34,1.25"/>
  <path class="cls-1" d="M209.59,280.55v-1.69c.26.09.65.13.91.26,1.12.56,1.73,1.25,2.25,1.9l-1.21.99c-.56-.69-.99-1.12-1.51-1.34-.13-.09-.3-.13-.43-.13"/>
  <path class="cls-1" d="M209.59,88.48v-2.16c.48.65,1.21.78,1.95.43.65-.26,1.12-.78,1.56-1.56l1.17.82c-.48,1.04-1.25,1.73-2.29,2.25-.82.35-1.6.43-2.38.22"/>
  <path class="cls-1" d="M209.59,85.37l3.85-1.69s-.13-.26-.22-.43c-.69-1.51-1.38-2.38-2.38-2.72-.35-.13-.78-.22-1.25-.22v1.6s.35.09.48.13c.26.22.48.48.69,1.04l.09.09-1.25.56v1.64Z"/>
  <path class="cls-1" d="M209.59,80.35v1.6s-.35,0-.56.13c-.69.26-.82,1.04-.43,2.03v.09l.99-.43v1.6l-.43.22.09.09s.22.43.35.65v2.16c-1.12-.3-2.07-1.12-2.64-2.51-.65-1.34-.69-2.29-.35-3.29.26-.91.82-1.51,1.82-1.95.43-.22.82-.3,1.21-.35"/>
  <path class="cls-1" d="M209.59,153.07v3.72c-1.6,2.98-2.51,6.22-2.72,9.77-.35,5.45.69,9.73,2.72,13.18v18.07c-1.25-7.13-2.59-14.52-3.5-19.76-.43-1.9-.82-4.19-1.04-6.7v-6.14c.43-4.45,1.95-8.39,4.54-12.15"/>
  <path class="cls-1" d="M209.59,278.86v1.69c-.35-.09-.69.09-.82.43-.13.35,0,.65.56,1.12l.26.22v4.63c-.78.35-1.82.26-2.85-.22-.65-.26-1.21-.69-1.69-1.25v-1.6l.48-.43c.35.65,1.21,1.51,1.95,1.95.56.22,1.12.09,1.34-.35.26-.48,0-.91-.69-1.38l-.78-.56c-.43-.35-.82-.99-.91-1.38-.13-.43-.09-.99.13-1.47.56-1.12,1.69-1.6,2.98-1.34"/>
  <path class="cls-1" d="M205.05,275.06v-2.12l.78.3c-.09.35-.26.82-.78,1.82"/>
  <path class="cls-1" d="M205.05,89.3v1.82l-1.12.56-2.38-4.67c-.43-.82-.56-.99-1.04-.69-.35.13-.78.65-.99,1.21l2.59,5.1-1.73.91-2.29-4.63c-.48-.91-.69-1.04-1.21-.78-.35.13-.78.56-.99,1.12l2.64,5.14-1.82.91-2.51-4.88s-.22-.35-.26-.48v-2.03l.56-.48s.35.26.56.61c.3-.78.78-1.34,1.38-1.6.56-.35,1.21-.35,1.73-.13.13,0,.3.09.43.22.35-1.04.78-1.6,1.51-1.95.56-.3,1.21-.43,1.6-.3.65.13.91.48,1.38,1.47l1.9,3.54h.04Z"/>
  <path class="cls-1" d="M205.05,165.21v6.14c-.22-1.51-.22-3.29-.13-4.97,0-.43.09-.78.13-1.21"/>
  <path class="cls-1" d="M205.05,272.94v2.12h-.09l-2.85,5.53c-.65,1.17-.69,1.38-.69,1.6,0,.13.13.35.26.43.09,0,.13.09.22.09l-.22,1.25c-.43-.09-.82-.22-1.25-.43-.78-.35-1.17-1.04-1.12-1.82.09-.43.13-.65.69-1.6l2.72-5.23c.48-.99.69-1.51.99-2.16l1.34.26v-.04Z"/>
  <path class="cls-1" d="M205.05,283.83l-.82.65c.26.35.56.69.82.99v-1.64Z"/>
  <path class="cls-1" d="M193.94,279.38v-1.34s.26,0,.43-.09l.82-1.47-.09-.09c-.48-.26-.82-.43-1.21-.48v-1.6c.48.13,1.04.35,1.6.69.13.09.3.13.43.26l.13-.26c.48-.78.48-1.12-.22-1.56-.48-.26-1.12-.35-1.95-.35v-1.73c.26,0,.56.09.99.09.82.13,1.47.35,2.12.69,1.12.69,1.69,1.56,1.51,2.51-.09.26-.13.56-.65,1.25l-1.34,2.29s-.09.09-.09.13c-.48.69-.48,1.04-.22,1.73l-1.6.56c-.26-.43-.48-.91-.48-1.38-.09,0-.13.09-.26.09"/>
  <path class="cls-1" d="M193.94,87.92v2.03c-.22-.43-.35-.69-.56-.82v-.69l.56-.48v-.04Z"/>
  <path class="cls-1" d="M193.94,274.32v1.6s-.35,0-.56.09v-1.82s.35.09.56.13"/>
  <path class="cls-1" d="M193.94,278.04v1.34s-.22.09-.35.09h-.22v-1.47s.35.09.56.09"/>
  <path class="cls-1" d="M193.38,97.69v-1.73s.26.09.35.09l-.3,1.69h-.09l.04-.04Z"/>
  <path class="cls-1" d="M193.38,88.4v.69s-.22-.3-.35-.35l.35-.35Z"/>
  <path class="cls-1" d="M193.38,95.92v1.73c-.48.09-.99-.09-1.38-.3,0,.22-.09.43-.22.65-.09.26-.35.56-.65.82v-5.92l1.04,1.95s.09.09.13.09c.35.61.56.91,1.04.99"/>
  <path class="cls-1" d="M193.38,274.19v1.82s-.35.22-.48.48c-.35.56-.22,1.12.22,1.38.13.09.22.09.26.09v1.47c-.43,0-.91-.13-1.34-.43-.43-.22-.69-.48-.91-.69v-3.16c.56-.78,1.34-1.12,2.25-.99"/>
  <path class="cls-1" d="M191.13,266.89v-.69l.43.13s-.3.35-.43.56"/>
  <path class="cls-1" d="M191.13,92.93v5.92s-.35.22-.48.35c-.26.13-.56.26-.82.35v-1.73s.3-.09.43-.13c.35-.22.56-.56.65-1.04l-.82-1.47-.09.09s-.09.09-.13.09v-4.11s.13.13.3.22c.22.22.43.43.82,1.12l.22.43-.09-.09Z"/>
  <path class="cls-1" d="M191.13,266.15v.69c-.35.43-.65.91-.99,1.38l.99.56v.91l-.65.43-.69-.48v-3.98l1.34.48Z"/>
  <path class="cls-1" d="M191.13,275.19v3.16c-.78-.82-.82-1.82-.22-2.81.09-.13.13-.3.22-.35"/>
  <path class="cls-1" d="M189.79,91.2v4.11c-1.12.69-1.34,1.17-.91,1.95.22.35.56.56.91.56v1.73c-1.21.35-2.07-.09-2.81-1.12-.91-1.6-.3-2.98,1.95-4.32.09-.09.22-.13.35-.22l-.13-.26c-.43-.78-.78-.91-1.38-.56-.56.35-1.04,1.04-1.56,1.95l-.43-.22v-2.25c.43-.48.82-.78,1.34-1.12,1.04-.56,1.95-.69,2.64-.3"/>
  <path class="cls-1" d="M189.79,265.68v3.98l-.43-.22-2.16,3.37c-.48.82-.48,1.17.09,1.51.22.13.35.13.78.3l-.48,1.17c-.65-.13-1.12-.35-1.6-.65-.09,0-.09-.09-.13-.09v-3.89l1.82-2.85-.65-.43.78-1.17.65.43c.43-.69.69-1.12,1.12-1.51l.26.09-.04-.04Z"/>
  <path class="cls-1" d="M185.81,100.89v-.22h.09s0,.13-.09.22"/>
  <path class="cls-1" d="M185.81,92.59v2.25l-1.04-.61c.22-.43.43-.69.78-1.21.09-.13.22-.3.26-.43"/>
  <path class="cls-1" d="M185.81,100.67l-1.47-.56c-.3.78-.65,1.25-1.21,1.6-.78.48-1.6.56-2.38.13-.65-.35-1.21-.91-1.95-2.16-.69-1.04-1.04-1.9-1.04-2.64,0-.69.43-1.38.99-1.73s1.12-.48,1.82-.48v-1.73c-.78-.13-1.9.22-2.81.78-1.38.99-2.25,2.59-2.03,4.41.09,1.04.48,2.03,1.25,3.16.82,1.34,1.95,2.16,3.2,2.51,1.25.35,2.51.13,3.72-.69.99-.65,1.51-1.34,1.9-2.29v-.3Z"/>
  <path class="cls-1" d="M185.81,271.21l-.48.78c-.43.65-.48.78-.56,1.12-.13.65.26,1.47,1.04,2.03v-3.93Z"/>
  <path class="cls-1" d="M373.94,127.13l1.04-.78,2.38,1.04-.22,1.34-2.94,3.63-1.12-.56.82-4.67h.04ZM372.26,137.33v-.13l1.25-2.51h.13l.48-.48.48-.22.43-.82-.09-.22,1.04-1.56,1.9-1.95.78-.22-.35-.99.22-.43-.09-.22.26-.48-.91-.43.65-1.25-.43-.22.43-.82-.56-.3-.43-1.34-.91,1.73-.43.13-.35.78-.13.13-.91-.48-.48.48-.35.35-.56.43-.13.56-.56,3.2c-.13.43-.3.82-.35,1.25l-.13-.09-.43.82v.78l.13.13v.26l.09.78-.22.35v4.8c3.54,2.03,6.66,4.32,9.34,6.79v-2.59c-2.64-2.25-5.58-4.28-8.86-6.14"/>
  <path class="cls-1" d="M229.56,131.1l-3.37-4.19.35-.99,2.25-1.25,1.12,1.04.78,4.76-1.12.65ZM232.41,134.61l-.13-.09-.78-1.69.09-.78.09-.35.43-.35-.56-1.34h-.13c-.09-.43-.22-.82-.3-1.25l-.35-3.2-.13-.56-.56-.48-.3-.43-.43-.43-.99.35-.09-.13h-.09l-.3-.78-.43-.22-.78-1.73-.35.91-.13.35-.65.26.43.82-.48.22.56,1.25-.91.35.22.48-.09.22.13.43-.35.99.78.3.48.61,1.25,1.38.91,1.69-.09.22.35.82.48.22.48.56h.13l.91,2.16c-1.6.82-3.16,1.6-4.45,2.51v2.29c1.38-.99,3.07-1.95,4.8-2.85l.13.56.61.26.91,2.25-.35.48.22.69v.22l.26.69.13.13.69,1.73-.09.13.13.35c-1.25.78-2.51,1.69-3.76,2.81-1.21,1.04-2.38,2.07-3.42,3.07-.13.09-.3.22-.35.26v33.68c1.34,1.12,3.07,2.46,5.45,3.89,2.07,1.25,4.63,2.64,7.69,4.11v-2.16c-2.59-1.25-4.8-2.46-6.7-3.63-1.82-1.12-3.29-2.16-4.41-2.98,4.41-2.81,8.99-4.67,11.11-5.45v-36.31c-.99.35-1.9.78-2.81,1.17l-.09-.22-.26.09-.48-1.25.13-.09-.56-1.34-.22-.09-.22-.56-.43-.22-.99-2.29.22-.09-.43-1.04c1.9-.91,3.93-1.69,6.1-2.51v-2.03c-2.51.91-4.88,1.9-7.05,2.85l-.09-.09.26.22Z"/>
  <path class="cls-1" d="M276.81,108.97l-1.82-4.45.65-.91,2.42-.65.82,1.25-.78,4.67-1.34.09h.04ZM279.96,121.51h.22l-.13-1.47-.22-.09-.09-.65-.35-.26-.26-2.51h.26l-.22-1.73-.26-.22-.22-1.12-.13-.13-.22-1.82.26-.69.13-.35.48-.22-.13-1.47h-.13c.09-.43.09-.82.09-1.25l.65-3.2v-.56l-.43-.65-.13-.43-.26-.65-.69.09-.35.09-.09-.22-.09-.82-.35-.26-.22-1.9-.91,1.04-.56.09.09.91-.48.09.13,1.38-.91.09v.56l-.13.22.09.43-.65.82.65.48,1.12,2.42.13.56.22.35.22.69-.22.43.09.91.43.26.26.65.13.13.3,2.72-.09.43-.13.43v1.25l.48.48.3,2.38-.48.35v.78l-.13.22.09.69.13.22.22,1.73c-2.42.26-4.88.61-7.35,1.04v1.95c2.72-.43,5.45-.82,8.08-1.12,4.54-.56,8.95-.99,13.06-1.12v-1.95c-3.54.13-7.26.43-11.02.82l-.22-1.34-.09.04Z"/>
  <path class="cls-1" d="M323.45,103.96l.82-.69,2.51.09.43,1.38-1.69,4.11-1.34-.26-.78-4.63h.04ZM324.66,123.32l.13-1.34h.13l.13-1.47-.13-.09.09-.69-.3-.26.3-2.51h.22l.22-1.73-.22-.22.09-1.21-.13-.13.22-1.82.43-.61.13-.3.56-.13.13-1.47h-.13c.22-.48.26-.91.43-1.38l1.25-2.85.13-.56-.26-.65-.09-.48-.13-.69-1.04-.09v-.22l.09-.82-.26-.35.22-1.9-1.12.82-.56-.09-.13.99-.48-.09-.13,1.34-.91-.09-.09.56-.22.13v.43l-.82.69.56.65.56,2.59.13.91-.09.99-.22.13-.09.99.26.35.13.69.13.13-.3,2.72-.13.43-.26.35-.26,1.25.35.56-.22,2.38-.56.3-.13.69-.13.22-.09.69.09.22-.22,1.82c-3.42-.35-6.83-.65-10.42-.82v1.95c7.26.43,14.09,1.21,20.62,2.25v-1.95c-2.29-.43-4.76-.78-7.18-1.04l-.22-.13-.09-.09Z"/>
  <path class="cls-1" d="M231.63,215.83l-2.85-1.04s0-.09-.09-.09c-.09-.13-.13-.26-.22-.35v-6.22c.09-1.12.43-1.95.82-2.51,1.25.69,2.29,2.29,2.29,4.76v5.45h.04ZM226.4,193.18v12.36c.26-.13.56-.3.91-.3-.43.69-.69,1.69-.78,2.72v6.61l-.13.09v2.38l1.34-.65,3.93,1.47v1.69l-5.23-1.95v8.08s.48,0,.78.09c-.09.13-.13.22-.22.35-.26.43-.48.99-.56,1.47v11.67l1.38-.65c.26-.09.56-.48.56-.78v-9.77c0-.26.09-.69.26-.99.22-.43.3-.48.78,0,1.69,2.12,1.56,5.92,1.56,6.57l.09,11.46s3.5,2.25,8.52,4.11v-49.67c-3.07-1.21-5.92-2.51-8.52-3.89-1.6-.82-3.16-1.69-4.63-2.51"/>
  <path class="cls-1" d="M274.73,224.35v4.28l-8.6-1.38-.22-7.18c.13-.99.43-1.82.91-2.51,3.76-.99,8.39,1.12,7.91,6.83M268.55,206.76c-1.34-.22-2.64-.43-3.93-.65-.26,0-.48-.09-.78-.09v13.06s.13-.13.26-.22c-.09.35-.13.69-.13,1.04v.09l.13,7.52-.26.26v3.07l1.82-1.82,2.85.48,1.47.22,4.67.78v2.38l-4.67-.78v7.74c4.67,1.17,5.19,5.88,5.23,7.69.13,1.9,0,11.71,0,11.71,0,0,1.12.22,2.85.48v-51.96c-2.72-.26-5.45-.56-8.08-.91-.48-.09-.99-.13-1.47-.22"/>
  <path class="cls-1" d="M246.03,212.2c2.07.22,4.06,2.07,3.98,5.92v5.32l-4.54-1.34s-.09-.09-.09-.13c-.09-.09-.13-.13-.13-.13l-.13-7.13c0-1.04.35-1.9.91-2.51M243.78,224.48l.82-.65,5.36,1.6v1.69l-6.22-1.82v9.55s.48-.3.78-.43c-.43.69-.69,1.51-.78,2.29v11.59l1.51-1.51s.3-.48.3-.65l.13-8.95v-.3c0-.99.48-2.25,1.12-2.25h.43c2.51,1.25,2.81,4.54,2.81,6.44v11.93s.26.13.78.35v-50.19c-2.42-.69-4.8-1.38-7.05-2.07v23.39Z"/>
</svg>