<?xml version="1.0" encoding="UTF-8"?>
<svg id="Layer_1" data-name="Layer 1" xmlns="http://www.w3.org/2000/svg" viewBox="0 0 600 368">
  <defs>
    <style>
      .cls-1 {
        fill: #c51718;
      }

      .cls-2 {
        fill: #008f39;
      }

      .cls-3 {
        fill: #ffffff;
      }

      .cls-4 {
        fill: #ffffff;
      }
    </style>
  </defs>
  <polygon class="cls-3" points="52.9 231.24 53.11 231.59 57.05 232.78 57.4 232.61 57.22 232.26 53.25 231.06 52.9 231.24"/>
  <polygon class="cls-3" points="55.5 224.84 58.24 227.93 58.38 228.04 58.63 227.97 58.66 227.58 55.92 224.49 55.54 224.45 55.5 224.84"/>
  <polygon class="cls-3" points="61.12 221.05 61.93 225.09 62.11 225.3 62.25 225.33 62.46 224.98 61.65 220.94 61.33 220.73 61.12 221.05"/>
  <polygon class="cls-3" points="71.39 237.35 71.56 237.67 75.53 238.86 75.85 238.69 75.67 238.37 71.7 237.14 71.39 237.35"/>
  <polygon class="cls-3" points="72.97 232.92 72.79 233.24 72.97 233.42 73.11 233.45 77.12 232.4 77.33 232.05 76.98 231.87 72.97 232.92"/>
  <polygon class="cls-3" points="75.08 225.68 72.16 228.64 72.16 228.99 72.27 229.06 72.55 228.99 75.46 226.07 75.46 225.68 75.08 225.68"/>
  <polygon class="cls-3" points="68.19 220.94 67.24 224.98 67.45 225.3 67.45 225.3 67.8 225.12 68.72 221.08 68.54 220.73 68.19 220.94"/>
  <polygon class="cls-3" points="14.38 146.15 14.17 146.5 14.41 146.74 14.45 146.74 18 145.94 18.21 145.58 17.89 145.3 14.38 146.15"/>
  <polygon class="cls-3" points="17.51 145.44 17.3 145.8 17.54 146.08 17.61 146.04 21.13 145.23 21.34 144.88 21.02 144.64 17.51 145.44"/>
  <polygon class="cls-3" points="17.61 155.25 17.44 155.57 17.54 155.81 17.58 155.81 19.86 155.28 20.04 154.97 19.86 154.72 17.61 155.25"/>
  <polygon class="cls-3" points="19.62 154.79 19.44 155.14 19.58 155.39 19.62 155.39 21.86 154.86 22.04 154.55 21.9 154.3 19.62 154.79"/>
  <polygon class="cls-3" points="18.49 150.19 18.24 150.58 18.63 150.82 22.74 149.94 22.78 149.94 22.95 149.56 22.57 149.31 18.49 150.19"/>
  <polygon class="cls-3" points="14.87 151 14.62 151.35 15.01 151.63 19.09 150.75 19.16 150.72 19.33 150.36 18.95 150.12 14.87 151"/>
  <polygon class="cls-3" points="14.31 148.71 14.1 149.06 14.34 149.27 14.41 149.27 18.63 148.33 18.84 147.97 18.53 147.76 14.31 148.71"/>
  <polygon class="cls-3" points="18.07 147.87 17.86 148.22 18.14 148.47 18.17 148.43 22.43 147.48 22.64 147.13 22.32 146.92 18.07 147.87"/>
  <polygon class="cls-3" points="18.95 152.54 18.81 152.86 19.09 153.07 22.81 152.16 22.85 152.16 22.95 151.84 22.67 151.66 18.95 152.54"/>
  <polygon class="cls-3" points="15.64 153.39 15.47 153.7 15.78 153.88 19.51 153 19.54 152.97 19.65 152.68 19.37 152.47 15.64 153.39"/>
  <polygon class="cls-3" points="26.29 166.99 22.18 167.94 21.93 168.39 22.29 168.68 26.4 167.73 26.64 167.27 26.36 166.99 26.29 166.99"/>
  <polygon class="cls-3" points="22.64 167.83 18.53 168.78 18.28 169.24 18.67 169.52 22.74 168.54 22.99 168.11 22.71 167.8 22.64 167.83"/>
  <polygon class="cls-3" points="22.46 158.34 20.21 158.83 20.04 159.19 20.18 159.43 22.46 158.9 22.64 158.59 22.5 158.34 22.46 158.34"/>
  <polygon class="cls-3" points="20.46 158.76 18.17 159.29 18 159.61 18.17 159.85 20.42 159.33 20.6 159.01 20.49 158.76 20.46 158.76"/>
  <polygon class="cls-3" points="17.33 164.18 17.26 164.21 17.12 164.56 17.47 164.84 21.58 163.97 21.79 163.58 21.41 163.33 17.33 164.18"/>
  <polygon class="cls-3" points="20.95 163.4 20.92 163.4 20.74 163.79 21.13 164.04 25.2 163.16 25.41 162.77 25.06 162.53 20.95 163.4"/>
  <polygon class="cls-3" points="26.33 164.53 21.72 165.65 21.51 166.04 21.83 166.29 26.43 165.2 26.64 164.81 26.36 164.53 26.33 164.53"/>
  <polygon class="cls-3" points="22.22 165.48 17.65 166.6 17.44 166.99 17.75 167.23 22.36 166.15 22.57 165.76 22.29 165.48 22.22 165.48"/>
  <polygon class="cls-3" points="17.23 162 17.19 162 17.08 162.28 17.4 162.49 21.13 161.58 21.27 161.26 20.95 161.08 17.23 162"/>
  <polygon class="cls-3" points="20.56 161.15 20.49 161.19 20.39 161.47 20.7 161.68 24.43 160.77 24.57 160.45 24.29 160.24 20.56 161.15"/>
  <polygon class="cls-3" points="54.9 134.9 54.38 134.48 62.88 124.11 73.99 128.01 73.78 128.64 63.13 124.92 54.9 134.9"/>
  <path class="cls-3" d="M53.22,195.18l.07-.21.07.11v.28h-.07l-.07-.07v-.11ZM53.22,195.99l-.07-.21v-.07h0v-.07l.21.11.18-.95v-.11h-.07l-.07.07-.07-.21.07-.28h.07l-.04-.11v-.21l.11-.39.07-.18h.07l.07-.46v-.81l.14-.63v-.28l.04-.28v-.88l-.25-.32-.21-.11-.18-.14-.35-.28v-.21l-.14-.25-.21-.42-.14-.35h-.07l-.07-.21h-.07l-.14-.35.07-.21.18-.21h-.11l-.11-.21.11-.42.25-.28.25-.28-.07-.07h0v-.39l-.11-.25h-.07l.04-.11-.14-.11-.21.18v.07l-.04.11-.21-.18h-.18v-.04l-.11-.14-.21-.18v.07h-.07l-.07-.25-.07-.11-.21-.32h-.14l-.25-.07-.32-.11-.35-.32h-.18l-.21.07-.11-.07h-.14l-.32-.21h-.18l-.18-.18-.18-.07h-.07l-.28-.25-.07-.14.07-.18-.07-.14-.39-.56-.21-.18v-.18l-.28-.28h-.07l-.21-.21-.07-.25-.11-.21-.28-.14v.07l.11.32.18.18.14.25.21.35.18.39.11.11v.11l-.14-.14-.21-.21-.07-.07v-.18l-.18-.21-.28-.18.11-.07-.28-.35-.11-.32-.14-.32h0v-.04l-.6-.42v-.14l-.28-.56-.35-.49c-.07.7-.14,1.44-.14,2.14,0,6.57,3.3,12.37,8.37,15.82l-.07-.28.14-.28.11.07Z"/>
  <path class="cls-3" d="M81.61,186.14l.07.14-.11-.14h.04ZM81.79,186.53h.04l.07.18-.11-.18h0ZM78.73,185.27l-.14-.18.07-.53.25.42s-.18.28-.18.28ZM74.3,184.14h-.07l.18-.07-.11.07ZM73.78,189.38h-.11c0,.42-.14.77-.25,1.12-.11.28-.14.74-.49.74l-.28-.35v-.18l-.07-.25.11-.14.11-.28-.07-.35c0-.32.21-.28.39-.42l.42-.42v-.18l.28.6v.11h-.04ZM62,172.51l-.25-.11h.04v-.25h-.25l.32-.07h0l-.28-.21h.11v-.04l.11-.07h.04v.11l.14.14h.11v-.11l.07.07h.21v-.07h.39v-.11h.11l.11.07h.14-.04l.21.32h0l-.25.25-.46.18-.53-.11h-.04ZM62.6,168.82l-.18.11-.07-.11.07-.07h.11v.07h.11-.04ZM61.16,171.07l-.6.18h-.28l-.11.11-.14.11-.21.32-.42.21h-.11v-.14l-.11.18-.42.28v.14l.07.14-.28.35v.35l-.21.42-.07-.07h-.11l-.28-.25-.25.07-.18-.18v-.14l-.39-.6.07-.11h-.21l-.07-.25-.18-.39.07-.18h-.11v-.14l.25-.35h.18l.18-.42-.63-.28h.11l.35.11.07-.11-.42-.39-.14.11-.14-.11.14-.28-.14-.11v-.11c-.18-.56-.56-1.12-1.23-1.12h-.18l-.18.07h-.28.07l-.07.07-.39-.14.11-.11-.25-.11h-.21l.18-.14h.14l.11-.07h.32l.07-.14h-.25l-.07.07h-.21l-.6-.28.32-.18.28-.14h.49l.14-.39-.42-.14.11-.11.56-.35h.14l.25-.28.53-.11.42-.14.25.21v-.21l.28.18h.07v-.14l.11-.07.53.21h.25l-.35-.25.25-.07-.11-.11.49-.14h.35l.11.04v-.07h.25l.81-.18h.84c.35,0,.6.25.88.39l.49.07-.6.25-1.27.07h1.2l-.21.32.67-.39.14.21-.39.56.53-.56h.53l.21-.11h.28l.11-.07.35.21-.14.14-.56.25h.14l-.28.21v.07l-.25.18v.11l-.25.28-.11.28h.18l.25.11h-.11l.25.28-.42.11-.11.11.18.11.07.28v.14l-.18.07.25.14-.25.18.07.11-.32.25-.18-.14h-.07l.32.28-.11.18-.32-.28h-.07v.11c.21.25.6.35.6.7l-.14.07-.46-.32h-.07l.07.18-.14.07.63.21-.25.11-.42.32-.04.04ZM57.36,186.74l-.25-.18.11-.18h0l.11.07h.11l.04.07-.14.21h.04ZM56.41,170.68l.14-.14.35.21-.25.14h-.14l-.11-.21ZM56.7,177.08v-.07h-.11l-.07-.18-.18.18h0l.07-.11h-.63l-.07-.07.11-.11h0l-.04-.07.32-.53.18-.21v.07l-.11.32v.07h.18v.07h.35v.21h.07l-.07.11v.11l.11-.04v.14l-.07.14-.04-.04ZM53.11,171.35l.07-.07.11.11h-.11l-.07-.04ZM52.69,171.45h.35l-.21.14-.14-.14ZM55.15,171.91v.07l-.14.07-.07.18-.6-.42-.11.07h.11v.11h-.07v.11h.07l.14.25.18.07h.11v.14l.11.14-.07.25-.53-.25h-.07l.42.46-.07.07-.07-.07-.42-.14-.39-.28-.46-.32-.11.11h-.11l-.18.04-.25-.18.25-.18h.25l.28-.11-.11-.14.14-.11.18-.28-.49-.49-.18.07v-.07l.11-.07-.42-.35-.28.25v-.14h-.91l-.18-.14h-.28l-.14-.21h.25v-.07l-.32-.07-.07-.18.11-.28v-.18l.49-.25.18.07-.25.35v.07l.04.11.07.11.11-.14-.07-.18.63-.32.25.39v.14l.11-.07.14.07.25-.18.42.11.35.32h.14l.18.14.42.18v.11h.11l.18.14-.21.11h.18l.07.07-.18.14h.18l.28.28.14.21h.21l.11.07.18.14-.18.11h-.11ZM52.51,172.75h.14-.14ZM52.37,171.07l.14-.14-.14.14ZM52.27,173.24l-.07-.11h.18l-.11.11ZM52.09,175.63l-.18-.07h0l.21.07h-.04ZM51.63,173.14v-.07l.14-.18h.18l-.28.25h-.04ZM51.39,172.79h-.04l-.04-.07h-.25l.07-.14.07-.07v-.11l.18-.39.07.18v-.07l.46.25v.11l.28.11-.18.07h-.14l-.21-.18-.28.25v.07ZM51.67,172.09l-.11-.11.11.11ZM50.16,168.85l.07-.11-.25-.32-.11.07-.42-.21.18-.11.49.21h.11l.11-.04.28.21h-.25l.25.14h-.04l.11.07.39.07c.32,0,.42-.18.74-.18l.46.18h-.04v.07h.07l-.49.25-.11-.11-.14.07h-.46l-.28-.11h-.07l-.18.11-.42-.28ZM50.51,169.41l-.11.11-.32.25h-.18l.07.04-.14.21h-.11v-.21l-.07-.32v-.11h.14v-.07l.14-.11.56.07v.14ZM49.49,168.92l.07-.11.18-.14.25.21-.11.21s-.39-.18-.39-.18ZM49.28,170.15l-.11.11-.14-.11-.53-.35v-.11l.28.07h.07v-.18l-.18-.07h.04l.35-.14h.25l.07.07-.18.25h.21v.11h.14c0,.39-.04.28-.25.35M49.67,171.1l-.14.11-.49-.21h.14l.18-.25.35.32-.04.04ZM52.86,169.62l-.11.11h-.39l-.18-.14-.11-.14.11-.11h.28l.39.25v.04ZM55.57,177.25l-.14.07-.11-.07.14-.21v.07l.11.11h0v.04ZM55.43,184.49l-.07.07h-.04l.07-.14h.04v.07ZM55.18,176.55l-.32-.21.42.14h-.07l-.04.07ZM55.22,177.18l-.07.07-.25-.18h0l.14.07h.18v.04ZM54.59,183.09l-.14-.07h.25-.11v.07ZM53.99,182.98h-.18l-.14.11-.07-.07h-.35v.07l-.07-.11h.25v-.14l-.11-.07h.35l.32.14h0l.18.11h-.21l.04-.04ZM53,182.73h-.35v-.07l.07-.07-.21-.14-.07-.07h-.11l-.21-.11h-.18v-.07h-.11l-.32.14h-.07l.49-.28.56.18.11.07.35.18h0l.07.04.14.14-.21.07h.04ZM52.69,183.12l-.11-.11h.25l.07.04h-.18l-.04.07ZM51.81,182.42h-.07v-.07l.04-.04h0v.11h.04ZM52.62,181.82h0l-.07-.11h0l.07.11ZM52.55,181.36h.07l-.14.04h.07v-.04ZM52.72,181.43h0ZM53.29,182.45l.11-.07v.07h-.11v.04h0v-.04ZM63.9,175.28l.07-.07.18-.07v-.07l.14-.11h.11l.21.25-.11.11v.39h-.18l-.21.14h-.11l-.14-.11.18-.32-.11-.14h-.04ZM64.46,174.12l-.11.14v-.07l.11-.07ZM64.71,175.28v-.07h.07v.07h-.07ZM64.53,174.4h0v-.07l.07-.07v-.11l.11-.07h.18l.07.07-.14.18h0l.35.04-.14.39h-.04l.14.07.18.28.25.32.07.14h0v.11h.14l.11.11-.18.25h.11v.07l-.18.11h-.25l-.32.07h-.11l-.11.07h-.18l-.04.04h0l.21-.28.21-.07h-.11l-.18-.07h-.07l.18-.21v-.18l.21-.11v-.11l-.14-.07v-.11h-.25l.07-.14v-.11h-.11v.07h-.04v-.11h0v-.11h-.07l.04-.14h0l-.14-.18h.11v.07l-.04-.14ZM67.2,167.34h0l.18.25-.18-.28v.04ZM67.42,166.95h.28l-.07.11.14.07v-.07l.07-.11.28.28-.07-.28.11-.11.25.14v.14l.07-.07.07.14h.07l.46.28h-.07.11v.11h.18l.21.25-.35.21v-.11h-.25l.07-.18-.11-.18h.07l-.14-.11-.32.46h-.07l-.18.42-.46-.42h.21l.18-.04h-.25l-.21-.11.18-.07.28-.18h-.14l-.07-.07h-.04l-.18.18-.18-.11h.04l-.18-.25h-.04l-.14-.18.21-.14-.04-.04ZM68.5,166.78h.21v-.07h.14l.25.14.14-.14h.07v.18l.18-.07h.18l.28.18-.6.32-.21-.11h-.32l-.07-.11h.11l.14-.04h-.28l-.21-.11-.07-.14h.07v-.04ZM73.18,166.5l.35.07.21-.07.18.07-.18.11h-.07.04-.25l-.11.18-.07-.07h0l-.18-.07h.11l-.11-.07.11-.07-.14-.07-.25.07h-.14l.46-.14.04.07ZM74.13,169.8v-.11l.28-.18-.07-.14.32-.39v-.18h.25l.53-.35.18-.07.18.07.88-.35.25.18-.6.35-.53.18-.14.14-.28.18c-.28.11-.7.53-.7.95l.32.42h-.49l-.14-.04-.07-.21h-.18l-.11-.14.18-.25-.04-.07ZM75.11,166.78l-.18.11-.11-.07-.07.07h-.07l.28-.18.18.07h-.04ZM74.48,166.43h.25-.11v-.11l.35-.14.11-.11v.07l-.04.07-.28.18.32.11h-.18l-.25.11-.28-.14.07-.07.04.04ZM75.36,166.53v-.07h.18-.07l.18.04v.11h-.14v.11h-.32l.11-.18h.07ZM76.1,166.25l.07.21-.32.07-.11-.11.32-.21.04.04ZM77.01,169.52l.07-.14.14.11-.25.07v-.07l.04.04ZM75.29,170.75l-.21-.18.28.14h-.07v.04ZM73.71,170.96l-.25.11-.11-.07.07-.14.07-.07.21.11v.07ZM67.24,175.07h0l-.14-.14v-.07h.11v.21h.04ZM67.31,174.86l.11-.21.14.18-.18.25h-.07v-.07h0l.07-.07-.14-.11.07.04ZM68.43,174.37l.14-.18v.07l-.14.18v-.07ZM69.14,173.95v-.07l.11.07v.07l-.04.07-.11.07-.07-.11h.14l-.04-.14v.04ZM66.01,178.59v.07h0l-.07-.07h.11-.04ZM66.96,178.31h.07l.04.32-.14.18-.07-.14v-.28l.14-.07h-.04ZM66.92,177.99l.11-.07v.32l-.11-.25h.04-.04ZM67.52,179.01h.46v.07l-.04.07v.14h-.04l-.28-.21h-.07v-.07h-.04ZM69.77,179.61h-.14l-.21-.04h.39l-.04.04ZM71.14,179.5l-.07.07v.07l-.18.07h-.04v-.07l.35-.14h-.07ZM82.07,185.55l-.14-.46-.18-.32h-.07v-.28h0v-.25l-.14-.67v-.28l-.11-.04v-.11l-.35.28-.11-.18v-.28l-.18-.35-.18-.21-.07-.25-.21-.14-.32.25-.14-.07-.18.18-.07.21-.35.25-.32.39-.14.14-.25.21v.84h-.07l-.11.25-.11.07-.07.14-.07-.07v-.07l-.21-.42-.14-.21-.07-.28-.07-.21-.18-.46-.11-.39v-.11h0v-.53h0l-.25.32-.35-.28h.14l.07-.11h-.14l-.35-.25-.14-.25h-.18l-.14.04h-.39l-.53-.07-.21-.07-.18-.25-.11.11h-.28l-.21-.18-.21-.11v-.11l-.39-.35-.11.21v.14l.35.46v.14l.18-.11v.07l-.04.21.25.14c.39,0,.42-.28.63-.46v.25l.35.28.11.14h0l.11.11-.18.35-.18.11-.07.18-.18.18-.18.18-.53.25v.07l-.42.14-.39.25h-.18l-.25.14h-.04l-.18-.07v-.07l-.11-.32v-.18l-.14-.28-.25-.46-.25-.42-.11-.32-.07-.07h-.11l-.04-.21-.07-.14-.18-.32-.11-.14v-.21l-.07.32-.32-.42v.11l.56,1.09.25.49v.35l.25.32.14.42.28.21.35.35v.21l.25.28.18-.11h.25l.63-.21v.11c.04.35-.21.84-.35,1.05l-.46.67c-.39.35-.81.42-.95,1.02l-.18.39v.49l.25.46v.11l-.04.18v.56c0,.49-.77.46-.84.88l-.18.21.18.42v.39l-.21.04-.28.32.07.14-.25.39-.25.42-.46.53-.25.11h-.35l-.6.21-.18-.14h-.07l-.11-.28.07-.18-.18-.35c-.21-.39-.49-.77-.49-1.34v-.18l-.11-.21c-.18-.32-.35-.56-.35-.98,0-.46.39-.56.39-.91l-.07-.35-.14-.53-.11-.39-.49-.74.14-.25v-.11l.07-.32-.35-.28h-.25l-.46-.39-.74.25-.21.11-.35-.11-.56.14-.18-.07-.63-.56-.28-.46-.35-.35-.07-.07h0v-.21l-.11-.21.25-.6-.11-.74.18-.32.39-.81.35-.18.25-.28.11-.49.49-.6h0l.11-.18.49.18.21-.11.91-.32.21.07.25-.11h.18l.25-.07.18.11h.07l-.07.14.07.14-.07.25.25.32h.18c.39,0,.49.53.95.53l.11-.11v-.14l.32-.28h.14l.07.14.28.07.63.18.42-.11.32.07h.18v-.14l.11-.35.14-.32v-.42l-.11.07h-.11l-.28.11-.28-.18-.21.14-.28-.11h-.07.04l-.14-.25-.21-.11.14-.18v-.07h-.11l.53-.25v-.07h.28l.25-.14.35-.07.28.11.28.14h.32l.28-.14h0c0-.49-.67-.42-.81-.81.35-.11.18-.28.18-.32l.11-.11-.6.28.11.11h.18l-.42.21-.46-.49-.28.21v.11l-.11.11v.11l-.04.18-.18.28.18.28h-.07l-.14.04-.18.11-.25-.14-.18.07v.14l-.14-.11-.07.07.11.14v.07l.18.18v.07l-.07.04h0l-.14-.11h0l.04.18v.14h-.07l-.18-.21.07-.11h-.11v-.07l-.14-.21-.18-.28v-.18l-.21-.28-.18-.14h-.07l-.28-.39h-.18l-.07-.18-.18.11h0v.14l.11.18.14.21.11.21h.25v.07l.14.14.25.25-.18-.11-.14.11.11.18h-.07l-.11.21h-.07l.11-.21-.07-.18-.18-.21-.11-.07-.32-.21-.14-.11-.35-.42-.18.11-.32.18-.32-.07-.18.18v.14l-.25.21-.28.42.07.07-.25.28-.21.18h-.18l-.35.14-.21-.25h-.28v-.25l-.11-.11.07-.14.07-.49-.07-.25.25-.18h.42l.28.04h.32l.07-.28v-.18h0v-.21l-.14-.21h-.07l-.35-.21h0l.21-.14.14.07h.14v-.25h.07l.18.07.11-.11.25-.28h.07l.28-.18v-.21l.11-.07.28-.21h.14l.14-.04.14-.11v-.18l-.14-.39.39-.42v.25l.07.07h0l-.07.11-.14.25.07.11v.07h.14l.04.11.39-.14v.07l.07.11.11-.07.25-.07.21-.14h.21v.11h.21l.21-.46.25-.46.25.18-.07-.42.32-.21h.28l.32-.11-.14-.21-.42.14-.35.11-.14-.07-.25-.21.07-.14-.11-.25v-.14l.53-.46.21-.21-.35-.21-.35.25v.14l-.39.35-.25.21-.07.25v.25l.32.25-.25.25-.18.32.07.11-.18.32h-.18l-.28.21-.14-.32v-.07l-.11-.35-.11-.25v-.11l-.07-.14-.56.46-.25-.18.11-.11v-.11h-.14l.11-.14-.11-.46.14-.14.25-.21.35-.18h-.14l.53-.49.11-.25.07-.14.28-.28.32-.42-.35.11.11-.11h-.07l.07-.11h.04l.07-.07v.11l.21.07.11-.18h-.11l.14-.11h.11l-.04-.07.25-.07v.07l.21-.18v.11l.28-.18-.07-.07.14-.11.11.11.32-.07-.14.21.25-.21v.11l.25-.18.07.14.07-.11.21.11-.25.14.11.11h.35l1.09.46c.98.35.35.81,0,.7l-.63-.07c.11.18.07.6.39.63v-.25c.67.32.6-.32.74-.35l.46-.14-.07-.21c.25-.88.39-.28.28,0l.14.14c.21,0,1.09-.88,1.23-.49l.81-.14s.28.39.32-.11c0-.04-.25-.35.53-.11.28.07,1.05.7.74.14l-.28-.63.74-.63c.49.11.18.21.18.42l.32,1.16v-.63l-.18-.6.32-.39s.04.7.39.21c.42,0,.46.11.6,0l-.07-.25.7-.28c-3.51-4.71-9.1-7.77-15.39-7.77-4.46,0-8.58,1.51-11.84,4.08h.95l.18-.11h.18l.18.04.74.11-.11.07.46-.14h.11l.11.18.39.18-.14.11-.84.25h.42l-.67.35-.53.49h-.32l-.35.18h.18l-.18.11.18.14-.25.28h-.28v.11l-.21.32h.25l-.46.28-.18-.11h-.42l-.18.07-.56-.14-.07.07h-.07l.42-.32-.18-.21.14-.07.35.18h.11l-.25-.32h-.14l-.11.04v-.07l.18-.21.32-.18-.39-.32h.14l-.07-.14h.39l.35.25-.21-.21v-.07h.35l.28-.18h-.07l-.42.14h-.32l-.25-.14h-.07l-.14.07h-.11l-.18.14v.07h.11v-.07h0l.07-.04.07.11.07.11v.11h.07l.28.07v.11h-.14l-.28.21-.11-.14-.07.11.07.14h-.11v.07l-.21-.11-.14.14-.25-.11h.07l-.18-.11-.35.39h.28v.07l-.11.07h-.25l-.39.39v.07l-.04.42h-.25l-.14.04c-.28.35-.53.7-.77,1.05l.11.32.6.46h-.25l-.07.11h.07l.07.14-.32.11-.49-.21-.14.11-.28.07-.18.28h.14l.25.25v-.21l.25-.25-.32.11-.07-.07.46-.18.74.39h.49l.14-.21.25.07.11.25c0-.32.39-.18.32-.46l-.14.07v-.21l-.35-.32.07-.14v-.18l.11-.11.07-.14.35.35.18.21-.14.14.28.11-.07.07.14.25.25-.28.21.25-.11.18.32.18.11-.32.18-.14-.11-.18.14-.14h.14l.39.21v.18l-.11.25.14.18-.35.32h-.07l-.18.07-.25-.14v.14l-.21.21-.25-.14h-.11l.49.21v.11l-.32.25h-.14l-.11.14c-.46-.18-.28,0-.35-.04l.32.18-.28.14-.18.32-.21.56v.28l.14-.07.21.53.21-.11.25.14.7.39h.39l.14.49.35.53.18-.07.11-.14-.21-.56.46-.42c0-.42-.21-.53-.35-.77l.21-.28-.11-.28v-.28l.14-.18.42.11.18-.07.35.25.35.28.14.46.18.14.32-.35.14-.18.11.07.21.35.18.28v.18l-.04.11.28.14h0l.42.28v.07l-.42.25h.07l.56-.18v.18l.14.32-.56.35-.63.14h-.56l-.14.21-.32.25.53-.21.32.11-.25.21h.14l-.07.18.42.35.18.07-.42.25-.28.21-.11-.18.35-.25-.07-.11-.14.14h-.32v.07l-.18.11h-.14l-.28.42v.07l.07.11h.07-.18l-.42.18h.21-.28l.07.11-.18.28h-.04v.14l-.07.25h0v-.11l-.07-.21v.39h.04v.07l-.07.07.07.07-.11.07h0l.07.11-.07.07-.14.07-.11.07h0c-.28.18-.63.32-.63.77l.18.49h0l.07.28-.14.25-.11-.18-.18-.25-.28-.6-.14.07-.32-.14h-.49l.07.04v.21l-.42-.14h-.25l-.32.25h-.18l-.21.46v.07h0v.11l-.07.25v.49l.07.14.14.18.25.28.11.07.32-.11h.11l.07-.07.11-.25.35-.25h.25v.07l-.11.32-.07.21h0l-.04-.04v.32l-.11.14h0l.07.11h.56l.28.11v.39l-.04.39.21.25.18.14.35-.14.32.21h-.04.11v-.07l.11-.11.07-.14.14-.14.39-.14.18-.11.07.07-.07.07-.07.28.11.21.07-.11-.07-.21.14-.11h.14l-.11-.11h.11l.25.18.07.11h.32l.11.07.18-.11h.32-.11v.07l.25.14.07.21h.18l.25.28h.07l.46.25h.14l.18.07h.04l.32.25.11.35.11.14-.25.39.07.07.11.14h.14v.07l.11-.07.21-.25.39.18.11.07v.18h.04l.14-.07.25.11h.21l.28.07.32.32h.21l.14.32c0,.49-.25.6-.39.88l-.11.14-.18.18v.46l-.04.32v.07l-.11.14v.21l-.25.35v.14l-.28.18h-.28l-.07.11-.39.25-.18.14-.07.28v.32l-.25.32h0l-.07.21-.32.35-.42.53-.25-.07-.25-.07h-.04l.11.14.07.21.11.14v.18l-.18.21-.35.14h-.35l-.07.39v.07l-.14.07-.25-.11-.07.07.14.25h.14l-.07.07-.14-.07.07.11-.14.39-.14.07-.18.21.25.35-.21.28-.07.21-.18.11-.11.28.07.14.07.14c2.85,1.69,6.19,2.64,9.74,2.64,8.47,0,15.64-5.48,18.21-13.07l-.14-.25-.11-.18v-.07l-.11-.04-.07-.21-.21-.21-.07-.21-.14-.07-.18-.25h0l.04-.04.11.07h.18l.21.25h.07l.18.21.35.28h.07v-.07l-.39-.46.14.28Z"/>
  <path class="cls-3" d="M62.71,230.5h-.04l-.53.18c-.63.49-.53,1.9-.04,2.78l.46.53.49-2.32c0-.35-.11-1.05-.35-1.2"/>
  <path class="cls-3" d="M67.59,232.08h0s-.42.21-.67.88c-.11.28-.25.7-.42,1.2.6,0,1.12-.18,1.27-.67.25-.74.07-1.34-.14-1.41"/>
  <path class="cls-3" d="M65.45,231.38h-.35c-.28.11-.46.46-.6,1.02-.07.35,0,.67.18.91.6-.7.91-1.55.98-1.83l-.25-.11h.04Z"/>
  <path class="cls-3" d="M67.98,233.56c-.21.63-.91.88-1.62.84-.88,2.46-2.32,6.36-2.35,6.43l-.25-.11s1.44-3.9,2.32-6.36h-.25c-.42-.18-.84-.35-1.16-.67-.28.28-.63.53-1.05.7h-.91l-1.16,5.34-.28-.07,1.2-5.41-.63-.67c-.56-.98-.67-2.53.11-3.13.32-.25.6-.32.84-.21.53.25.49,1.34.49,1.44l-.53,2.46h.74c.39-.14.7-.39.95-.63-.25-.32-.35-.7-.28-1.16.14-.7.39-1.09.77-1.23.46-.18.91.21.91.21l.07.07v.07s-.32,1.16-1.12,2.04c.28.25.63.46,1.02.53h.28c.18-.46.35-.91.46-1.23.39-1.09.84-1.09,1.02-1.02.42.14.56.91.32,1.76M71.77,232.43v-.35l-.07-.39-.07-.35-.07-.39-.07-.35-.11-.35-.11-.32-.14-.35-.14-.32-.14-.32-.18-.32-.18-.28-.18-.28-.21-.25-.21-.28-.21-.21-.25-.25-.25-.21-.28-.21-.25-.18-.32-.21-.25-.14-.35-.18h0l-.6-.21c-1.12-.35-2.28-.32-3.37,0h0l-.81.28-.18.07-.63.32-.18.11-.74.53-.07.07-.6.53-.18.18-.49.6-.11.14-.53.81-.11.21-.35.7-.11.25c-.14.32-.25.63-.35.95-.81,2.64.98,5.69,2.5,7.66l-.35-.11-.7.39-.07.28.28.67-.25.32-.07.28.39.7h.14l-.25.35-.07.28.39.7,2.85.88.7-.39.07-.28v-.39l.11.04.7-.39.07-.28v-.42l.6-.39.07-.28-.35-.7c1.27-.46,2.78-1.12,4.04-2.04h.04l.14-.11.42-.35.28-.25.39-.42.21-.25.32-.49.14-.25.35-.81h0l.21-.77v-.25l.14-.53v-.32l.07-.46v-.74l-.11.04Z"/>
  <path class="cls-3" d="M26.61,169.13h-.04l-.21-.32c.63-3.73-.46-6.89-3.2-9.38-2.07-1.86-4.36-2.64-4.39-2.64h-.07c-3.02-1.79-4.64-4.71-4.67-8.51,0-2.81.84-5.1.91-5.2l.35-.14.14.35s-.88,2.28-.84,4.99c0,3.62,1.48,6.29,4.36,7.98.28.11,2.5.88,4.53,2.71,2,1.79,4.22,4.96,3.37,9.88l-.28.21.04.07Z"/>
  <path class="cls-3" d="M21.13,155.67,18.74,170.29l-.25-.14c-2.67-4.18-1.86-7.98-.7-10.4,1.2-2.5,2.92-4.08,3.13-4.29,4.78-6.4-1.76-13.25-1.83-13.32v-.39h.39c.07.07,1.76,1.83,2.85,4.43,1.44,3.48,1.12,6.82-.98,9.63h-.04s-1.83,1.65-3.02,4.18c-1.58,3.37-1.34,6.68.7,9.88l-.07.39h-.14l-.04.04Z"/>
  <path class="cls-3" d="M58.8,134.69c0,2.32-1.86,4.18-4.18,4.18s-4.18-1.86-4.18-4.18,1.86-4.18,4.18-4.18,4.18,1.86,4.18,4.18"/>
  <path class="cls-3" d="M65.8,124.5c0,1.55-1.27,2.78-2.78,2.78s-2.78-1.27-2.78-2.78,1.23-2.78,2.78-2.78,2.78,1.27,2.78,2.78"/>
  <path class="cls-3" d="M77.19,128.33c0,1.97-1.48,3.55-3.3,3.55s-3.3-1.58-3.3-3.55,1.48-3.55,3.3-3.55,3.3,1.58,3.3,3.55"/>
  <path class="cls-3" d="M20.04,217.81l-.6-.14c-.42-.21-.67-.67-.67-1.16l.21-7.66-6.43-1.72c-.46-.11-.81-.49-.91-.95-.11-.46.07-.95.42-1.23l7.66-6.19c.28-.21.63-.32.98-.28.35.07.67.28.84.56l1.72,2.71c.39.6.21,1.37-.39,1.72-.6.39-1.37.21-1.72-.39l-.98-1.55-4.64,3.73,5.03,1.34c.56.14.95.67.95,1.27l-.18,6.15,5.06-3.51-1.23-1.69c-.42-.56-.28-1.34.28-1.76s1.34-.28,1.76.28l1.97,2.71c.21.28.28.63.21.95-.07.35-.25.63-.53.81l-8.15,5.69-.7.21.04.11Z"/>
  <rect class="cls-2" x="100.17" y="112.65" width="4.15" height="138.8"/>
  <rect class="cls-4" x="104.32" y="112.65" width="4.15" height="138.8"/>
  <rect class="cls-1" x="108.5" y="112.65" width="4.15" height="138.8"/>
  <path class="cls-3" d="M63.62,113.35c-6.78,0-13.5,7.31-18.45,20.07-.74,1.93-1.48,3.97-2.11,6.12l.42.14c.53-1.65,1.09-3.27,1.72-4.82,4.96-12.76,11.7-20.07,18.45-20.07s13.5,7.31,18.45,20.07c.74,1.93,1.48,3.97,2.11,6.12.14-.04.28-.11.39-.14-.77-2.6-1.62-5.06-2.5-7.42-4.96-12.76-11.7-20.07-18.45-20.07M42.21,142.35c-1.93,6.99-3.37,14.76-4.18,23.02.07-.04.11-.07.18-.11.91-8.19,2.39-15.89,4.39-22.78-.14-.04-.25-.07-.39-.14M85.02,142.39l-.39.14c1.86,6.43,3.3,13.57,4.22,21.19.07.04.11.11.18.14-.84-7.66-2.21-14.9-4.01-21.44M89.28,167.41c.53,5.38.81,10.97.84,16.62v-.7c0-5.38-.25-10.68-.67-15.82-.04-.04-.11-.07-.14-.11M37.96,167.41s-.11.07-.14.11c-.46,5.13-.7,10.44-.7,15.82v.7c0-5.69.32-11.25.84-16.62M92.48,184.04c0,3.44-.14,6.89-.32,10.23,0,0,.07-.04.07-.07.14-3.09.25-6.26.25-9.45v-.7M34.76,184.04v.7c0,2.67.07,5.34.18,7.98,0,0,.04,0,.07.04-.14-2.88-.25-5.8-.25-8.75M35.11,196.34c.6,9.35,1.9,18.24,3.83,26.22.11,0,.21-.07.32-.11-2-7.91-3.37-16.73-4.04-26.04-.04,0-.07-.04-.11-.07M92.12,196.34s-.07.04-.11.07c-.63,8.79-1.9,17.15-3.73,24.71.11,0,.21.07.32.11,1.76-7.63,2.95-16.06,3.51-24.88M87.59,223.96c-.95,3.59-2.04,6.96-3.27,10.09-5.41,13.92-12.76,21.62-20.67,21.62s-15.25-7.66-20.67-21.62c-1.23-3.13-2.32-6.5-3.27-10.09-.11,0-.25.07-.35.11,1.05,4.08,2.25,7.87,3.62,11.39,5.41,13.92,12.76,21.62,20.67,21.62s15.25-7.66,20.67-21.62c1.37-3.51,2.57-7.35,3.62-11.42-.11,0-.25-.07-.35-.11"/>
  <path class="cls-3" d="M63.62,113.35c-6.75,0-13.5,7.31-18.45,20.07-5.17,13.32-8.01,31.03-8.01,49.87s2.85,36.59,8.01,49.87c4.96,12.76,11.7,20.07,18.45,20.07s13.5-7.31,18.45-20.07c5.17-13.32,8.01-31.03,8.01-49.87s-2.85-36.59-8.01-49.87c-4.96-12.76-11.7-20.07-18.45-20.07M63.62,255.67c-7.91,0-15.25-7.66-20.67-21.62-5.27-13.57-8.19-31.6-8.19-50.75s2.92-37.19,8.19-50.75c5.41-13.92,12.76-21.62,20.67-21.62s15.25,7.66,20.67,21.62c5.27,13.57,8.19,31.6,8.19,50.75s-2.92,37.19-8.19,50.75c-5.41,13.92-12.76,21.62-20.67,21.62"/>
  <path class="cls-3" d="M18.7,136.41c-7.52,0-12.83,2.04-15.36,5.87-1.27,1.9-1.83,4.22-1.69,6.89.11-2.07.67-3.9,1.69-5.45,2.53-3.83,7.84-5.87,15.36-5.87,6.08,0,13.36,1.34,21.23,3.76.14-.46.25-.88.39-1.3-8.05-2.53-15.43-3.9-21.62-3.9M.04,149.13c-.07,1.51.07,3.13.46,4.82,1.55,7.17,6.78,15.78,15.22,24.92.95,1.02,1.9,2.04,2.88,3.02.25-.25.49-.49.7-.7-1.27-1.23-2.46-2.5-3.62-3.76-8.37-9.1-13.64-17.71-15.18-24.88-.25-1.2-.39-2.32-.46-3.41M20.46,182.35c-.25.25-.49.49-.7.74,4.57,4.53,9.74,8.96,15.36,13.25,0-.49-.07-.98-.07-1.51-5.31-4.04-10.19-8.22-14.55-12.48"/>
  <path class="cls-3" d="M35.01,194.83c0,.49.07.98.07,1.51.04,0,.07.04.11.07,0-.49-.07-1.02-.11-1.51,0,0-.07-.04-.07-.07"/>
  <path class="cls-3" d="M42.99,141.19c-.14.42-.28.84-.39,1.3,6.19,2.07,12.69,4.82,19.3,8.08.46-.25.95-.49,1.41-.7-6.92-3.55-13.78-6.47-20.28-8.68M65.03,150.75c-.46.25-.91.46-1.41.7,4.89,2.5,9.77,5.31,14.62,8.37,3.83,2.43,7.52,4.99,11.04,7.56-.07-.53-.11-1.02-.18-1.55-3.48-2.57-7.1-5.06-10.9-7.45-4.36-2.78-8.79-5.34-13.22-7.66"/>
  <path class="cls-3" d="M42.6,141.05c-.14.42-.25.88-.39,1.3.14.04.25.07.39.14.14-.42.25-.88.39-1.3-.14-.04-.25-.07-.39-.14M89.1,165.86c.07.53.11,1.02.18,1.55.04,0,.11.07.14.11-.04-.53-.11-1.02-.14-1.55-.07-.04-.11-.07-.18-.11"/>
  <path class="cls-3" d="M91.84,167.9c.04.53.07,1.02.14,1.51,2.88,2.21,5.62,4.46,8.19,6.75v-1.44c-2.64-2.32-5.41-4.6-8.33-6.85M112.65,187.2v1.44c6.71,7.77,11.18,15.25,12.51,21.58.25,1.05.35,2.07.42,3.06.07-1.37-.07-2.88-.42-4.5-1.34-6.33-5.8-13.81-12.51-21.58M127.2,213.28c-.11,2.39-.77,4.5-1.97,6.33-2.28,3.44-6.64,5.59-12.34,6.29,0,.35-.11.67-.21.98v.49c5.94-.67,10.23-2.81,12.58-6.36,1.44-2.18,2.07-4.78,1.97-7.77"/>
  <path class="cls-2" d="M100.17,174.76v1.44c1.44,1.27,2.81,2.53,4.15,3.8v-1.44c-1.34-1.27-2.74-2.53-4.15-3.8"/>
  <path class="cls-4" d="M104.32,178.55v1.44c.7.67,1.37,1.3,2,1.97l.7-.7c-.88-.88-1.79-1.79-2.74-2.67M108.19,182.38l-.7.7c.35.35.67.67.98,1.02v-1.44s-.18-.21-.28-.28"/>
  <path class="cls-1" d="M108.5,182.66v1.44c1.48,1.51,2.85,3.02,4.15,4.53v-1.44c-1.3-1.51-2.71-3.02-4.15-4.53M112.65,226.88c-.07.18-.18.35-.28.53h.28v-.53Z"/>
  <path class="cls-3" d="M37.65,196.79c.04.49.07,1.02.11,1.51,3.34,2.43,6.82,4.82,10.4,7.1,4.53,2.88,9.14,5.52,13.71,7.91.46-.25.95-.46,1.41-.7-5.06-2.57-10.12-5.45-15.11-8.65-3.66-2.32-7.17-4.71-10.51-7.17M65.03,213.45c-.46.25-.95.49-1.41.74,7.42,3.76,14.76,6.82,21.69,9.07.11-.42.25-.88.35-1.34-6.57-2.11-13.57-4.99-20.6-8.47M88.26,222.77c-.11.46-.21.88-.35,1.34,4.29,1.3,8.4,2.25,12.27,2.81v-1.41h0c-3.73-.56-7.73-1.48-11.91-2.71"/>
  <path class="cls-2" d="M100.17,225.51v1.41c.25.04.49.07.74.11l-.14-.25c-.28-.35-.49-.77-.6-1.27"/>
  <path class="cls-3" d="M87.91,222.66c-.11.46-.25.88-.35,1.34.11.04.25.07.35.11.11-.46.21-.88.35-1.34-.11,0-.21-.07-.35-.11"/>
  <path class="cls-3" d="M40.32,140.31c-.14.42-.25.88-.39,1.3.74.25,1.51.49,2.28.74.14-.42.25-.88.39-1.3-.77-.25-1.51-.49-2.28-.74M89.28,165.97c.04.49.11,1.02.14,1.55.88.63,1.72,1.27,2.57,1.93-.04-.53-.07-1.02-.11-1.51-.84-.67-1.72-1.3-2.57-1.93M35.11,194.9c0,.49.07,1.02.11,1.51.84.63,1.69,1.27,2.53,1.9-.04-.49-.07-1.02-.11-1.51-.84-.63-1.69-1.23-2.53-1.86M85.66,221.96c-.11.46-.25.88-.35,1.34.77.25,1.51.49,2.28.7.11-.42.25-.88.35-1.34-.74-.21-1.51-.46-2.28-.7"/>
  <path class="cls-3" d="M112.65,225.93c5.83-.7,10.26-2.85,12.58-6.33,1.97-2.95,2.46-6.71,1.51-11.14-1.55-7.17-6.78-15.78-15.18-24.92-8.54-9.28-19.75-18.45-32.44-26.5-21.62-13.71-44.74-22.21-60.38-22.21-8.08,0-13.85,2.28-16.69,6.57-2,2.95-2.5,6.71-1.55,11.14,1.55,7.17,6.78,15.78,15.22,24.92,8.54,9.28,19.75,18.45,32.44,26.5,18.03,11.42,37.08,19.23,52.02,21.51v-1.62c-14.62-2.28-33.42-10.02-51.17-21.26-25.02-15.85-43.9-36.13-46.92-50.37-.84-4.01-.42-7.35,1.3-9.95,2.53-3.83,7.84-5.87,15.36-5.87,15.36,0,38.17,8.44,59.54,22,25.02,15.89,43.9,36.13,46.96,50.4.84,4.01.42,7.35-1.27,9.95-2.04,3.09-5.87,4.99-11.18,5.62l-.07,1.58-.07-.04Z"/>
  <path class="cls-3" d="M112.65,136.48v.53c.04.18,0,.35,0,.53v.53c5.34.63,9.21,2.53,11.25,5.62,1.72,2.6,2.14,5.94,1.27,9.95-1.34,6.33-5.8,13.81-12.51,21.58v2.43c7.77-8.68,12.62-16.84,14.09-23.69.95-4.43.46-8.19-1.51-11.14-2.32-3.51-6.64-5.69-12.55-6.36"/>
  <path class="cls-4" d="M108.5,179.78s-.18.21-.28.28c.11.11.18.21.28.28v-.6.04Z"/>
  <path class="cls-1" d="M112.65,137.57c-.04.18-.11.35-.18.53h.18v-.53ZM112.65,175.21c-1.3,1.51-2.71,3.02-4.15,4.53v.6c.28.28.56.56.84.88.74-.77,1.48-1.55,2.18-2.32.39-.42.74-.81,1.12-1.23v-2.46Z"/>
  <path class="cls-3" d="M100.14,136.97c-4.15.63-8.61,1.69-13.29,3.13.14.49.28,1.02.42,1.55,4.53-1.41,8.86-2.43,12.86-3.06v-1.55l-.04-.07h.04ZM84.18,140.98c-6.15,2.07-12.62,4.74-19.16,8.01.6.28,1.16.6,1.76.91,6.12-2.99,12.13-5.48,17.89-7.38-.14-.53-.32-1.02-.46-1.51"/>
  <path class="cls-2" d="M100.17,137.36v1.23s.21,0,.28-.04l-.07-.11c-.18-.32-.25-.67-.25-1.05h0l.04-.04Z"/>
  <path class="cls-3" d="M84.57,140.84s-.25.11-.39.14c.18.49.32,1.02.46,1.51.11-.04.25-.07.39-.14-.14-.53-.28-1.02-.42-1.51"/>
  <path class="cls-3" d="M86.85,140.1c-.74.25-1.51.49-2.28.74.14.49.28,1.02.42,1.55.77-.25,1.51-.49,2.28-.74-.14-.53-.28-1.02-.42-1.51"/>
  <path class="cls-3" d="M61.86,150.58c-4.57,2.39-9.17,5.03-13.71,7.91-3.44,2.18-6.75,4.43-9.98,6.78-.07.7-.14,1.44-.21,2.14,3.51-2.6,7.21-5.13,11.04-7.56,4.85-3.06,9.74-5.87,14.62-8.37-.6-.32-1.16-.6-1.76-.88M35.43,167.31c-5.45,4.11-10.51,8.44-14.97,12.79.39.39.77.77,1.16,1.12,4.08-3.97,8.65-7.94,13.64-11.77.04-.74.11-1.44.18-2.14"/>
  <path class="cls-3" d="M38.17,165.27s-.11.07-.18.11c-.07.7-.14,1.41-.21,2.14.04,0,.11-.07.14-.11.07-.74.14-1.44.21-2.14"/>
  <path class="cls-3" d="M38.03,165.37c-.88.63-1.72,1.27-2.57,1.9-.07.7-.14,1.44-.18,2.14.84-.63,1.69-1.3,2.57-1.93.07-.7.14-1.44.21-2.14"/>
  <path class="cls-3" d="M63.27,149.84c-.46.25-.95.49-1.41.74.6.28,1.16.6,1.76.88.46-.25.91-.49,1.41-.7-.6-.32-1.16-.6-1.76-.91"/>
  <path class="cls-3" d="M100.17,187.69c-2.5,2.21-5.13,4.39-7.91,6.54-.04.7-.07,1.41-.14,2.11,2.81-2.14,5.48-4.29,8.05-6.5,0,0,0-2.14,0-2.14ZM89.66,196.2c-3.62,2.71-7.45,5.34-11.42,7.87-4.36,2.78-8.79,5.34-13.22,7.63.6.28,1.16.6,1.76.88,4.11-2.18,8.22-4.6,12.3-7.17,3.59-2.28,7.06-4.64,10.4-7.1.07-.7.11-1.41.18-2.11"/>
  <path class="cls-2" d="M104.32,183.89c-1.34,1.27-2.71,2.53-4.15,3.8v2.14c1.44-1.23,2.81-2.46,4.15-3.73v-2.21Z"/>
  <path class="cls-4" d="M106.36,181.93c-.67.67-1.34,1.3-2,1.97v2.21c1.09-.98,2.14-2,3.16-3.02l-1.16-1.16"/>
  <path class="cls-3" d="M92.26,194.23l-.07.07c-.04.7-.11,1.41-.14,2.14,0,0,.07-.04.11-.07.04-.7.07-1.41.11-2.11"/>
  <path class="cls-3" d="M92.16,194.26c-.81.63-1.65,1.27-2.53,1.9-.04.7-.11,1.41-.18,2.11l2.53-1.9c.07-.7.11-1.41.14-2.14"/>
  <path class="cls-4" d="M107.06,181.22l-.7.7,1.16,1.16c.25-.25.49-.46.7-.7-.39-.39-.74-.77-1.12-1.16"/>
  <path class="cls-3" d="M18.6,181.93c-.98,1.02-1.97,2.04-2.92,3.06-8.4,9.14-13.67,17.75-15.22,24.92-.95,4.43-.42,8.19,1.51,11.14,2.85,4.29,8.61,6.57,16.69,6.57h0c5.94,0,13-1.23,20.63-3.51-.14-.49-.25-1.02-.39-1.55-7.49,2.25-14.41,3.48-20.24,3.48h0c-7.52,0-12.83-2.04-15.36-5.87-1.72-2.6-2.14-5.94-1.27-9.95,1.69-7.8,8.08-17.43,17.68-27.13-.39-.39-.77-.77-1.16-1.16M61.86,213.28c-6.96,3.48-13.85,6.33-20.35,8.44.14.53.28,1.02.39,1.55,6.92-2.25,14.27-5.31,21.69-9.07-.6-.28-1.16-.6-1.76-.91"/>
  <path class="cls-3" d="M39.26,222.45s-.21.07-.32.11c.14.53.25,1.02.39,1.55.11,0,.25-.07.35-.11-.14-.49-.28-1.02-.39-1.55"/>
  <path class="cls-3" d="M41.55,221.75c-.77.25-1.51.49-2.28.7.14.53.28,1.02.39,1.55.74-.21,1.51-.46,2.28-.7-.14-.49-.28-1.02-.39-1.55"/>
  <path class="cls-3" d="M19.3,181.22c-.25.25-.49.49-.7.7.39.39.74.77,1.12,1.16.25-.25.49-.49.74-.74-.39-.39-.77-.77-1.16-1.12M63.27,212.57c-.46.25-.95.46-1.41.7.6.32,1.16.6,1.76.91.46-.25.95-.49,1.41-.74-.6-.28-1.16-.6-1.76-.88"/>
  <path class="cls-3" d="M65.03,148.96c-.6.28-1.16.6-1.76.88.6.28,1.16.6,1.76.91.6-.28,1.16-.6,1.76-.88-.56-.32-1.16-.63-1.76-.91M108.19,180.06c-.39.39-.74.77-1.12,1.16.39.39.77.77,1.12,1.16.39-.39.77-.77,1.12-1.16l-.84-.84-.28-.28M20.46,180.1c-.39.39-.77.77-1.16,1.12.39.39.77.77,1.16,1.12.39-.39.77-.77,1.16-1.12-.39-.39-.77-.77-1.16-1.12M65.03,211.7c-.6.32-1.16.6-1.76.91.6.28,1.16.6,1.76.88.6-.32,1.16-.6,1.76-.91-.6-.28-1.16-.56-1.76-.88"/>
  <path class="cls-3" d="M100.17,135.5c-14.87,2.32-34.09,10.19-52.02,21.58-12.69,8.05-23.9,17.22-32.44,26.5-8.4,9.14-13.67,17.75-15.22,24.92-.95,4.43-.42,8.19,1.51,11.14,2.85,4.29,8.61,6.57,16.69,6.57h0c15.64,0,38.77-8.51,60.38-22.25,12.69-8.05,23.9-17.22,32.44-26.5,8.4-9.14,13.67-17.75,15.22-24.92.95-4.43.42-8.19-1.51-11.14-2.35-3.55-6.68-5.69-12.62-6.36l.07.63v.98c5.34.63,9.17,2.53,11.21,5.62,1.72,2.6,2.14,5.94,1.3,9.95-3.06,14.27-21.93,34.51-46.96,50.4-21.37,13.57-44.18,21.97-59.54,21.97h0c-7.52,0-12.83-2.04-15.36-5.87-1.72-2.6-2.14-5.94-1.3-9.95,3.06-14.27,21.93-34.51,46.96-50.4,17.75-11.28,36.52-18.98,51.14-21.26v-.11"/>
  <path class="cls-3" d="M160.98,119.19h-.95c-3.83,0-5.24,2.43-5.24,5.9v32.97c0,5.31,1.58,6.08,6.26,6.08h.88c12.16,0,17.64-10.79,17.64-21.58,0-12.2-5.48-23.48-18.63-23.41M162.87,169.91h-27.41v-5.73h.95c4.08,0,5.48-1.12,5.48-6.01v-32.72c0-2.95-1.48-5.66-4.01-6.71l-3.55-1.48v-3.3h25.31c18.17,0,34.02,6.43,34.02,28.89,0,17.93-15.46,27.06-30.79,27.06"/>
  <path class="cls-3" d="M210.99,125.73c-3.83,0-6.61-3.13-6.61-6.26s2.78-6.36,6.54-6.36,6.61,3.13,6.61,6.36-2.78,6.26-6.54,6.26M215.07,170.78c-6.08,0-8.61-4.01-8.61-10.68v-15.32c0-2.95-.53-4.96-3.13-5.83l-4.43-1.48v-2.88h18.63v24.18c0,2.78.6,5.48,3.06,5.48,3.59,0,4.96-4.71,5.83-7.66l1.05.18c-.6,7.91-4.89,13.99-12.34,13.99"/>
  <path class="cls-3" d="M253.87,139.89c-6.19,0-8.01,6.19-8.01,9.91v3.3c0,4.36,2.53,12.97,9.67,12.97,6.26,0,7.21-6.78,7.21-11.49,0-5.06-1.3-14.69-8.86-14.69M257,170.78c-4.08,0-8.26-1.23-10.79-4.25v8.08c0,5.13,2,6.01,5.48,6.01h1.12v4.08h-24.11v-4.01h.95c4.08,0,5.48-1.12,5.48-6.01v-29.91c0-2.95-.53-4.96-3.13-5.83l-4.43-1.48v-2.88h16.87l.95,3.3c0,.28.42.53.77.53s.7-.25.88-.42c2.43-2.78,5.73-4.25,10.44-4.25,10.79,0,16.69,8.37,16.69,19.47,0,10.09-7.56,17.57-17.22,17.57"/>
  <path class="cls-3" d="M291.72,170.78c-6.08,0-8.61-4.01-8.61-10.68v-35.96c0-2.95-.53-4.96-3.13-5.83l-4.43-1.48v-2.88h18.63v44.78c0,2.78.6,5.48,3.06,5.48,3.58,0,4.96-4.71,5.83-7.66l1.05.18c-.6,7.91-4.89,13.99-12.37,13.99"/>
  <path class="cls-3" d="M325.99,138.77c-6.36,0-8.01,6.01-8.01,11.21,0,5.83,2,15.75,9.38,15.75,6.43,0,8.08-6.08,8.08-11.39,0-5.73-2.07-15.57-9.49-15.57M326.66,170.78c-10.19,0-19.58-6.78-19.58-18.45s9.31-18.63,19.58-18.63,19.65,6.78,19.65,18.52-9.38,18.52-19.65,18.52"/>
  <path class="cls-3" d="M414,170.78c-5.9,0-8.86-4.08-8.86-10.79,0-4.08.53-8.37.53-12.51,0-3.23-1.23-5.41-5.38-5.41-7.38,0-8.19,8.54-8.19,13.22v14.62h-10.51v-22.42c0-3.23-1.23-5.41-5.41-5.41-7.38,0-8.19,8.54-8.19,13.22v14.62h-11.14v-25.13c0-2.95-.53-4.96-3.13-5.83l-4.43-1.48v-2.88h17.75l.88,6.61c4.18-5.66,8.01-7.49,14.16-7.49,4.89,0,8.61,2.88,9.74,7.73,3.73-5.73,7.84-7.73,14.34-7.73,5.66,0,10.26,3.73,10.26,9.91,0,4.71-.6,10.33-.6,15.15,0,2.78.42,5.48,2.95,5.48,3.58,0,4.96-4.71,5.83-7.66l1.05.18c-.6,7.91-4.08,13.99-11.67,13.99"/>
  <path class="cls-3" d="M456.88,151.21c0-5.48-2.95-12.69-9.38-12.69s-7.31,7.13-7.31,12.02c0,5.55,1.58,14.16,8.72,14.16,5.31,0,8.01-5.06,8.01-9.74v-3.73l-.04-.04ZM465.32,170.78c-3.13,0-5.73-1.83-7.06-4.01-.25-.53-.77-.77-1.3-.77s-1.05.25-1.41.6c-2.71,2.88-5.73,4.18-10.26,4.18-10.97,0-16.62-8.44-16.62-19.23,0-10.02,7.31-17.82,17.22-17.82,4.08,0,8.37,1.23,10.86,4.36l.7-3.48h10.16v24.18c0,2.78.42,5.48,2.88,5.48,3.59,0,5.13-4.71,6.01-7.66l.95.18c-.6,7.91-4.25,13.99-12.16,13.99"/>
  <path class="cls-3" d="M480.99,169.91v-6.71l21.65-24.11h-11.32c-3.66,0-5.13,2.88-5.31,6.08l-.18,2.53h-4.78v-13.15h33.5v7.73l-21.76,23.06h12.51c3.66,0,5.03-2.88,5.31-6.08l.18-2.53h4.78v13.15h-34.62l.04.04Z"/>
  <path class="cls-3" d="M531.78,125.73c-3.83,0-6.61-3.13-6.61-6.26s2.78-6.36,6.54-6.36,6.61,3.13,6.61,6.36-2.78,6.26-6.54,6.26M535.86,170.78c-6.08,0-8.61-4.01-8.61-10.68v-15.32c0-2.95-.53-4.96-3.13-5.83l-4.43-1.48v-2.88h18.63v24.18c0,2.78.6,5.48,3.06,5.48,3.59,0,4.96-4.71,5.83-7.66l1.05.18c-.6,7.91-4.89,13.99-12.34,13.99"/>
  <path class="cls-3" d="M579.44,151.21c0-5.48-2.95-12.69-9.38-12.69s-7.31,7.13-7.31,12.02c0,5.55,1.58,14.16,8.72,14.16,5.31,0,8.01-5.06,8.01-9.74v-3.73l-.04-.04ZM587.87,170.78c-3.13,0-5.73-1.83-7.06-4.01-.25-.53-.77-.77-1.3-.77s-1.05.25-1.41.6c-2.71,2.88-5.73,4.18-10.26,4.18-10.97,0-16.62-8.44-16.62-19.23,0-10.02,7.31-17.82,17.22-17.82,4.08,0,8.37,1.23,10.86,4.36l.7-3.48h10.16v24.18c0,2.78.42,5.48,2.88,5.48,3.59,0,5.13-4.71,6.01-7.66l.95.18c-.6,7.91-4.25,13.99-12.16,13.99"/>
  <path class="cls-3" d="M160.8,252.29c-5.66,0-10.44-1.83-13.22-2.88-1.48-.53-2.6-.77-3.66-.77-1.48,0-2.25,1.3-2.35,2.71h-4.89v-20.63h4.36c2.35,11.49,12.62,15.64,18.87,15.64s11.49-2.25,11.49-7.56c0-15.39-34.87-5.9-34.87-29.56,0-11.49,10.19-14.8,19.58-14.8,4.96,0,10.09,1.72,12.97,2.71,1.12.42,1.83.6,2.6.6,1.41,0,2-.95,2.18-2.43h5.06v19.12h-4.25c-2.07-9.03-9.14-13.92-17.75-13.92-4.78,0-10.02,1.65-10.02,6.54,0,12.34,35.5,5.13,35.5,28.79,0,11.49-10.44,16.45-21.58,16.45"/>
  <path class="cls-3" d="M207.51,252.19c-9.03,0-18.7-6.61-18.7-18.45s8.79-18.63,18.7-18.63c7.49,0,15.22,2.95,15.22,12.09,0,3.55-2.25,7.13-6.19,7.13-2.95,0-6.08-1.41-6.08-5.13,0-2.71,2.35-4.71,4.96-4.01,0-4.08-3.3-5.55-6.96-5.55-7.31,0-8.44,6.96-8.44,12.62,0,7.31,2.78,14.97,11.32,14.97,4.71,0,8.96-3.3,11.32-7.56l1.48.42c-2.43,7.84-8.86,12.09-16.62,12.09"/>
  <path class="cls-3" d="M239.25,207.13c-3.83,0-6.61-3.13-6.61-6.26s2.78-6.36,6.54-6.36,6.61,3.13,6.61,6.36-2.78,6.26-6.54,6.26M243.33,252.19c-6.08,0-8.61-4.01-8.61-10.68v-15.32c0-2.95-.53-4.96-3.13-5.83l-4.43-1.48v-2.88h18.63v24.18c0,2.78.6,5.48,3.06,5.48,3.58,0,4.96-4.71,5.83-7.66l1.05.18c-.6,7.91-4.89,13.99-12.34,13.99"/>
  <path class="cls-3" d="M277.95,219.99c-6.26,0-8.01,4.25-8.26,10.33h15.15c0-.42.07-1.76.07-2.6,0-3.83-2.43-7.73-6.96-7.73M277.52,252.19c-8.61,0-18.8-6.08-18.8-18.52s8.79-18.52,18.7-18.52,17.05,5.48,17.05,16.62c0,.77-.07,2.25-.18,2.95h-24.53c.53,8.96,5.24,12.62,11.91,12.62,4.25,0,8.86-2.53,11.74-6.54l1.48.6c-3.3,7.49-10.44,10.79-17.4,10.79"/>
  <path class="cls-3" d="M339.21,252.19c-5.9,0-8.44-4.08-8.44-10.79,0-4.08.53-8.37.53-12.51,0-3.23-1.83-5.38-6.01-5.38-7.38,0-8.68,8.51-8.68,13.22v14.62h-11.14v-25.13c0-2.95-.53-4.96-3.13-5.83l-4.43-1.48v-2.88h17.75l.88,6.61c4.18-5.66,8.08-7.49,14.27-7.49,5.66,0,11.32,3.73,11.32,9.91,0,4.71-.6,10.33-.6,15.15,0,2.78.53,5.48,2.95,5.48,3.58,0,4.96-4.71,5.83-7.66l1.05.18c-.6,7.91-4.53,13.99-12.09,13.99"/>
  <path class="cls-3" d="M366.52,252.19c-6.08,0-8.61-4.01-8.61-10.68v-20.35l-6.61-2.07v-3.06h1.72c2.71,0,6.01-.77,7.31-2.53,1.48-2,1.83-3.83,2-6.43l.35-6.19h6.26v15.15h9.03v5.03h-9.03v19.12c0,2.78.6,5.48,3.06,5.48,3.58,0,4.96-4.71,5.83-7.66l1.05.18c-.6,7.91-4.89,13.99-12.34,13.99"/>
  <path class="cls-3" d="M394.42,207.13c-3.83,0-6.61-3.13-6.61-6.26s2.78-6.36,6.54-6.36,6.61,3.13,6.61,6.36-2.78,6.26-6.54,6.26M398.54,252.19c-6.08,0-8.61-4.01-8.61-10.68v-15.32c0-2.95-.53-4.96-3.13-5.83l-4.43-1.48v-2.88h18.63v24.18c0,2.78.6,5.48,3.06,5.48,3.58,0,4.96-4.71,5.83-7.66l1.05.18c-.6,7.91-4.89,13.99-12.34,13.99"/>
  <path class="cls-3" d="M444.02,209.9c-3.37,0-5.83-1.48-5.83-4.53,0-1.83,1.23-3.55,3.13-3.66-.35-1.9-3.06-2.78-4.96-2.78-5.48,0-6.96,3.73-6.96,9.49v7.56h9.38v4.71h-9.31v30.61h-11.14v-30.54l-6.61-2.25v-2.53h4.36c1.83,0,2.25-1.05,2.25-2.71v-2c0-10.02,6.01-17.05,16.17-17.05,7.31,0,14.34,2.95,14.34,10.19,0,2.88-1.9,5.48-4.89,5.48"/>
  <path class="cls-3" d="M459.24,207.13c-3.83,0-6.61-3.13-6.61-6.26s2.78-6.36,6.54-6.36,6.61,3.13,6.61,6.36-2.78,6.26-6.54,6.26M463.31,252.19c-6.08,0-8.61-4.01-8.61-10.68v-15.32c0-2.95-.53-4.96-3.13-5.83l-4.43-1.48v-2.88h18.63v24.18c0,2.78.6,5.48,3.06,5.48,3.59,0,4.96-4.71,5.83-7.66l1.05.18c-.6,7.91-4.89,13.99-12.34,13.99"/>
  <path class="cls-3" d="M497.34,252.19c-9.03,0-18.7-6.61-18.7-18.45s8.79-18.63,18.7-18.63c7.49,0,15.22,2.95,15.22,12.09,0,3.55-2.25,7.13-6.19,7.13-2.95,0-6.08-1.41-6.08-5.13,0-2.71,2.35-4.71,4.96-4.01,0-4.08-3.3-5.55-6.96-5.55-7.31,0-8.44,6.96-8.44,12.62,0,7.31,2.78,14.97,11.32,14.97,4.71,0,8.96-3.3,11.32-7.56l1.48.42c-2.43,7.84-8.86,12.09-16.62,12.09"/>
  <path class="cls-3" d="M548.23,232.61c0-5.48-2.95-12.69-9.38-12.69s-7.31,7.13-7.31,12.02c0,5.55,1.58,14.16,8.72,14.16,5.31,0,8.01-5.06,8.01-9.74v-3.73l-.04-.04ZM556.66,252.19c-3.13,0-5.73-1.83-7.06-4.01-.25-.53-.77-.77-1.3-.77s-1.05.25-1.41.6c-2.71,2.88-5.73,4.18-10.26,4.18-10.97,0-16.62-8.44-16.62-19.23,0-10.02,7.31-17.82,17.22-17.82,4.08,0,8.37,1.23,10.86,4.36l.7-3.48h10.16v24.18c0,2.78.42,5.48,2.88,5.48,3.59,0,5.13-4.71,6.01-7.66l.95.18c-.6,7.91-4.25,13.99-12.16,13.99"/>
</svg>