<?xml version="1.0" encoding="UTF-8"?>
<svg id="Layer_2" data-name="Layer 2" xmlns="http://www.w3.org/2000/svg" viewBox="0 0 865.15 483.14">
  <defs>
    <style>
      .cls-1 {
        fill: #fff;
      }
    </style>
  </defs>
  <g id="Layer_1-2" data-name="Layer 1">
    <g>
      <rect class="cls-1" y="426.7" width="164.35" height="16.43"/>
      <path class="cls-1" d="M677.24,469.01c-18.49,0-26.86-14.48-26.86-32.96s8.37-32.97,26.86-32.97,26.51,14.3,26.51,32.97-8.37,32.96-26.51,32.96M677.07,483.14c27.73,0,44.48-19.36,44.48-47.27s-16.74-47.09-44.3-47.09-44.65,19.54-44.65,47.27,16.74,47.09,44.48,47.09M589.16,388.96c-15.35,0-24.59,6.98-29.3,13.78h-.35v-11.16h-17.09v88.95h17.09v-54.59c0-13.43,9.42-22.33,24.07-22.33,12.91,0,18.14,8.02,18.14,19.88v57.04h17.09v-61.75c0-20.41-13.26-29.83-29.65-29.83M478.23,469.19c-10.64,0-15.17-4.53-15.17-12.91,0-9.24,6.63-13.6,22.32-16.74,9.07-1.92,16.74-3.84,19.54-6.45v12.73c0,15.52-11.34,23.37-26.69,23.37M474.39,482.97c14.48,0,24.59-5.76,30.35-15h.35c1.05,10.12,5.58,13.43,14.13,13.43,2.79,0,5.76-.35,8.72-1.05v-10.46c-1.05.17-1.57.17-2.09.17-3.31,0-4.19-3.31-4.19-9.77v-40.81c0-23.02-14.65-30.7-32.97-30.7-27.21,0-38.37,13.43-39.24,30.52h17.44c.87-11.86,5.58-16.74,21.11-16.74,13.08,0,16.92,5.41,16.92,11.86,0,8.72-8.55,10.47-22.5,13.08-22.15,4.19-37.15,10.12-37.15,30,0,15.17,11.34,25.47,29.13,25.47M430.62,391.57h-17.09v88.95h17.09v-88.95ZM431.84,357.21h-19.36v18.49h19.36v-18.49ZM394.34,355.82h-17.09v124.71h17.09v-124.71ZM313.06,469.19c-10.64,0-15.17-4.53-15.17-12.91,0-9.24,6.63-13.6,22.33-16.74,9.07-1.92,16.74-3.84,19.54-6.45v12.73c0,15.52-11.34,23.37-26.69,23.37M309.22,482.97c14.48,0,24.59-5.76,30.35-15h.35c1.05,10.12,5.58,13.43,14.13,13.43,2.79,0,5.76-.35,8.72-1.05v-10.46c-1.05.17-1.57.17-2.09.17-3.31,0-4.19-3.31-4.19-9.77v-40.81c0-23.02-14.65-30.7-32.97-30.7-27.21,0-38.37,13.43-39.24,30.52h17.44c.87-11.86,5.58-16.74,21.11-16.74,13.08,0,16.92,5.41,16.92,11.86,0,8.72-8.55,10.47-22.5,13.08-22.15,4.19-37.15,10.12-37.15,30,0,15.17,11.34,25.47,29.13,25.47M263.18,467.44c-7.33,0-9.94-2.09-9.94-11.51v-50.23h17.09v-14.13h-17.09v-28.61h-17.09v28.61h-12.91v14.13h12.91v49.71c0,20.58,8.9,26.16,23.55,26.16,3.66,0,6.45-.17,10.81-1.05v-13.78c-2.97.52-4.36.7-7.33.7M209.98,355.82h-19.19v124.71h19.19v-124.71Z"/>
      <path class="cls-1" d="M796.61,249.25c1.05-14.65,11.51-24.42,25.81-24.42,15.17,0,24.94,10.46,24.94,24.42h-50.76ZM865.15,256.22c0-27.56-15.17-45.35-42.21-45.35s-43.95,19.19-43.95,47.09,15.7,47.27,43.95,47.27c23.37,0,36.45-12.91,41.16-30h-17.44c-1.57,5.93-7.67,16.05-23.37,16.05-17.62,0-26.34-13.78-26.69-28.6h68.37c.17-1.39.17-4.01.17-6.45M764.34,177.91h-17.09v124.71h17.09v-124.71ZM683.06,291.28c-10.64,0-15.17-4.53-15.17-12.91,0-9.24,6.63-13.6,22.33-16.74,9.07-1.92,16.74-3.84,19.54-6.45v12.73c0,15.52-11.34,23.37-26.69,23.37M679.23,305.06c14.48,0,24.59-5.76,30.35-15h.35c1.05,10.12,5.58,13.43,14.13,13.43,2.79,0,5.76-.35,8.72-1.05v-10.46c-1.05.17-1.57.17-2.09.17-3.31,0-4.19-3.31-4.19-9.77v-40.81c0-23.02-14.65-30.7-32.97-30.7-27.21,0-38.37,13.43-39.24,30.52h17.44c.87-11.86,5.58-16.74,21.1-16.74,13.08,0,16.92,5.41,16.92,11.86,0,8.72-8.55,10.46-22.5,13.08-22.15,4.19-37.15,10.12-37.15,30,0,15.17,11.34,25.46,29.13,25.46M635.45,213.66h-17.09v88.95h17.09v-88.95ZM636.67,179.3h-19.36v18.49h19.36v-18.49ZM605.28,302.62v-14.13h-51.8v-.35l49.88-63.49v-10.99h-68.72v14.13h45.52v.35l-48.66,61.74v12.73h73.78ZM473.59,291.28c-10.64,0-15.17-4.53-15.17-12.91,0-9.24,6.63-13.6,22.33-16.74,9.07-1.92,16.74-3.84,19.54-6.45v12.73c0,15.52-11.34,23.37-26.69,23.37M469.75,305.06c14.48,0,24.59-5.76,30.35-15h.35c1.05,10.12,5.58,13.43,14.13,13.43,2.79,0,5.76-.35,8.72-1.05v-10.46c-1.05.17-1.57.17-2.09.17-3.31,0-4.19-3.31-4.19-9.77v-40.81c0-23.02-14.65-30.7-32.97-30.7-27.21,0-38.37,13.43-39.24,30.52h17.44c.87-11.86,5.58-16.74,21.1-16.74,13.08,0,16.92,5.41,16.92,11.86,0,8.72-8.55,10.46-22.5,13.08-22.15,4.19-37.15,10.12-37.15,30,0,15.17,11.34,25.46,29.13,25.46M387.78,290.93c-15.35,0-24.77-12.73-24.77-32.79s9.42-32.79,24.77-32.79c16.74,0,24.77,15.35,24.77,32.79s-8.02,32.79-24.77,32.79M390.57,211.05c-13.95,0-22.5,6.8-27.38,13.08h-.35v-10.46h-17.09v119.83h17.09v-41.86h.35c4.88,7.15,13.43,13.43,27.38,13.43,22.67,0,39.94-17.62,39.94-46.92s-17.27-47.09-39.94-47.09M285.57,305.06c31.22,0,45.7-16.05,45.7-37.5,0-26.34-22.67-32.09-46.74-38.2-16.05-4.01-29.13-6.98-29.13-20.93,0-10.81,8.02-16.57,23.72-16.57,18.14,0,26.69,8.2,28.78,23.2h19.88c-1.92-25.12-20.41-39.59-48.84-39.59-26.86,0-43.61,12.38-43.61,34.01,0,23.72,21.45,30,40.99,35.23,22.67,5.76,34.88,8.02,34.88,23.9,0,11.34-6.11,20.06-26.16,20.06-23.37,0-33.31-11.34-34.71-28.08h-19.88c1.4,28.08,23.55,44.48,55.12,44.48"/>
      <path class="cls-1" d="M481.99,33.14c-15.35,0-24.59,6.98-29.3,13.78h-.35v-11.16h-17.09v88.95h17.09v-54.59c0-13.43,9.42-22.33,24.07-22.33,12.91,0,18.14,8.02,18.14,19.88v57.04h17.09v-61.74c0-20.41-13.26-29.83-29.65-29.83M374.55,106.05c-16.75,0-24.59-12.56-24.59-29.3s7.85-29.3,24.59-29.3c15.35,0,24.42,9.77,24.42,29.3s-9.07,29.3-24.42,29.3M399.14,46.22h-.35c-4.88-6.28-13.08-13.08-27.38-13.08-22.15,0-39.24,15-39.24,43.61s17.09,43.43,39.24,43.43c14.3,0,22.5-6.28,27.38-13.43h.35v12.04c0,16.74-8.37,23.89-24.59,23.89-14.48,0-20.41-6.28-22.15-14.3h-17.79c1.74,16.05,14.48,28.26,39.94,28.26s41.69-12.04,41.69-38.9V35.76h-17.09v10.46ZM317.16,35.76h-17.09v88.95h17.09V35.76ZM318.39,1.39h-19.36v18.49h19.36V1.39ZM250.01,127.15c23.37,0,36.63-10.46,36.63-27.73,0-19.88-17.79-24.59-34.19-28.43-12.56-2.79-22.5-3.66-22.5-12.91,0-6.63,4.88-11.16,16.4-11.16,14.83,0,18.49,7.85,19.71,14.65h17.27c-1.22-15.35-12.91-28.43-37.33-28.43-21.45,0-33.84,10.29-33.84,25.64,0,18.49,17.79,23.02,33.31,26.69,11.51,2.44,23.37,3.66,23.37,14.82,0,6.45-4.01,13.08-19.01,13.08-16.57,0-22.85-8.02-23.55-18.31h-17.27c.52,18.14,13.95,32.09,40.99,32.09M131.93,71.34c1.05-14.65,11.51-24.42,25.81-24.42,15.17,0,24.94,10.47,24.94,24.42h-50.76ZM200.48,78.31c0-27.56-15.18-45.35-42.21-45.35s-43.95,19.19-43.95,47.09,15.7,47.27,43.95,47.27c23.37,0,36.45-12.91,41.16-30h-17.44c-1.57,5.93-7.67,16.05-23.37,16.05-17.62,0-26.34-13.78-26.69-28.61h68.37c.18-1.39.18-4.01.18-6.45M19.26,108.14V16.57h27.38c28.95,0,36.45,21.8,36.45,45.87s-7.5,45.7-36.45,45.7h-27.38ZM47.86,124.71c34.53,0,55.12-22.15,55.12-62.27S82.05,0,47.52,0H.07v124.71h47.79Z"/>
    </g>
  </g>
</svg>