<?xml version="1.0" encoding="UTF-8"?>
<svg id="Layer_2" data-name="Layer 2" xmlns="http://www.w3.org/2000/svg" viewBox="0 0 1806.97 465.54">
  <defs>
    <style>
      .cls-1 {
        fill: #000000;
      }
    </style>
  </defs>
  <g id="Layer_1-2" data-name="Layer 1">
    <g>
      <path class="cls-1" d="M164.05,397.24c102,0,128.43-77.7,128.43-164.17s-26.42-164.78-128.43-164.78h-96.45v328.95h96.45ZM0,456.77V8.77h167.13c121.68,0,195.4,80.2,195.4,224.31s-72.5,223.69-194.18,223.69H0Z"/>
      <path class="cls-1" d="M400.58,305.75h70.05c4.9,60.16,39.92,100.9,122.28,100.9,70.65,0,92.18-31.33,92.18-72.07,0-57.03-43.03-65.16-122.9-85.83-68.83-18.81-144.4-41.35-144.4-126.57C417.78,44.48,476.78,0,571.41,0c100.15,0,165.28,52,172.03,142.24h-70.02c-7.38-53.89-37.5-83.33-101.4-83.33-55.3,0-83.55,20.67-83.55,59.53,0,50.12,46.08,60.77,102.6,75.18,84.8,21.92,164.68,42.6,164.68,137.22,0,77.06-51,134.7-160.98,134.7s-189.28-58.89-194.18-159.78"/>
      <rect class="cls-1" x="927.73" y="268.79" width="614.46" height="58.27"/>
      <rect class="cls-1" x="1739.36" y="8.77" width="67.6" height="448"/>
    </g>
  </g>
</svg>