<?xml version="1.0" encoding="UTF-8"?>
<svg id="Layer_1" xmlns="http://www.w3.org/2000/svg" xmlns:xlink="http://www.w3.org/1999/xlink" version="1.1" viewBox="0 0 2282.1 372.4">
  <defs>
    <style>
      .st0 {
        fill: #ffffff;
      }
    </style>
  </defs>
  <g id="Layer_1-2">
    <g>
      <path class="st0" d="M131.2,317.8c81.6,0,102.7-62.2,102.7-131.3s-21.1-131.8-102.7-131.8H54.1v263.2h77.2,0ZM0,365.4V7h133.7c97.3,0,156.3,64.2,156.3,179.5s-58,178.9-155.3,178.9H0Z"/>
      <path class="st0" d="M320.5,244.6h56c3.9,48.1,31.9,80.7,97.8,80.7s73.7-25.1,73.7-57.7-34.4-52.1-98.3-68.7c-55.1-15.1-115.5-33.1-115.5-101.3S381.4,0,457.1,0s132.2,41.6,137.6,113.8h-56c-5.9-43.1-30-66.7-81.1-66.7s-66.8,16.5-66.8,47.6,36.9,48.6,82.1,60.1c67.8,17.5,131.7,34.1,131.7,109.8s-40.8,107.8-128.8,107.8-151.4-47.1-155.3-127.8"/>
      <rect class="st0" x="742.2" y="215" width="491.6" height="46.6"/>
      <rect class="st0" x="1391.5" y="7" width="54.1" height="358.4"/>
    </g>
  </g>
  <g id="Layer_1-21">
    <g>
      <rect class="st0" x="1625.8" y="329.6" width="124.7" height="12.5"/>
      <path class="st0" d="M2139.5,361.7c-14,0-20.4-11-20.4-25s6.4-25,20.4-25,20.1,10.8,20.1,25-6.4,25-20.1,25M2139.4,372.4c21,0,33.7-14.7,33.7-35.9s-12.7-35.7-33.6-35.7-33.9,14.8-33.9,35.9,12.7,35.7,33.7,35.7M2072.7,301c-11.6,0-18.7,5.3-22.2,10.4h-.3v-8.5h-13v67.5h13v-41.4c0-10.2,7.1-16.9,18.3-16.9s13.8,6.1,13.8,15.1v43.3h13v-46.8c0-15.5-10.1-22.6-22.5-22.6M1988.6,361.8c-8.1,0-11.5-3.4-11.5-9.8s5-10.3,16.9-12.7c6.9-1.5,12.7-2.9,14.8-4.9v9.7c0,11.8-8.6,17.7-20.2,17.7M1985.7,372.3c11,0,18.7-4.4,23-11.4h.3c.8,7.7,4.2,10.2,10.7,10.2s4.4-.3,6.6-.8v-7.9c-.8.1-1.2.1-1.6.1-2.5,0-3.2-2.5-3.2-7.4v-31c0-17.5-11.1-23.3-25-23.3-20.6,0-29.1,10.2-29.8,23.2h13.2c.7-9,4.2-12.7,16-12.7s12.8,4.1,12.8,9-6.5,7.9-17.1,9.9c-16.8,3.2-28.2,7.7-28.2,22.8s8.6,19.3,22.1,19.3M1952.5,303h-13v67.5h13v-67.5ZM1953.4,276.9h-14.7v14h14.7v-14h0ZM1924.9,275.9h-13v94.6h13v-94.6ZM1863.3,361.8c-8.1,0-11.5-3.4-11.5-9.8s5-10.3,16.9-12.7c6.9-1.5,12.7-2.9,14.8-4.9v9.7c0,11.8-8.6,17.7-20.2,17.7M1860.4,372.3c11,0,18.7-4.4,23-11.4h.3c.8,7.7,4.2,10.2,10.7,10.2s4.4-.3,6.6-.8v-7.9c-.8.1-1.2.1-1.6.1-2.5,0-3.2-2.5-3.2-7.4v-31c0-17.5-11.1-23.3-25-23.3-20.6,0-29.1,10.2-29.8,23.2h13.2c.7-9,4.2-12.7,16-12.7s12.8,4.1,12.8,9-6.5,7.9-17.1,9.9c-16.8,3.2-28.2,7.7-28.2,22.8s8.6,19.3,22.1,19.3M1825.4,360.5c-5.6,0-7.5-1.6-7.5-8.7v-38.1h13v-10.7h-13v-21.7h-13v21.7h-9.8v10.7h9.8v37.7c0,15.6,6.8,19.8,17.9,19.8s4.9-.1,8.2-.8v-10.4c-2.3.4-3.3.5-5.6.5M1785.1,275.9h-14.6v94.6h14.6v-94.6Z"/>
      <path class="st0" d="M2230.1,195c.8-11.1,8.7-18.5,19.6-18.5s18.9,7.9,18.9,18.5h-38.5ZM2282.1,200.3c0-20.9-11.5-34.4-32-34.4s-33.3,14.6-33.3,35.7,11.9,35.9,33.3,35.9,27.6-9.8,31.2-22.8h-13.2c-1.2,4.5-5.8,12.2-17.7,12.2s-20-10.4-20.2-21.7h51.9c.1-1.1.1-3,.1-4.9M2205.6,140.9h-13v94.6h13v-94.6h0ZM2143.9,226.9c-8.1,0-11.5-3.4-11.5-9.8s5-10.3,16.9-12.7c6.9-1.5,12.7-2.9,14.8-4.9v9.7c0,11.8-8.6,17.7-20.2,17.7M2141,237.3c11,0,18.7-4.4,23-11.4h.3c.8,7.7,4.2,10.2,10.7,10.2s4.4-.3,6.6-.8v-7.9c-.8.1-1.2.1-1.6.1-2.5,0-3.2-2.5-3.2-7.4v-31c0-17.5-11.1-23.3-25-23.3-20.6,0-29.1,10.2-29.8,23.2h13.2c.7-9,4.2-12.7,16-12.7s12.8,4.1,12.8,9-6.5,7.9-17.1,9.9c-16.8,3.2-28.2,7.7-28.2,22.8s8.6,19.3,22.1,19.3M2107.8,168h-13v67.5h13v-67.5h0ZM2108.8,141.9h-14.7v14h14.7v-14ZM2084.9,235.5v-10.7h-39.3v-.3l37.8-48.2v-8.3h-52.1v10.7h34.5v.3l-36.9,46.8v9.7h56ZM1985,226.9c-8.1,0-11.5-3.4-11.5-9.8s5-10.3,16.9-12.7c6.9-1.5,12.7-2.9,14.8-4.9v9.7c0,11.8-8.6,17.7-20.2,17.7M1982.1,237.3c11,0,18.7-4.4,23-11.4h.3c.8,7.7,4.2,10.2,10.7,10.2s4.4-.3,6.6-.8v-7.9c-.8.1-1.2.1-1.6.1-2.5,0-3.2-2.5-3.2-7.4v-31c0-17.5-11.1-23.3-25-23.3-20.6,0-29.1,10.2-29.8,23.2h13.2c.7-9,4.2-12.7,16-12.7s12.8,4.1,12.8,9-6.5,7.9-17.1,9.9c-16.8,3.2-28.2,7.7-28.2,22.8s8.6,19.3,22.1,19.3M1920,226.6c-11.6,0-18.8-9.7-18.8-24.9s7.1-24.9,18.8-24.9,18.8,11.6,18.8,24.9-6.1,24.9-18.8,24.9M1922.1,166c-10.6,0-17.1,5.2-20.8,9.9h-.3v-7.9h-13v90.9h13v-31.8h.3c3.7,5.4,10.2,10.2,20.8,10.2,17.2,0,30.3-13.4,30.3-35.6s-13.1-35.7-30.3-35.7M1842.4,237.3c23.7,0,34.7-12.2,34.7-28.4s-17.2-24.3-35.5-29c-12.2-3-22.1-5.3-22.1-15.9s6.1-12.6,18-12.6,20.2,6.2,21.8,17.6h15.1c-1.5-19.1-15.5-30-37-30s-33.1,9.4-33.1,25.8,16.3,22.8,31.1,26.7c17.2,4.4,26.5,6.1,26.5,18.1s-4.6,15.2-19.8,15.2-25.3-8.6-26.3-21.3h-15.1c1.1,21.3,17.9,33.7,41.8,33.7"/>
      <path class="st0" d="M1991.4,31.1c-11.6,0-18.7,5.3-22.2,10.4h-.3v-8.5h-13v67.5h13v-41.4c0-10.2,7.1-16.9,18.3-16.9s13.8,6.1,13.8,15.1v43.3h13v-46.8c0-15.5-10.1-22.6-22.5-22.6M1909.9,86.4c-12.7,0-18.7-9.5-18.7-22.2s6-22.2,18.7-22.2,18.5,7.4,18.5,22.2-6.9,22.2-18.5,22.2M1928.6,41h-.3c-3.7-4.8-9.9-9.9-20.8-9.9-16.8,0-29.8,11.4-29.8,33.1s13,32.9,29.8,32.9,17.1-4.8,20.8-10.2h.3v9.1c0,12.7-6.4,18.1-18.7,18.1s-15.5-4.8-16.8-10.8h-13.5c1.3,12.2,11,21.4,30.3,21.4s31.6-9.1,31.6-29.5v-62.2h-13v7.9h0ZM1866.4,33.1h-13v67.5h13V33.1ZM1867.3,7h-14.7v14h14.7V7ZM1815.4,102.4c17.7,0,27.8-7.9,27.8-21s-13.5-18.7-25.9-21.6c-9.5-2.1-17.1-2.8-17.1-9.8s3.7-8.5,12.4-8.5,14,6,15,11.1h13.1c-.9-11.6-9.8-21.6-28.3-21.6s-25.7,7.8-25.7,19.4,13.5,17.5,25.3,20.2c8.7,1.8,17.7,2.8,17.7,11.2s-3,9.9-14.4,9.9-17.3-6.1-17.9-13.9h-13.1c.4,13.8,10.6,24.3,31.1,24.3M1725.9,60c.8-11.1,8.7-18.5,19.6-18.5s18.9,7.9,18.9,18.5h-38.5ZM1777.9,65.3c0-20.9-11.5-34.4-32-34.4s-33.3,14.6-33.3,35.7,11.9,35.9,33.3,35.9,27.6-9.8,31.2-22.8h-13.2c-1.2,4.5-5.8,12.2-17.7,12.2s-20-10.4-20.2-21.7h51.9c0-1.1,0-3,0-4.9M1640.4,88V18.5h20.8c22,0,27.6,16.5,27.6,34.8s-5.7,34.7-27.6,34.7h-20.8ZM1662.1,100.5c26.2,0,41.8-16.8,41.8-47.2s-15.9-47.4-42.1-47.4h-36v94.6h36.3,0Z"/>
    </g>
  </g>
</svg>