<?xml version="1.0" encoding="UTF-8"?>
<svg id="Layer_1" data-name="Layer 1" xmlns="http://www.w3.org/2000/svg" viewBox="0 0 600 368">
  <defs>
    <style>
      .cls-1 {
        fill: #1d1d1b;
      }
    </style>
  </defs>
  <path class="cls-1" d="M402.1,176.07c-7.19-1.34-16.66-2.01-19.71-6.41-4.62-6.56,1.16-16.06,16.25-15.2,13.67.82,15.54,11.36,15.72,15.46h19.71c.26-7.71-2.94-15.72-7.71-20.79-6.11-6.41-20.49-13.04-38.34-10.4-9.61,1.34-22.39,6.93-26.64,19.45-3.73,11.74,0,22.39,7.19,27.98,9.05,6.93,26.05,9.02,33.05,10.4,8.42,1.68,14.68,2.83,13.67,11.77-1.08,9.43-15.72,12.11-25.37,8.98-6.89-2.24-9.87-7.71-11.18-15.2h-20.79c0,9.46,5.63,19.41,11.33,24,8.46,6.78,18.03,9.17,29.1,9.17,14.57,0,26.6-3.76,33.91-14.53,3.84-5.66,8.01-18.67,1.34-30.37-5.85-10.13-19.19-12.26-31.45-14.38"/>
  <path class="cls-1" d="M333.36,151.29c-8.46-9.69-23.29-15.2-38.38-12.78-28.28,4.51-35.21,31.3-36.48,39.98-2.38,16.21,2.38,43.41,30.89,54.07,13.3,5.07,30.11,3.2,42.89-6.11,7.19-5.33,14.38-17.33,14.9-24.78h-23.7c-.78,3.2-2.65,7.45-6.93,10.66-9.58,6.93-20.53,2.38-25.3-1.08-7.19-5.33-9.87-14.12-9.87-26.64,0-17.33,7.97-27.61,21.72-27.61,12.45,0,20.16,10.73,19.56,19.64h-33.57v16.8h58.09c1.42-15.8-5.92-33.05-13.86-42.1"/>
  <path class="cls-1" d="M506.1,206.1c-1.94,5.55-7.15,9.65-17.07,10.95-13.04,1.71-21.95-6.37-16.32-16.8,5.66-10.47,26.53-6.74,34.43-14.38,0,2.12.34,16.17-1.08,20.23M530.06,209.57v-28.77c0-4.36-.52-14.87-1.86-21.83-.97-5.03-5.29-12.67-13.6-16.8-7.23-3.61-12.78-4.25-24.59-4.25-17.7,0-36.78,6.15-37.56,31.71h21.31c0-9.24,6.41-14.68,16.21-14.68s17.74,5.18,15.87,13.64c-1.86,8.5-17.51,8.79-27.54,10.13-11.59,1.53-27.16,6.93-30.89,23.18-1.34,6.41-.26,18.11,9.58,25.86,6.67,5.07,13.75,7.19,23.18,7.19,12.04,0,22.17-5.25,27.8-10.4.26,1.34,1.6,6.41,2.65,7.75h22.39c-3.47-6.93-2.94-17.66-2.94-22.65"/>
  <path class="cls-1" d="M107.22,194.55c-5.29,0-9.58-4.28-9.58-9.58s4.28-9.58,9.58-9.58,9.58,4.28,9.58,9.58-4.28,9.58-9.58,9.58M181.41,237.48c-37.75-13.04-44.75-47.95-35.32-72.43,9.39-24.44,42.33-35.84,65.13-19.49,22.84,16.39,20.42,47.81,20.42,47.81h-58.57v-16.77h33.98s.93-6.56-4.69-12.78c-7.56-8.31-18.37-8.2-25.37-4.17-8.76,5.03-14.79,23.03-10.1,38.83,4.69,15.8,19.04,22.1,32.86,22.1,20.01,0,34.88-13.82,34.91-36.48.07-37.52-25.23-71.73-63.23-81.38-44.86-11.33-90.47,15.84-101.83,60.7-11.36,44.86,15.76,90.47,60.62,101.87,32.04,8.12,64.42-3.39,84.51-26.94-9.5,2.79-20.79,3.47-33.31-.86"/>
</svg>