<?xml version="1.0" encoding="UTF-8"?>
<svg id="Layer_1" data-name="Layer 1" xmlns="http://www.w3.org/2000/svg" viewBox="0 0 600 368">
  <defs>
    <style>
      .cls-1 {
        fill: #ffffff;
      }
    </style>
  </defs>
  <polygon class="cls-1" points="24.15 181.39 7.14 181.39 7.14 190.4 26.54 190.4 26.54 196.7 0 196.7 0 161.67 25.68 161.67 25.68 167.87 7.14 167.87 7.14 175.31 24.15 175.31 24.15 181.39"/>
  <path class="cls-1" d="M83.14,183.46l-4.38-13.79-4.51,13.79h8.89ZM85.18,189.49h-12.9l-2.41,7.19h-7.66l12.51-35.01h8.27l12.41,35.01h-7.93l-2.26-7.19h-.02Z"/>
  <rect class="cls-1" x="96.11" y="200.37" width="27.06" height="2.39"/>
  <polygon class="cls-1" points="126.86 161.67 134.2 161.67 134.2 190.4 151.53 190.4 151.53 196.68 126.86 196.68 126.86 161.67"/>
  <path class="cls-1" d="M175.04,183.46l-4.38-13.79-4.51,13.79h8.89ZM177.09,189.49h-12.9l-2.41,7.19h-7.66l12.51-35.01h8.27l12.41,35.01h-7.93l-2.26-7.19h-.02Z"/>
  <rect class="cls-1" x="336.06" y="161.67" width="6.77" height="35.01"/>
  <path class="cls-1" d="M356.39,196.7h-6.87v-25.9h6.87v25.9ZM356.39,167.7h-6.87v-6.23h6.87v6.25-.02Z"/>
  <path class="cls-1" d="M410.43,196.7h-6.87v-25.9h6.87v25.9ZM410.43,167.7h-6.87v-6.23h6.87v6.25-.02Z"/>
  <rect class="cls-1" x="413.83" y="200.37" width="27.06" height="2.39"/>
  <path class="cls-1" d="M540.25,196.7h-6.87v-25.9h6.87v25.9ZM540.25,167.7h-6.87v-6.23h6.87v6.25-.02Z"/>
  <path class="cls-1" d="M44.96,191.63c1.72,0,3.13-.2,4.21-.57,2.04-.74,3.05-2.09,3.05-4.06,0-1.16-.52-2.04-1.53-2.68-1.01-.62-2.61-1.16-4.78-1.65l-3.72-.84c-3.64-.84-6.15-1.72-7.56-2.68-2.36-1.62-3.55-4.14-3.55-7.58,0-3.13,1.13-5.74,3.42-7.8,2.31-2.07,5.66-3.1,10.07-3.1,3.69,0,6.84.98,9.45,2.93,2.61,1.97,3.96,4.8,4.09,8.52h-7.04c-.12-2.12-1.06-3.59-2.76-4.48-1.13-.59-2.56-.89-4.26-.89-1.9,0-3.4.37-4.51,1.13-1.13.76-1.67,1.82-1.67,3.18,0,1.26.54,2.19,1.67,2.81.71.42,2.24.89,4.55,1.45l6.03,1.45c2.63.64,4.65,1.48,5.98,2.54,2.09,1.65,3.13,4.04,3.13,7.14s-1.23,5.86-3.67,7.98-5.91,3.18-10.36,3.18-8.15-1.03-10.76-3.13c-2.61-2.09-3.91-4.95-3.91-8.59h6.99c.22,1.6.66,2.78,1.3,3.59,1.18,1.43,3.23,2.17,6.11,2.17"/>
  <path class="cls-1" d="M207.54,181.27h-8.72v9.33h8.59c1.53,0,2.73-.2,3.59-.62,1.55-.76,2.34-2.22,2.34-4.36,0-1.82-.76-3.08-2.26-3.77-.84-.37-2.02-.59-3.55-.59M211.19,174.6c.96-.57,1.43-1.6,1.43-3.05,0-1.62-.64-2.71-1.9-3.23-1.08-.37-2.49-.54-4.19-.54h-7.71v7.73h8.59c1.53,0,2.78-.3,3.77-.89M207.71,196.7h-15.85v-35.03h17.01c4.28.05,7.34,1.3,9.11,3.72,1.08,1.5,1.62,3.27,1.62,5.34s-.54,3.87-1.62,5.15c-.59.74-1.48,1.4-2.66,1.99,1.8.64,3.15,1.67,4.06,3.08.91,1.4,1.35,3.13,1.35,5.12s-.52,3.94-1.58,5.59c-.66,1.08-1.5,2.02-2.49,2.76-1.13.86-2.46,1.45-3.99,1.75-1.53.32-3.18.47-4.97.47"/>
  <path class="cls-1" d="M243.31,183.98c.52.71,1.28,1.06,2.24,1.06,1.7,0,3.08-1.28,4.16-3.87,1.08-2.59,1.62-4.6,1.62-6.08,0-.84-.25-1.55-.76-2.12s-1.18-.86-2.04-.86c-1.65,0-3.05,1.03-4.26,3.08-1.18,2.04-1.77,4.04-1.77,5.96,0,1.16.27,2.09.81,2.81M253.56,169.72h4.48l-3.03,10.32c-.25.84-.42,1.45-.52,1.87s-.15.76-.15,1.06c0,.47.17.94.47,1.35.32.42.81.64,1.53.64,1.35,0,2.73-.89,4.09-2.66,1.38-1.77,2.07-4.14,2.07-7.09,0-4.36-1.87-7.48-5.61-9.38-2.34-1.21-4.97-1.8-7.9-1.8-5.39,0-9.7,1.65-12.97,4.95-2.95,2.98-4.41,6.55-4.41,10.71,0,4.63,1.72,8.3,5.17,11,3.05,2.39,6.79,3.59,11.2,3.59,3,0,5.81-.54,8.42-1.65,1.43-.59,2.91-1.43,4.43-2.49l.57-.39,1.75,2.66c-2.24,1.75-4.68,3.08-7.31,3.99-2.61.91-5.34,1.38-8.15,1.38-6.57,0-11.67-2.04-15.26-6.13-3-3.4-4.48-7.41-4.48-12.04,0-5.19,1.87-9.6,5.61-13.22,3.91-3.82,8.96-5.71,15.09-5.71,5,0,9.11,1.3,12.41,3.91,3.45,2.76,5.17,6.43,5.17,10.98,0,3.59-1.08,6.67-3.27,9.26-2.19,2.59-4.68,3.87-7.48,3.87-1.45,0-2.59-.42-3.35-1.23-.79-.84-1.18-1.67-1.18-2.54v-.37c0-.12,0-.27.02-.44-.59,1.13-1.28,2.04-2.02,2.73-1.35,1.21-2.95,1.82-4.85,1.82s-3.52-.69-4.78-2.07c-1.28-1.38-1.92-3.3-1.92-5.76,0-2.86.98-5.54,2.93-8.05s4.33-3.74,7.16-3.74c1.67,0,2.95.47,3.87,1.38.69.71,1.16,1.53,1.4,2.44l.86-3-.05-.15Z"/>
  <path class="cls-1" d="M292.58,176.81c.96-.84,1.43-2.17,1.43-3.99s-.47-3.13-1.43-3.89c-.96-.79-2.31-1.16-4.04-1.16h-6.82v10.32h6.82c1.72,0,3.08-.42,4.04-1.26M289.18,184.1h-7.44v12.58h-7.26v-35.01h15.26c3.52,0,6.33.91,8.42,2.71,2.09,1.8,3.13,4.6,3.13,8.4,0,4.14-1.03,7.07-3.13,8.76-2.09,1.7-5.07,2.56-8.96,2.56"/>
  <path class="cls-1" d="M317.81,175.7c-1.99,0-3.5.71-4.58,2.09-1.06,1.4-1.6,3.4-1.6,6.01s.54,4.6,1.6,6.01c1.06,1.4,2.59,2.12,4.58,2.12s3.5-.71,4.55-2.12c1.06-1.4,1.6-3.42,1.6-6.01s-.54-4.6-1.6-6.01-2.59-2.09-4.55-2.09M327.78,174.08c2.19,2.73,3.27,5.98,3.27,9.72s-1.08,7.04-3.27,9.75c-2.19,2.71-5.49,4.06-9.95,4.06s-7.78-1.35-9.95-4.06c-2.19-2.71-3.27-5.96-3.27-9.75s1.08-6.97,3.27-9.72c2.19-2.73,5.51-4.11,9.95-4.11s7.78,1.38,9.95,4.11"/>
  <path class="cls-1" d="M370.2,196.7h-6.82v-35.03h10.64l6.38,27.52,6.33-27.52h10.51v35.01h-6.82v-29.35l-6.62,29.4h-7.12l-6.57-29.4v2.83c0,1.23.02,2.19.02,2.86v23.68h.07Z"/>
  <path class="cls-1" d="M465.13,170.61c-1.13-1.9-3.35-2.86-6.67-2.86h-6.75v22.85h6.75c3.45,0,5.86-1.7,7.21-5.12.74-1.87,1.11-4.09,1.11-6.67,0-3.57-.54-6.3-1.67-8.22M459.69,196.7h-15.09v-35.03h15.09c2.17.02,3.96.27,5.42.76,2.46.81,4.43,2.29,5.96,4.46,1.21,1.75,2.04,3.62,2.49,5.66.44,2.02.66,3.96.66,5.79,0,4.65-.94,8.59-2.81,11.84-2.54,4.36-6.45,6.52-11.74,6.52"/>
  <path class="cls-1" d="M494.65,181.14c-.12-1.8-.66-3.15-1.62-4.06-.98-.94-2.19-1.38-3.62-1.38-1.58,0-2.78.49-3.64,1.48-.86.98-1.4,2.31-1.62,3.99h10.51v-.02ZM501.35,189.1c-.17,1.53-.98,3.1-2.39,4.68-2.22,2.51-5.32,3.77-9.31,3.77-3.3,0-6.2-1.06-8.72-3.18-2.51-2.12-3.77-5.56-3.77-10.36,0-4.48,1.13-7.93,3.4-10.32,2.26-2.39,5.22-3.59,8.84-3.59,2.14,0,4.09.39,5.81,1.21,1.72.81,3.15,2.09,4.28,3.82,1.01,1.53,1.67,3.32,1.97,5.34.17,1.18.25,2.91.22,5.12h-17.73c.1,2.61.91,4.43,2.44,5.47.94.64,2.07.98,3.37.98,1.4,0,2.54-.39,3.4-1.18.47-.42.89-1.03,1.26-1.77h6.92v.02Z"/>
  <path class="cls-1" d="M524.07,171.99c2.02,1.3,3.2,3.52,3.5,6.7h-6.77c-.1-.86-.34-1.55-.74-2.07-.74-.91-2.02-1.38-3.79-1.38-1.48,0-2.54.22-3.15.69s-.94.98-.94,1.62c0,.76.34,1.33,1.01,1.7s3.03.98,7.07,1.87c2.68.64,4.7,1.6,6.06,2.88,1.33,1.3,1.99,2.93,1.99,4.87,0,2.56-.96,4.65-2.86,6.28-1.92,1.62-4.85,2.44-8.84,2.44s-7.07-.86-9.01-2.59c-1.94-1.72-2.91-3.91-2.91-6.57h6.87c.15,1.21.44,2.07.94,2.56.84.91,2.39,1.35,4.65,1.35,1.33,0,2.39-.2,3.18-.59.79-.39,1.18-.98,1.18-1.77s-.32-1.33-.96-1.72-2.98-1.08-7.07-2.04c-2.93-.74-5-1.65-6.2-2.73s-1.8-2.63-1.8-4.65c0-2.39.94-4.46,2.81-6.15,1.87-1.72,4.53-2.59,7.93-2.59s5.86.64,7.9,1.92"/>
  <path class="cls-1" d="M553,187.87c.91,2.19,2.56,3.27,4.95,3.27,1.58,0,2.93-.59,4.01-1.8,1.08-1.21,1.65-3.1,1.65-5.71,0-2.46-.52-4.33-1.55-5.61-1.03-1.28-2.44-1.92-4.16-1.92-2.36,0-4.01,1.11-4.92,3.35-.47,1.18-.71,2.66-.71,4.38,0,1.5.25,2.83.76,4.01M554.13,201.23c.74.62,1.94.94,3.67.94,2.44,0,4.06-.81,4.9-2.44.54-1.03.81-2.81.81-5.27v-1.67c-.64,1.11-1.35,1.94-2.09,2.49-1.35,1.03-3.1,1.55-5.24,1.55-3.32,0-5.98-1.16-7.98-3.5-1.99-2.34-2.98-5.49-2.98-9.48s.96-7.09,2.88-9.7c1.92-2.63,4.63-3.94,8.15-3.94,1.3,0,2.44.2,3.4.59,1.65.69,2.98,1.94,3.99,3.77v-3.72h6.57v24.57c0,3.35-.57,5.86-1.67,7.56-1.94,2.91-5.64,4.36-11.13,4.36-3.3,0-6.01-.64-8.1-1.94-2.09-1.3-3.25-3.23-3.47-5.81h7.36c.2.79.49,1.35.94,1.7"/>
  <path class="cls-1" d="M588.72,175.8c-2.29,0-3.87.98-4.73,2.93-.44,1.03-.66,2.34-.66,3.94v14.01h-6.75v-25.83h6.52v3.79c.86-1.33,1.7-2.29,2.46-2.88,1.4-1.06,3.15-1.58,5.29-1.58,2.68,0,4.87.69,6.57,2.09,1.7,1.4,2.56,3.72,2.56,6.97v17.43h-6.94v-15.76c0-1.35-.17-2.41-.54-3.13-.66-1.33-1.92-1.99-3.79-1.99"/>
</svg>