<?xml version="1.0" encoding="UTF-8"?>
<svg id="Layer_1" data-name="Layer 1" xmlns="http://www.w3.org/2000/svg" viewBox="0 0 600 368">
  <defs>
    <style>
      .cls-1 {
        fill: #1d1d1b;
      }
    </style>
  </defs>
  <polygon class="cls-1" points="341.34 260.88 480.56 236.48 481.8 246.41 341.34 260.88"/>
  <path class="cls-1" d="M455.65,274.75l-2.92-6.22-1.97,6.6,4.86-.38h.03ZM458.16,277.26l-1.27.1-.76-1.68-5.62.41-.54,1.78-1.27.1,3.81-12.69,5.65,11.96v.03Z"/>
  <path class="cls-1" d="M479.23,272.94l-2.92-6.22-1.97,6.6,4.86-.38h.03ZM481.74,275.48l-1.27.1-.76-1.68-5.62.41-.54,1.78-1.27.1,3.81-12.69,5.68,11.96-.03.03Z"/>
  <rect class="cls-1" x="255.98" y="129.25" width="25.2" height="2.48" transform="translate(115.41 386.81) rotate(-85.05)"/>
  <polygon class="cls-1" points="315.12 124.42 309.66 123.94 307.7 146.54 305.25 146.35 307.22 123.72 301.79 123.27 302.02 120.77 315.34 121.91 315.12 124.42"/>
  <rect class="cls-1" x="314.69" y="134.35" width="25.2" height="2.48" transform="translate(163.97 449.96) rotate(-85.05)"/>
  <polygon class="cls-1" points="354.44 127.81 348.98 127.34 347.02 149.96 344.57 149.74 346.51 127.14 341.08 126.67 341.3 124.16 354.63 125.34 354.44 127.81"/>
  <polygon class="cls-1" points="404.55 132.16 399.1 131.68 397.13 154.28 394.68 154.09 396.62 131.46 391.23 131.02 391.42 128.51 404.78 129.65 404.55 132.16"/>
  <polygon class="cls-1" points="118.2 137.74 239.91 142.95 118.26 152.72 118.2 137.74"/>
  <rect class="cls-1" x="272.77" y="234.71" width="1.62" height="16.41" transform="translate(-31.43 40.87) rotate(-8.08)"/>
  <polygon class="cls-1" points="373.77 236.98 362.95 238.51 359.43 213.56 361.87 213.21 365.04 235.68 373.42 234.51 373.77 236.98"/>
  <polygon class="cls-1" points="392.59 211.37 387.16 212.17 390.34 234.6 387.89 234.95 384.72 212.51 379.32 213.28 378.98 210.8 392.24 208.9 392.59 211.37"/>
  <path class="cls-1" d="M471.49,217.34l-6.95-12.63-3.21,14.09,10.12-1.43.03-.03ZM477.1,222.29l-2.63.38-1.87-3.43-11.71,1.65-.86,3.81-2.67.38,6.22-27.1s13.52,24.31,13.52,24.31Z"/>
  <path class="cls-1" d="M436.32,271.04c-.06-.83-.41-1.49-1.02-2.03-.63-.54-1.33-.76-2.16-.7l-.67.06.44,5.9.67-.06c.83-.06,1.49-.41,2.03-1.02.54-.63.76-1.33.7-2.16M437.5,270.97c.1,1.14-.25,2.16-.98,3.01-.76.86-1.68,1.33-2.82,1.43h-.67l.29,3.74-1.17.1-.89-11.96,1.84-.13c1.14-.1,2.13.25,3.01.98.89.76,1.36,1.68,1.43,2.82"/>
  <path class="cls-1" d="M445.37,270.37c-.06-.83-.41-1.49-1.02-2.03-.63-.54-1.33-.76-2.16-.7l-.67.06.44,5.9.67-.06c.83-.06,1.49-.41,2.03-1.02.54-.63.76-1.33.7-2.16M447.21,278.11l-1.59.13-3.59-3.43.29,3.68-1.17.1-.89-11.96,1.84-.13c1.14-.1,2.16.25,3.01.98.86.76,1.36,1.68,1.43,2.86.06.98-.16,1.87-.7,2.67s-1.3,1.33-2.22,1.62l3.62,3.49h-.03Z"/>
  <path class="cls-1" d="M471.45,271.45c-.16,1.49-.79,2.76-1.87,3.78-1.08,1.05-2.38,1.62-3.87,1.71-1.71.13-3.24-.35-4.54-1.49s-2.03-2.54-2.16-4.25c-.13-1.71.35-3.24,1.49-4.54,1.11-1.3,2.54-2.03,4.25-2.16,1.71-.13,3.24.38,4.54,1.49l-.79.92c-1.05-.89-2.25-1.3-3.65-1.21-1.36.1-2.51.67-3.43,1.75-.92,1.05-1.3,2.25-1.21,3.65.1,1.36.67,2.51,1.75,3.43,1.05.89,2.25,1.3,3.65,1.21.92-.06,1.75-.38,2.51-.89.76-.54,1.3-1.21,1.68-2.06l-4.47.35-.1-1.21,6.19-.48h.03Z"/>
  <path class="cls-1" d="M233.72,165.16c.7,0,1.27.22,1.75.7.48.48.73,1.08.73,1.81s-.19,1.3-.67,1.81c-.44.48-1.02.73-1.71.76-.7,0-1.3-.22-1.81-.7s-.76-1.05-.76-1.78.22-1.33.67-1.84c.48-.51,1.08-.76,1.78-.76M233.88,176.94l-4.16,17.77c-.13.48-.19.89-.16,1.21,0,.38.1.67.29.86s.41.29.7.29c.57,0,1.21-.38,1.97-1.08,1.24-1.17,2.41-2.86,3.55-4.98l1.24.67c-1.08,2.41-2.38,4.28-3.9,5.62-1.52,1.33-2.92,2-4.16,2.03-.83,0-1.56-.29-2.16-.92s-.92-1.46-.95-2.51c0-1.02.1-2.13.38-3.27l2.79-11.65c.06-.19.1-.38.1-.57,0-.41-.19-.73-.54-.95-.48-.29-1.17-.41-2.13-.41h-1.43l.41-1.56,8.12-.6.03.06Z"/>
  <path class="cls-1" d="M250.89,169.64l3.68-.1-1.81,7.36,4.09-.1-.54,1.9-3.97.1-3.36,14.03c-.19.79-.29,1.49-.25,2.09,0,.57.13.98.38,1.27.25.29.54.41.89.41,1.52-.03,3.36-2.03,5.46-6l1.27.67c-2.44,4.98-5.14,7.49-8.06,7.55-1.08,0-1.94-.29-2.57-.95s-.98-1.52-.98-2.6c0-.92.1-1.9.35-2.92l3.27-13.49-3.81.1.51-1.9,3.78-.1,1.78-7.36-.1.03Z"/>
  <path class="cls-1" d="M275.2,177.54c-1.21,0-2.38.54-3.59,1.52s-2.22,2.6-3.11,4.86c-.89,2.25-1.3,4.57-1.24,6.95.03,1.87.44,3.24,1.24,4.13s1.9,1.3,3.3,1.27c1.27,0,2.44-.51,3.52-1.4,1.08-.92,2.13-2.7,3.14-5.3,1.02-2.63,1.49-4.95,1.43-6.98-.03-1.46-.51-2.63-1.46-3.62-.95-.95-2.03-1.43-3.27-1.4M277.93,193.98c-.89,1.4-1.9,2.48-3.08,3.21-1.17.73-2.35,1.11-3.49,1.14-2.25.06-4.16-.73-5.74-2.32-1.59-1.62-2.41-3.65-2.48-6.19-.06-2.28.51-4.54,1.68-6.76s2.7-4,4.54-5.3c1.87-1.3,3.71-1.97,5.49-2.03,1.46,0,2.73.38,3.87,1.21,1.14.83,1.9,1.94,2.32,3.33l1.24-4.03,3.55-.48-4.57,17.36c-.13.48-.19.95-.16,1.4,0,.41.1.73.29.98.19.22.38.32.63.32.44,0,.95-.32,1.52-.95,1.08-1.21,2.09-2.82,3.05-4.86l1.33.57c-2.25,5.01-4.63,7.52-7.11,7.58-.79,0-1.46-.29-2-.89-.54-.6-.83-1.36-.86-2.35v-.92l-.03-.03Z"/>
  <path class="cls-1" d="M297.38,163.61l8.35-.6-7.05,29.17c-.25.98-.38,1.71-.38,2.16s.1.76.25.95c.16.19.35.29.6.29,1.3-.03,3.01-2.03,5.11-6l1.27.67c-2.41,4.95-4.89,7.46-7.49,7.52-.92,0-1.68-.29-2.25-.89s-.89-1.46-.92-2.57c0-.86.16-2.06.54-3.62l5.68-23.55c.06-.32.1-.54.1-.73,0-.35-.19-.63-.51-.83-.44-.25-1.14-.35-2.09-.35h-1.62l.44-1.68-.03.06Z"/>
  <path class="cls-1" d="M321.41,163.17c.7,0,1.27.22,1.75.7s.73,1.08.73,1.81-.19,1.3-.67,1.81c-.44.48-1.02.73-1.71.76-.7,0-1.3-.22-1.81-.7s-.76-1.05-.76-1.78.22-1.33.7-1.84c.48-.48,1.05-.76,1.78-.76M321.56,174.97l-4.16,17.77c-.13.48-.19.86-.19,1.21,0,.38.1.67.29.86s.41.29.7.29c.57,0,1.21-.38,1.97-1.08,1.24-1.21,2.41-2.86,3.55-4.95l1.24.67c-1.08,2.41-2.38,4.28-3.9,5.62-1.52,1.33-2.92,2-4.16,2.03-.83,0-1.56-.29-2.16-.92s-.92-1.46-.92-2.51.1-2.13.38-3.27l2.79-11.65c.06-.19.1-.38.1-.57,0-.41-.19-.73-.54-.95-.48-.29-1.17-.41-2.13-.41h-1.43l.41-1.56,8.12-.6.03.03Z"/>
  <path class="cls-1" d="M343.11,176.02c-1.21,0-2.38.54-3.59,1.52-1.21.98-2.22,2.6-3.11,4.86-.89,2.25-1.3,4.57-1.24,6.95.03,1.87.48,3.24,1.24,4.13.79.89,1.9,1.3,3.3,1.27,1.27,0,2.44-.51,3.52-1.4,1.08-.92,2.13-2.7,3.14-5.3,1.02-2.63,1.49-4.95,1.46-6.98-.03-1.46-.51-2.63-1.46-3.62-.95-.95-2.03-1.43-3.27-1.4M345.84,192.46c-.89,1.4-1.9,2.48-3.08,3.21s-2.35,1.11-3.49,1.14c-2.25.06-4.16-.73-5.78-2.32s-2.41-3.65-2.48-6.19c-.06-2.28.51-4.57,1.68-6.76,1.17-2.22,2.7-4,4.57-5.3,1.87-1.3,3.71-1.97,5.49-2.03,1.46,0,2.73.38,3.87,1.21,1.14.83,1.9,1.94,2.32,3.33l1.24-4.03,3.55-.48-4.57,17.36c-.13.48-.19.95-.16,1.4,0,.41.1.73.29.98.19.22.38.32.63.32.44,0,.95-.32,1.52-.95,1.08-1.21,2.09-2.82,3.05-4.86l1.33.57c-2.25,5.01-4.63,7.52-7.11,7.58-.79,0-1.46-.29-2-.86-.54-.6-.83-1.4-.86-2.35v-.92l-.03-.06Z"/>
  <path class="cls-1" d="M370.85,173.86l-1.78,7.39c3.24-4.98,6.28-7.52,9.2-7.58,1.11,0,2.03.32,2.76,1.08.73.73,1.11,1.78,1.14,3.08,0,1.11-.19,2.41-.67,3.94l-1.81,7.68-.44,1.9c-.1.44-.13.79-.1,1.08,0,.32.1.6.29.83s.41.32.67.32c.67,0,1.52-.54,2.57-1.56,1.05-1.02,1.94-2.54,2.73-4.57l1.46.44c-.95,2.51-2.16,4.41-3.65,5.74-1.49,1.33-2.89,2-4.22,2.03-.92,0-1.68-.29-2.32-.95-.63-.63-.95-1.49-.98-2.54,0-.89.1-1.84.35-2.89l1.97-8.25c.29-.92.41-1.81.38-2.67,0-.73-.19-1.3-.51-1.71-.32-.41-.7-.63-1.14-.6-.98,0-2.54,1.17-4.67,3.43s-3.71,5.33-4.76,9.24l-1.4,6.79-3.68.25,4.28-17.71c.06-.29.1-.54.1-.79,0-.44-.16-.79-.44-1.02-.38-.29-.95-.41-1.65-.38h-2l.38-1.49,7.93-.57v.06Z"/>
  <path class="cls-1" d="M404.52,174.4c-1.14,0-2.25.54-3.4,1.52s-2.13,2.7-3.01,5.11c-.86,2.41-1.27,4.82-1.24,7.24.03,1.84.48,3.27,1.3,4.25s1.84,1.46,3.08,1.43c1.17,0,2.32-.51,3.4-1.49,1.11-.95,2.09-2.7,2.98-5.2.89-2.51,1.3-4.95,1.27-7.33-.03-1.78-.48-3.14-1.3-4.09-.83-.98-1.87-1.43-3.11-1.43M404.4,172.84c2.32-.06,4.32.76,5.97,2.44,1.65,1.68,2.51,3.87,2.57,6.51.06,2.28-.48,4.54-1.59,6.7-1.11,2.19-2.54,3.87-4.35,5.05-1.78,1.17-3.65,1.81-5.59,1.84-2.32.06-4.32-.79-6.03-2.51s-2.57-3.9-2.63-6.54c-.06-2.19.48-4.38,1.62-6.57,1.14-2.19,2.6-3.87,4.41-5.08,1.81-1.21,3.65-1.84,5.59-1.87"/>
  <path class="cls-1" d="M290.56,137.9c-.19,2.19-1.05,3.94-2.54,5.2-1.49,1.27-3.33,1.78-5.55,1.62-.35-.03-.67-.1-.95-.19l.22-2.57c.25.16.57.22.92.25,1.43.13,2.67-.22,3.68-1.08,1.02-.86,1.59-2,1.71-3.43.1-1.17-.25-2.41-1.05-3.71-.73-1.17-1.46-2.35-2.19-3.49-.79-1.46-1.11-2.92-.98-4.47.19-2.13,1.02-3.78,2.51-4.98,1.49-1.17,3.3-1.68,5.46-1.49l-.22,2.41c-1.43-.13-2.63.19-3.62.98-1.02.76-1.56,1.87-1.68,3.3-.1,1.11.25,2.32,1.05,3.65.73,1.17,1.49,2.35,2.25,3.52.76,1.46,1.08,2.98.92,4.51"/>
  <path class="cls-1" d="M378.09,146.28c-.16,1.84-.95,3.33-2.35,4.51-1.43,1.17-3.05,1.68-4.86,1.52-1.84-.16-3.33-.95-4.51-2.35-1.17-1.4-1.68-3.01-1.52-4.86l1.62-18.79,2.44.22-1.62,18.76c-.1,1.14.22,2.16.95,3.05.73.89,1.68,1.4,2.86,1.49,1.14.1,2.19-.22,3.08-.98s1.4-1.68,1.49-2.82l1.62-18.76,2.44.22-1.62,18.79h-.03Z"/>
  <path class="cls-1" d="M437.05,145.08c.25-2.89-.54-5.46-2.41-7.68-1.87-2.22-4.25-3.46-7.14-3.71s-5.43.57-7.65,2.44c-2.22,1.87-3.46,4.25-3.71,7.14-.25,2.89.57,5.43,2.44,7.65,1.87,2.22,4.25,3.46,7.14,3.71,2.92.25,5.46-.57,7.68-2.44,2.22-1.87,3.46-4.25,3.71-7.11M439.65,145.3c-.32,3.59-1.84,6.54-4.63,8.85-2.76,2.32-5.97,3.33-9.58,3.01-3.62-.32-6.57-1.84-8.89-4.63-2.32-2.76-3.33-5.93-3.01-9.52.32-3.62,1.84-6.57,4.6-8.92,2.76-2.35,5.97-3.33,9.55-3.01,3.62.32,6.6,1.84,8.92,4.63,2.32,2.76,3.33,5.97,3.01,9.55"/>
  <path class="cls-1" d="M244.6,282.94s-43.86-29.64-45.07-87.27c-.83-40.11,13.71-82.26,40.78-110.63l9.46,9.08c-26.06,27.29-41.8,60.2-42.59,96.29-.76,35.99,12.5,68.87,37.39,92.57"/>
  <path class="cls-1" d="M140.86,174.72c1.56-1.71,1.43-4.38-.29-5.97-1.71-1.56-4.38-1.43-5.97.29-1.56,1.71-1.43,4.38.29,5.97,1.71,1.56,4.38,1.43,5.97-.29"/>
  <path class="cls-1" d="M161.74,174.3c1.56-1.71,1.43-4.38-.29-5.97-1.71-1.56-4.38-1.43-5.97.29-1.56,1.71-1.43,4.38.29,5.97,1.71,1.56,4.38,1.43,5.97-.29"/>
  <path class="cls-1" d="M182.08,173.99c1.56-1.71,1.43-4.38-.29-5.97-1.71-1.56-4.38-1.43-5.97.29-1.56,1.71-1.43,4.38.29,5.97,1.71,1.56,4.38,1.43,5.97-.29"/>
  <path class="cls-1" d="M140.95,191.44c1.56-1.71,1.43-4.38-.29-5.97-1.71-1.56-4.38-1.43-5.97.29-1.56,1.71-1.43,4.38.29,5.97,1.71,1.56,4.38,1.43,5.97-.29"/>
  <path class="cls-1" d="M161.81,191.03c1.56-1.71,1.43-4.38-.29-5.97-1.71-1.56-4.38-1.43-5.97.29-1.56,1.71-1.43,4.38.29,5.97,1.71,1.56,4.38,1.43,5.97-.29"/>
  <path class="cls-1" d="M182.18,190.71c1.56-1.71,1.43-4.38-.29-5.97-1.71-1.56-4.38-1.43-5.97.29-1.56,1.71-1.43,4.38.29,5.97,1.71,1.56,4.38,1.43,5.97-.29"/>
  <path class="cls-1" d="M141.27,209.34c1.56-1.71,1.43-4.38-.29-5.97-1.71-1.56-4.38-1.43-5.97.29-1.56,1.71-1.43,4.38.29,5.97,1.71,1.56,4.38,1.43,5.97-.29"/>
  <path class="cls-1" d="M162.15,208.93c1.56-1.71,1.43-4.38-.29-5.97-1.71-1.56-4.38-1.43-5.97.29-1.56,1.71-1.43,4.38.29,5.97,1.71,1.56,4.38,1.43,5.97-.29"/>
  <path class="cls-1" d="M182.53,208.61c1.56-1.71,1.43-4.38-.29-5.97-1.71-1.56-4.38-1.43-5.97.29-1.56,1.71-1.43,4.38.29,5.97,1.71,1.56,4.38,1.43,5.97-.29"/>
  <path class="cls-1" d="M262.95,244.44c-.25-1.81-1.11-3.24-2.57-4.35-1.46-1.08-3.08-1.49-4.89-1.27l-.92.13,1.84,13.01.92-.13c1.81-.25,3.24-1.11,4.35-2.57,1.11-1.46,1.52-3.08,1.27-4.86M264.53,244.22c.32,2.22-.22,4.25-1.56,6.06-1.36,1.81-3.14,2.89-5.4,3.21l-2.51.35-2.32-16.25,2.51-.35c2.22-.32,4.25.22,6.06,1.56,1.81,1.36,2.89,3.17,3.21,5.43"/>
  <path class="cls-1" d="M323.06,240.7c-2.16,2.86-5.05,4.57-8.63,5.08s-6.82-.32-9.71-2.48-4.57-5.01-5.08-8.57.32-6.79,2.48-9.68c2.16-2.89,5.05-4.57,8.63-5.08s6.82.32,9.71,2.51l-1.52,2.03c-2.32-1.75-4.92-2.41-7.84-2-2.86.41-5.17,1.78-6.92,4.09s-2.41,4.92-2,7.78c.41,2.86,1.78,5.14,4.09,6.89,2.32,1.75,4.92,2.41,7.78,2,2.89-.41,5.2-1.78,6.95-4.09l2.03,1.56.03-.03Z"/>
  <path class="cls-1" d="M347.52,234.32c.25,1.81-.16,3.46-1.3,4.95-1.11,1.46-2.57,2.35-4.41,2.6-1.81.25-3.46-.16-4.92-1.27-1.46-1.11-2.32-2.57-2.6-4.38l-2.67-18.66,2.44-.35,2.63,18.66c.16,1.14.7,2.06,1.62,2.76.92.7,1.97.95,3.11.79s2.06-.7,2.79-1.65c.7-.92.98-1.97.83-3.11l-2.63-18.66,2.44-.35s2.67,18.66,2.67,18.66Z"/>
  <path class="cls-1" d="M419.79,224c.25,1.81-.16,3.46-1.3,4.92-1.11,1.46-2.57,2.32-4.41,2.6-1.81.25-3.46-.16-4.92-1.27-1.46-1.11-2.32-2.57-2.6-4.38l-2.67-18.63,2.44-.35,2.67,18.6c.16,1.14.7,2.06,1.62,2.73.92.7,1.97.95,3.11.79s2.06-.7,2.79-1.62c.7-.92.98-1.97.83-3.08l-2.63-18.6,2.44-.35,2.67,18.63h-.03Z"/>
  <path class="cls-1" d="M442.92,210.48c-.25-1.71-1.05-3.08-2.44-4.09-1.36-1.02-2.92-1.43-4.63-1.17l-1.4.19,1.75,12.31,1.36-.19c1.71-.25,3.08-1.05,4.13-2.41,1.05-1.36,1.43-2.92,1.21-4.63M447.87,226.45l-3.33.48-7.97-6.7,1.08,7.68-2.44.35-3.55-24.94,3.84-.54c2.38-.35,4.54.22,6.47,1.68,1.94,1.46,3.05,3.36,3.4,5.78.29,2.03-.1,3.9-1.14,5.68s-2.51,3.01-4.44,3.71l8.09,6.85v-.03Z"/>
</svg>