<?xml version="1.0" encoding="UTF-8"?>
<svg id="Layer_1" data-name="Layer 1" xmlns="http://www.w3.org/2000/svg" viewBox="0 0 600 368">
  <defs>
    <style>
      .cls-1 {
        fill: #1d1d1b;
      }
    </style>
  </defs>
  <polygon class="cls-1" points="184.3 162.72 198.71 162.72 212.25 187.57 212.25 162.72 225.76 162.72 225.76 209.05 211.83 209.05 197.63 183.74 197.63 209.05 184.3 209.05 184.3 162.72"/>
  <polygon class="cls-1" points="285.21 162.72 299.55 162.72 299.55 197.14 320.05 197.14 320.05 209.05 285.28 209.05 285.21 162.72"/>
  <polygon class="cls-1" points="432.23 174.62 418.97 174.62 418.97 162.76 459.28 162.76 459.28 174.62 446.26 174.62 446.26 209.05 432.23 209.05 432.23 174.62"/>
  <path class="cls-1" d="M472.54,162.51h13.96l16.88,46.36h-15l-1.57-6.65h-15l-2.05,6.65h-14.2l17.02-46.36h-.03ZM483.78,192.55l-4.14-14.41-4.52,14.27s8.67.14,8.67.14Z"/>
  <polygon class="cls-1" points="506.75 162.72 521.37 162.72 534.81 187.57 534.81 162.72 548.31 162.72 548.31 209.05 534.46 209.05 520.22 183.74 520.22 209.05 506.75 209.05 506.75 162.72"/>
  <path class="cls-1" d="M56.7,114.2v138.01c2.51.45,5.01.87,7.45,1.11V113.05c-2.51.21-4.98.59-7.45,1.11"/>
  <path class="cls-1" d="M41.84,118.79v129.38c2.44,1.04,4.94,1.98,7.45,2.75V116.04c-2.54.77-5.01,1.71-7.45,2.75"/>
  <path class="cls-1" d="M0,183.12c-.1,25.06,12.95,48.35,34.32,61.36v-122.38C13.05,135.08,0,158.2,0,183.12"/>
  <path class="cls-1" d="M72.36,113.05h-.7v141.87h.7c39.16,1.04,71.77-29.86,72.82-69.06,1.04-39.19-29.86-71.77-69.06-72.82h-3.76Z"/>
  <path class="cls-1" d="M255.73,161.57c12.57-.42,23.11,9.43,23.53,22h0v2.26c.59,12.98-9.43,23.98-22.42,24.57-12.98.59-23.98-9.43-24.57-22.42v-2.16c-.77-12.53,8.7-23.36,21.23-24.23h2.26M255.73,198.61c3.62,0,9.15-2.4,9.15-12.7s-5.57-12.77-9.15-12.77-9.26,2.4-9.26,12.7,5.57,12.7,9.26,12.7"/>
  <path class="cls-1" d="M346.99,161.57c12.57-.35,23.04,9.5,23.42,22.07v2.26c.59,12.98-9.43,23.98-22.42,24.57-12.98.59-23.98-9.43-24.57-22.42-.03-.73-.03-1.46,0-2.16-.8-12.6,8.74-23.46,21.34-24.26h2.26M346.99,198.61c3.62,0,9.22-2.4,9.22-12.7s-5.81-12.77-9.22-12.77-9.15,2.4-9.15,12.7,5.5,12.7,9.15,12.7"/>
  <path class="cls-1" d="M389.14,193.49c0,1.01.21,2.05.56,2.99,1.32,2.44,4.04,3.79,6.82,3.41,2.37,0,5.92-.77,5.92-4.21,0-2.4-1.95-3.06-10.02-5.36-8.08-2.3-15.73-4.07-15.73-13.4,0-10.72,9.15-15.31,18.73-15.31s18.93,3.79,19.32,15.04h-13.51c.24-1.46-.42-2.92-1.71-3.69-1.18-.84-2.61-1.29-4.07-1.29-1.98,0-5.01.49-5.01,3.1s6.89,4,13.47,5.85c6.54,1.84,13.02,5.01,13.02,13.37,0,12.08-11.07,15.98-21.37,15.98-5.12,0-20.12-1.74-20.43-16.78l14.03.35v-.03Z"/>
  <path class="cls-1" d="M555.62,162.72h23.46c15.42,0,20.92,11.45,20.92,23.11,0,14.2-7.55,23.22-23.74,23.22h-20.68v-46.36l.03.03ZM570.14,197.14h5.5c8.91,0,10.02-7.21,10.02-11.52.59-5.5-3.38-10.44-8.88-11.03-.17,0-.31,0-.49-.03-.63-.07-1.25-.07-1.84,0h-4.56l.24,22.59h0Z"/>
</svg>