<?xml version="1.0" encoding="UTF-8"?>
<svg id="Layer_1" data-name="Layer 1" xmlns="http://www.w3.org/2000/svg" viewBox="0 0 600 368">
  <defs>
    <style>
      .cls-1 {
        fill: #ffffff;
      }
    </style>
  </defs>
  <path class="cls-1" d="M96.29,250.22c5.36,0,9.21-3.83,9.21-9.18s-3.88-9.16-9.21-9.16h-4.88v18.37h4.88v-.03ZM88.91,230.27c0-.33.28-.61.58-.61h7.3c6.3,0,11.43,5.13,11.43,11.38s-5.16,11.43-11.43,11.43h-7.3c-.33,0-.58-.28-.58-.61v-21.59Z"/>
  <path class="cls-1" d="M114.55,229.63h1.3c.33,0,.64.28.64.64v21.59c0,.33-.28.61-.61.61h-1.3c-.33,0-.61-.28-.61-.61v-21.59c0-.33.28-.61.61-.61l-.03-.03Z"/>
  <path class="cls-1" d="M479.45,229.91c0-.33.31-.58.61-.58h.8l14.71,18.31h.06v-17.37c0-.33.25-.61.61-.61h1.14c.33,0,.61.31.61.61v21.95c0,.33-.31.58-.61.58h-.58l-14.96-18.67h-.03v17.73c0,.33-.28.61-.64.61h-1.14c-.33,0-.61-.31-.61-.61v-21.95h.03Z"/>
  <path class="cls-1" d="M497.21,116.42c5.47,0,9.96-4.47,9.96-9.91s-4.49-9.99-9.96-9.99-9.91,4.55-9.91,9.99,4.47,9.91,9.91,9.91M497.21,90.9c8.66,0,15.57,6.96,15.57,15.62s-6.94,15.54-15.57,15.54-15.54-6.88-15.54-15.54,6.88-15.62,15.54-15.62"/>
  <path class="cls-1" d="M492.82,162.62l1.17-1c.47-.33.83-.25,1.17.22.39.47,2.72,3,6.44,3,3.27,0,6.22-2,6.22-5.41,0-2.94-2.3-5.66-7.66-5.66h-2.44c-.47,0-.8-.25-.8-.94v-1.03c0-.69.22-.94.92-.94h2.39c4.63,0,6.88-2.39,6.88-5.24,0-3.41-2.61-5.49-5.66-5.49s-4.72,1.72-5.66,2.8c-.25.31-.69.47-1.11.08l-1.03-.83c-.33-.31-.31-.83,0-1.14,0,0,3.11-3.8,7.82-3.8,5.24,0,8.91,3.08,8.91,7.91,0,3.33-2.5,5.94-4.47,6.83v.14c2.03.86,5.19,3.3,5.19,7.02,0,4.72-3.63,8.41-9.6,8.41-5.33,0-7.74-2.77-8.71-3.86-.25-.31-.31-.78.06-1.05"/>
  <rect class="cls-1" x="114.59" y="179.95" width="7.88" height="3.05" transform="translate(-97.97 170.86) rotate(-54.04)"/>
  <rect class="cls-1" x="106.86" y="173.36" width="7.88" height="3.05" transform="translate(-91.21 129.57) rotate(-45)"/>
  <rect class="cls-1" x="100.28" y="165.64" width="7.88" height="3.05" transform="translate(-78.35 93.18) rotate(-36)"/>
  <rect class="cls-1" x="95" y="156.97" width="7.88" height="3.05" transform="translate(-61.19 62.22) rotate(-27.01)"/>
  <rect class="cls-1" x="91.1" y="147.62" width="7.85" height="3.05" transform="translate(-41.48 36.71) rotate(-18.02)"/>
  <rect class="cls-1" x="88.71" y="137.74" width="7.85" height="3.05" transform="translate(-20.67 16.23) rotate(-9.01)"/>
  <rect class="cls-1" x="87.94" y="127.63" width="7.85" height="3.05"/>
  <rect class="cls-1" x="91.12" y="115.11" width="3.05" height="7.88" transform="translate(-39.44 191.91) rotate(-80.99)"/>
  <rect class="cls-1" x="93.51" y="105.23" width="3.05" height="7.88" transform="translate(-38.2 165.73) rotate(-71.96)"/>
  <rect class="cls-1" x="97.4" y="95.88" width="3.05" height="7.88" transform="translate(-34.93 142.62) rotate(-62.99)"/>
  <rect class="cls-1" x="102.69" y="87.19" width="3.05" height="7.88" transform="translate(-30.76 121.88) rotate(-54)"/>
  <rect class="cls-1" x="109.29" y="79.47" width="3.05" height="7.88" transform="translate(-26.52 102.79) rotate(-45)"/>
  <rect class="cls-1" x="116.98" y="72.88" width="3.05" height="7.88" transform="translate(-22.52 84.33) rotate(-36)"/>
  <path class="cls-1" d="M131.45,241.78c2.66,0,4.97-2.19,4.97-4.99,0-2.64-2.28-4.66-4.97-4.66h-5.19v9.66h5.19ZM123.79,230.27c0-.33.28-.61.64-.61h7.21c4,0,7.3,3.27,7.3,7.21s-3.3,7.33-7.27,7.33h-5.38v7.66c0,.33-.31.61-.61.61h-1.25c-.36,0-.64-.28-.64-.61v-21.59Z"/>
  <path class="cls-1" d="M155.25,244.7c-1.61-3.55-3.16-7.13-4.74-10.68h-.25l-4.74,10.68h9.77-.03ZM139.77,251.61l9.91-21.95c.11-.19.28-.36.55-.36h.33c.31,0,.47.17.55.36l9.85,21.95c.19.42-.06.86-.55.86h-1.3c-.31,0-.5-.19-.55-.36l-2.41-5.38h-11.57l-2.39,5.38c-.06.17-.25.36-.55.36h-1.3c-.5,0-.75-.42-.55-.86"/>
  <path class="cls-1" d="M174.09,241.39c2.5,0,4.69-2.08,4.69-4.77,0-2.47-2.19-4.61-4.69-4.61h-6.33v9.35h6.33v.03ZM165.19,230.27c0-.33.25-.61.61-.61h8.44c3.91,0,7.1,3.08,7.1,6.94,0,3-2,5.52-4.83,6.66l4.47,8.27c.22.42,0,.94-.55.94h-1.66c-.28,0-.44-.17-.53-.28l-4.33-8.63h-6.22v8.32c0,.33-.31.61-.61.61h-1.28c-.36,0-.61-.28-.61-.61v-21.61Z"/>
  <path class="cls-1" d="M190.63,231.82h-5.66c-.36,0-.61-.31-.61-.61v-.94c0-.33.25-.61.61-.61h13.82c.36,0,.61.31.61.61v.94c0,.33-.25.61-.61.61h-5.66v20.01c0,.33-.31.61-.61.61h-1.25c-.33,0-.61-.31-.61-.61v-20.01h-.03Z"/>
  <path class="cls-1" d="M204.25,229.63h1.3c.33,0,.61.28.61.61v21.59c0,.33-.28.61-.61.61h-1.3c-.33,0-.61-.28-.61-.61v-21.59c0-.33.28-.61.61-.61Z"/>
  <path class="cls-1" d="M216.07,229.77c.08-.25.33-.44.58-.44h.53c.22,0,.47.17.55.36l6.47,17.95h.17l6.35-17.95c.06-.19.33-.36.55-.36h.53c.25,0,.53.19.58.44l4.22,21.92c.08.44-.11.78-.58.78h-1.3c-.25,0-.53-.22-.58-.44l-2.89-16.79h-.14l-5.99,17.2c-.06.19-.36.36-.55.36h-.58c-.19,0-.47-.17-.55-.36l-6.08-17.2h-.11l-2.83,16.79c-.03.22-.33.44-.58.44h-1.3c-.47,0-.69-.33-.58-.78l4.22-21.92h-.08Z"/>
  <path class="cls-1" d="M242.27,230.27c0-.33.25-.61.61-.61h12.85c.36,0,.61.31.61.61v.94c0,.33-.25.61-.61.61h-10.96v7.96h9.35c.33,0,.61.28.61.61v.94c0,.36-.31.61-.61.61h-9.35v8.32h10.96c.36,0,.61.31.61.61v.94c0,.33-.25.61-.61.61h-12.85c-.36,0-.61-.28-.61-.61v-21.59.03Z"/>
  <path class="cls-1" d="M262.22,229.91c0-.33.31-.58.61-.58h.8l14.71,18.31h.06v-17.37c0-.33.25-.61.61-.61h1.14c.33,0,.61.31.61.61v21.95c0,.33-.31.58-.61.58h-.58l-14.96-18.67h-.03v17.73c0,.33-.25.61-.61.61h-1.14c-.33,0-.61-.31-.61-.61,0,0,0-21.95,0-21.95Z"/>
  <path class="cls-1" d="M291.35,231.82h-5.66c-.36,0-.61-.31-.61-.61v-.94c0-.33.28-.61.61-.61h13.82c.36,0,.64.31.64.61v.94c0,.33-.28.61-.64.61h-5.66v20.01c0,.33-.28.61-.61.61h-1.25c-.33,0-.61-.31-.61-.61v-20.01h-.03Z"/>
  <path class="cls-1" d="M314.02,250.5c5.19,0,9.46-4.25,9.46-9.43s-4.27-9.49-9.46-9.49-9.41,4.3-9.41,9.49,4.25,9.43,9.41,9.43M314.02,229.32c6.52,0,11.74,5.24,11.74,11.76s-5.22,11.71-11.74,11.71-11.71-5.19-11.71-11.71,5.19-11.76,11.71-11.76"/>
  <path class="cls-1" d="M346.68,250.22c5.36,0,9.24-3.83,9.24-9.18s-3.88-9.16-9.24-9.16h-4.88v18.37h4.88v-.03ZM339.3,230.27c0-.33.25-.61.58-.61h7.3c6.3,0,11.43,5.13,11.43,11.38s-5.16,11.43-11.43,11.43h-7.3c-.33,0-.58-.28-.58-.61v-21.59Z"/>
  <path class="cls-1" d="M364.94,229.63h1.3c.33,0,.61.28.61.61v21.59c0,.33-.28.61-.61.61h-1.3c-.33,0-.61-.28-.61-.61v-21.59c0-.33.28-.61.61-.61Z"/>
  <path class="cls-1" d="M389.44,250.22c5.36,0,9.24-3.83,9.24-9.18s-3.88-9.16-9.24-9.16h-4.88v18.37h4.88v-.03ZM382.06,230.27c0-.33.25-.61.58-.61h7.3c6.3,0,11.43,5.13,11.43,11.38s-5.16,11.43-11.43,11.43h-7.3c-.33,0-.58-.28-.58-.61v-21.59Z"/>
  <path class="cls-1" d="M407.08,230.27c0-.33.25-.61.61-.61h12.85c.36,0,.61.31.61.61v.94c0,.33-.25.61-.61.61h-10.96v7.96h9.35c.33,0,.64.28.64.61v.94c0,.36-.31.61-.64.61h-9.35v8.32h10.96c.36,0,.61.31.61.61v.94c0,.33-.25.61-.61.61h-12.85c-.36,0-.61-.28-.61-.61v-21.59.03Z"/>
  <path class="cls-1" d="M425.56,249.05c.17-.19.33-.42.5-.61.33-.42.69-.69,1.14-.28.22.19,2.61,2.47,5.52,2.47,2.64,0,4.36-1.66,4.36-3.58,0-2.25-1.94-3.58-5.72-5.16-3.58-1.55-5.74-3.02-5.74-6.74,0-2.22,1.75-5.8,6.94-5.8,3.19,0,5.58,1.66,5.58,1.66.19.11.58.5.19,1.11-.14.19-.25.42-.39.61-.31.44-.61.58-1.14.31-.22-.14-2.28-1.5-4.27-1.5-3.47,0-4.5,2.22-4.5,3.58,0,2.19,1.66,3.44,4.41,4.61,4.41,1.8,7.24,3.47,7.24,7.24,0,3.39-3.22,5.85-7.05,5.85s-6.47-2.25-6.88-2.64c-.25-.22-.58-.5-.19-1.11"/>
  <path class="cls-1" d="M445.71,229.63h1.3c.33,0,.61.28.61.61v21.59c0,.33-.28.61-.61.61h-1.3c-.33,0-.61-.28-.61-.61v-21.59c0-.33.28-.61.61-.61Z"/>
  <path class="cls-1" d="M465.05,229.32c3.3,0,5.66,1.14,7.88,3.02.25.25.31.64.03.92-.28.31-.64.61-.92.92-.31.33-.5.31-.86-.03-1.66-1.47-4-2.55-6.19-2.55-5.13,0-9.07,4.3-9.07,9.35s3.91,9.43,9.07,9.43c3.58,0,5.88-1.36,5.88-1.36v-4.58h-3.75c-.36,0-.61-.25-.61-.58v-1.19c0-.36.25-.61.61-.61h5.63c.33,0,.58.31.58.61v7.46c0,.17-.14.42-.25.53,0,0-3.33,2.16-8.05,2.16-6.52,0-11.76-5.19-11.76-11.71s5.24-11.76,11.76-11.76"/>
  <path class="cls-1" d="M512.8,213.68h0c0,.39-.33.72-.72.72H88.63c-.39,0-.72-.33-.72-.72s.31-.72.72-.72h423.42c.39,0,.72.31.72.72"/>
  <path class="cls-1" d="M250.12,105.35c2.41,0,4.47-1.94,4.47-4.5,0-2.39-2.03-4.19-4.47-4.19h-5.02v8.68h5.02ZM239.49,92.14c0-.44.33-.83.83-.83h10.16c5.33,0,9.68,4.33,9.68,9.57s-4.38,9.74-9.66,9.74h-5.41v10.18c0,.44-.39.83-.83.83h-3.97c-.47,0-.83-.39-.83-.83v-28.63l.03-.03Z"/>
  <path class="cls-1" d="M278.03,116.42c5.47,0,9.96-4.47,9.96-9.91s-4.5-9.99-9.96-9.99-9.91,4.55-9.91,9.99,4.47,9.91,9.91,9.91M278.03,90.9c8.66,0,15.57,6.96,15.57,15.62s-6.91,15.54-15.57,15.54-15.54-6.88-15.54-15.54,6.88-15.62,15.54-15.62"/>
  <path class="cls-1" d="M298.84,92.14c0-.44.33-.83.83-.83h3.97c.44,0,.83.39.83.83v24.28h11.04c.47,0,.83.39.83.83v3.55c0,.44-.33.83-.83.83h-15.84c-.47,0-.83-.39-.83-.83v-28.66Z"/>
  <path class="cls-1" d="M321.1,91.34h4.02c.44,0,.83.36.83.83v28.63c0,.44-.36.83-.83.83h-4.02c-.44,0-.8-.36-.8-.8v-28.66c0-.44.36-.83.83-.83h-.03Z"/>
  <path class="cls-1" d="M337.44,96.53h-6.63c-.47,0-.83-.39-.83-.83v-3.55c0-.44.33-.83.83-.83h18.92c.47,0,.83.39.83.83v3.55c0,.44-.33.83-.83.83h-6.63v24.28c0,.44-.39.83-.83.83h-4.02c-.44,0-.83-.39-.83-.83v-24.28h.03Z"/>
  <path class="cls-1" d="M354.64,92.14c0-.44.33-.83.83-.83h17.62c.47,0,.83.39.83.83v3.55c0,.44-.33.83-.83.83h-12.82v7.1h10.68c.44,0,.83.39.83.83v3.58c0,.47-.39.83-.83.83h-10.68v7.57h12.82c.47,0,.83.39.83.83v3.55c0,.44-.33.83-.83.83h-17.62c-.47,0-.83-.39-.83-.83v-28.69Z"/>
  <path class="cls-1" d="M392.93,90.9c4.38,0,7.52,1.39,10.46,4.02.39.33.39.86.06,1.22l-2.64,2.72c-.31.33-.75.33-1.08,0-1.8-1.61-4.25-2.55-6.66-2.55-5.55,0-9.66,4.63-9.66,10.07s4.16,9.99,9.68,9.99c2.61,0,4.8-1,6.63-2.47.33-.31.83-.25,1.08,0l2.69,2.77c.33.31.25.86-.06,1.17-2.94,2.86-6.66,4.19-10.52,4.19-8.66,0-15.62-6.88-15.62-15.54s6.96-15.62,15.62-15.62"/>
  <path class="cls-1" d="M408.67,91.67c0-.44.39-.78.83-.78h1.08l18.01,19.12h.06v-17.87c0-.44.33-.83.83-.83h3.97c.42,0,.8.39.8.83v29.13c0,.44-.39.78-.8.78h-1.05l-18.09-19.87h-.03v18.62c0,.44-.33.83-.83.83h-3.94c-.44,0-.83-.39-.83-.83v-29.13Z"/>
  <path class="cls-1" d="M442.52,91.34h4.02c.44,0,.83.36.83.83v28.63c0,.44-.36.83-.83.83h-4.02c-.44,0-.83-.36-.83-.83v-28.63c0-.44.36-.83.83-.83Z"/>
  <path class="cls-1" d="M468.21,90.9c4.38,0,7.52,1.39,10.46,4.02.39.33.39.86.06,1.22l-2.64,2.72c-.31.33-.75.33-1.08,0-1.83-1.61-4.25-2.55-6.66-2.55-5.55,0-9.66,4.63-9.66,10.07s4.16,9.99,9.68,9.99c2.58,0,4.8-1,6.63-2.47.33-.31.83-.25,1.08,0l2.69,2.77c.33.31.25.86-.06,1.17-2.94,2.86-6.66,4.19-10.52,4.19-8.66,0-15.62-6.88-15.62-15.54s6.96-15.62,15.62-15.62"/>
  <path class="cls-1" d="M243.79,136.98c.08-.33.44-.61.78-.61h.69c.31,0,.64.22.75.47l8.57,23.83h.22l8.44-23.83c.08-.25.44-.47.75-.47h.69c.33,0,.69.25.78.61l5.58,29.08c.14.61-.14,1.03-.78,1.03h-1.72c-.33,0-.69-.31-.78-.61l-3.86-22.28h-.17l-7.96,22.84c-.08.25-.47.47-.75.47h-.78c-.25,0-.64-.22-.72-.47l-8.05-22.84h-.17l-3.77,22.28c-.03.31-.44.61-.78.61h-1.72c-.64,0-.92-.44-.78-1.03l5.58-29.08h-.06Z"/>
  <path class="cls-1" d="M279.81,136.79h1.72c.44,0,.83.36.83.83v28.63c0,.44-.36.83-.83.83h-1.72c-.44,0-.83-.36-.83-.83v-28.63c0-.44.36-.83.83-.83Z"/>
  <path class="cls-1" d="M292.46,137.62c0-.44.33-.83.83-.83h1.69c.44,0,.83.39.83.83v26.58h12.46c.47,0,.83.39.83.83v1.25c0,.44-.33.83-.83.83h-14.98c-.47,0-.83-.39-.83-.83v-28.66Z"/>
  <path class="cls-1" d="M332.75,156.79c-2.11-4.72-4.19-9.49-6.33-14.21h-.33l-6.33,14.21h12.99ZM312.22,165.98l13.15-29.11c.14-.25.33-.47.72-.47h.44c.39,0,.61.22.75.47l13.07,29.11c.25.55-.08,1.14-.72,1.14h-1.72c-.39,0-.64-.25-.75-.47l-3.19-7.13h-15.37l-3.16,7.13c-.08.22-.33.47-.75.47h-1.72c-.64,0-1-.55-.75-1.14"/>
  <path class="cls-1" d="M346.35,137.15c0-.44.39-.78.83-.78h1.08l19.51,24.31h.08v-23.06c0-.44.33-.83.83-.83h1.53c.44,0,.83.39.83.83v29.11c0,.44-.39.78-.83.78h-.78l-19.87-24.78h-.06v23.53c0,.44-.33.83-.83.83h-1.5c-.44,0-.83-.39-.83-.83,0,0,0-29.11,0-29.11Z"/>
  <path class="cls-1" d="M394.46,164.48c6.88,0,12.54-5.63,12.54-12.51s-5.66-12.6-12.54-12.6-12.51,5.72-12.51,12.6,5.63,12.51,12.51,12.51M394.46,136.37c8.66,0,15.57,6.96,15.57,15.62s-6.91,15.54-15.57,15.54-15.54-6.88-15.54-15.54,6.88-15.62,15.54-15.62"/>
  <path class="cls-1" d="M430.89,143.03l-3.11,2.41c-.33.25-.69.31-1-.06l-.83-.92c-.31-.33-.14-.75.08-.94l6.05-5.88h1.17c.44,0,.78.39.78.83v27.77c0,.44-.33.83-.78.83h-1.55c-.47,0-.83-.39-.83-.83v-23.25l.03.03Z"/>
  <path class="cls-1" d="M458.03,145.28c0-3.25-2.52-5.47-5.94-5.47-3.11,0-5.58,2.22-5.58,5.47,0,2.69,1.72,4.77,5.74,5.16,3.97-.39,5.74-2.47,5.74-5.16M452.2,164.92c3.72,0,6.58-2.03,6.58-5.47,0-2.69-2.39-5.41-6.49-5.85-4.16.44-6.49,3.16-6.49,5.85,0,3.33,3,5.47,6.41,5.47M447.76,151.94v-.14c-1.94-.92-4.47-3.33-4.47-6.66,0-4.77,3.77-7.91,8.91-7.91s8.99,3.16,8.99,7.91c0,3.33-2.5,5.74-4.47,6.66v.14c2.03.86,5.24,3.5,5.24,7.21,0,4.72-3.69,8.35-9.82,8.35s-9.66-3.63-9.66-8.35c0-3.72,3.19-6.35,5.24-7.21"/>
  <path class="cls-1" d="M484.8,157.79c0-3.77-2.89-6.74-6.52-6.74-4.02,0-6.83,2.8-6.83,2.8-.75,4.33.94,10.82,6.88,10.82,3.63,0,6.49-3.16,6.49-6.88M482.47,136.68c.44-.17.78.06.94.44l.47,1.05c.22.53.06,1-.78,1.25-1.94.64-9.6,4.94-11.13,10.77,0,0,2.86-1.94,6.58-1.94,4.88,0,9.3,3.63,9.3,9.38s-4.36,9.91-9.54,9.91c-7.02,0-10.07-5.47-10.07-12.32,0-11.51,9.85-16.79,14.23-18.51"/>
  <path class="cls-1" d="M200.31,158.96h-.08s-4.97-.89-5.41-9.02c1.72,1.86,3,3.16,3,3.19.06.06.14.08.22.08s.14,0,.22-.08c.11-.11.11-.31,0-.42,0,0-3.58-3.72-6.85-7.41,0-.03-.06-.03-.11-.06.94-2.36,1.64-4.83,1.64-7.05v-.64c1.03-.64,2.3-.75,3.05-.75.42,0,.64.03.64.03.17,0,.31-.08.33-.25,0-.17-.11-.33-.25-.33h0s-.28-.03-.72-.03c-.86,0-2.33.11-3.58.97-.39.25-.75.61-1.05,1.03-1,1.42-5.41,5.11-8.3,7.41-.97.78-1.78,1.42-2.22,1.78-.08.06-.17.17-.28.28-.06.06-.14.11-.22.22.47-4,2.61-16.98,11.46-27.52.33.06.64.08,1,.08h.44l-2.22,8.66c-.03.17.06.33.22.36.17.06.33-.06.36-.22l2.28-8.91h0c.64-.14,1.25-.39,1.83-.8.8-.55,3.55-1.91,4.38-3.36l2.55-2.08s.53-.47,1.08-1.17c1.11,2.91,1.86,6.94,2.47,12.4.22,1.91.31,3.8.31,5.6,0,6.71-1.28,12.54-2.19,16.18-.14-3.55-.72-9.63-.72-13.85,0-1.33.06-2.47.19-3.27.25-1.47.33-2.86.33-4.08,0-2.44-.33-4.19-.33-4.22-.03-.17-.19-.28-.36-.25s-.28.19-.25.36c0,0,.33,1.69.33,4.11,0,1.19-.08,2.55-.33,3.97-.14.86-.19,2.03-.19,3.39,0,4.88.75,12.18.75,15.23,0,.42,0,.75-.06,1v.03h0c-.19.78-.28,1.64-.28,2.5.03,2.66.75,5.36,1.89,6.52-1.11.11-3.14.31-5.02.42M197.93,159.04h-.61c-1.14-.03-1.25,0-2.5-.08-.61,0-1.22-.06-1.83-.08h-.06c-1.94-.44-4.55-3.36-4.55-3.36-.11-.14-.31-.14-.42,0-.14.11-.14.31,0,.42h0s1.61,1.83,3.39,2.89c-.92-.06-1.78-.08-2.52-.14-.83-.06-1.55-.11-2.08-.17-.25-.03-.47-.06-.61-.08-.08,0-.14,0-.17-.03h0s-.08-.03-.14-.06c-.11-.5-.19-1.14-.19-1.72,0-.47.08-.92.22-1.19.36-.78,3.27-4.91,5.27-9.6,1.08,1.22,2.16,2.41,3.16,3.5,0,.06-.06.08-.06.17.14,6.22,2.97,8.66,4.66,9.57h-.92M186.8,161.76h0c.06.31-.72,1.11-1,1.25-.22.17-.89.42-1.28.67-.08.06-.28.08-.5.08s-.44,0-.67-.03c-.36,0-1.28-.33-1.28-.33h-.17s-.67.14-1.22.14h-.31c-.33,0-.44-.5-.53-1.44v-.17c0-.22.03-.44.08-.67.14-.5.39-1,.53-1.3.22-.53.69-2.16.69-2.94h0l-.25-.03h.25c0-.53.47-1.86,1.17-3.52.72-1.78,1.3-7.41,1.3-7.44v-.11c2.91-2.36,7.1-5.83,8.21-7.38.14-.22.31-.39.5-.55v.19c0,6.63-6.44,15.68-7.08,16.95-.22.42-.28.94-.28,1.47,0,.78.17,1.61.28,2.16.08.36.17.61.17.61.06.08,1.42,2.11,1.36,2.41M180.17,149.25s.89-1.3,1.05-1.42c.39-.31,1.03-.8,1.8-1.44-.11.92-.36,3.02-.69,4.74-.03,0-.06-.06-.08-.06-1.78-.55-2.14-1.17-2.14-1.64v-.17h0M177.81,154.35l-.64-2.33c-.53-1.36-.72-2.55-.72-3.58,0-2.11.75-3.55,1-4.16.31-.83,2.25-4.58,2.25-4.58l1.17-2.52.19-.78c.03-.17.08-.36.14-.61.33-1.33.72-3.66.78-4.61v-.17c0-1.03-.42-2.83-.72-3.66-.17-.42-.22-.75-.22-1.08,0-.28.03-.55.08-.86.08-.55.8-3.36.97-4.16l3.69-.19s1.25-.14,2.11-.67c.14-.08.19-.28.11-.42s-.28-.19-.42-.11c-.69.44-1.86.58-1.86.58l-5.49.28c-.17,0-.31.14-.28.31,0,.17.14.28.31.28h0l1.19-.06c-.19.89-.86,3.41-.94,4.05-.03.31-.08.61-.08.94,0,.39.06.83.25,1.3.28.72.69,2.58.69,3.44v.17c-.06.8-.47,3.16-.78,4.47-.06.17-.08.31-.11.44-.42,0-1.5,0-3.11.17-1.64.14-3.8.42-6.24.94.67-1.5,1.14-2.94,1.14-4.25v-.36l1.86-4h0s.03-.17,0-.22c.44-.22.92-.47,1.25-.86.78-.89,2.8-4.25,2.83-4.27,0,0,0-.06.03-.08.19-.28.36-.55.55-.89,0,0,0-.06.06-.14,0,0,.06-.06.06-.08.06-.14.11-.31.17-.47.25-.61.64-1.5,1.05-2.3.06.03.67-.33.78-.39,2.25-.86,2.97-3.75,3-3.77v-.22c1.14,1.33,3.97,4.36,7.16,5.24-2.83,3.44-4.97,7.1-6.58,10.63-.11-1.14-.14-2.11-.14-2.72v-.89c0-.17-.11-.31-.28-.31s-.31.11-.31.28v.92c0,.8.03,2.14.22,3.77v.06c-3.97,9.18-4.47,17.15-4.47,17.18v.03c0,.11-.06.22-.06.33,0,.83.67,1.64,2.52,2.16h.14c-.14.67-.28,1.25-.44,1.61-.69,1.66-1.19,2.97-1.22,3.75v.03c0,.22-.08.64-.17,1.08-.03,0-.08-.03-.11-.06-1.14-.22-1.33-.28-2.47-3.72M175.7,143.17s-2.33,3.58-2.64,4c-.31.44-.31,1.11-.31,1.66v.61c0,.25-.19.97-.19.97-.03.11-.06.22-.06.33,0,.67.42,1.39.75,1.83.42.53.92.86,1.08,1.22v.08c.03.25-.42.83-.97,1.11-.31.17-1.08.25-1.94.25-.64,0-1.3-.03-1.86-.11-.8-.11-.86-.72-.89-1.11v-.19s.55-1.75.67-2.03c.08-.25.08-.61.08-1.03,0-.33,0-.67-.06-.92v-.06c0-.47.53-1.75,1.03-2.44.42-.61.47-1.58.47-2.36,0-.44,0-.8-.03-.97v-.5c0-1.36.03-4.88.06-5.6,2.44-.53,4.58-.83,6.24-1-.39,4.72-1.47,6.24-1.44,6.27M169.76,138.65c-2.14,3.91-5.22,7.52-5.44,8.16-.11.33-.19.67-.19,1.14,0,.61.11,1.42.44,2.8.08.31.11.61.11.86,0,.67-.19,1.22-.42,1.66v-.42c-.06-.17-.19-.28-.36-.28,0,0-1.17.08-1.83,1.08-.58.94-1.08,2.75-1.25,3.52-.08.39-.25.75-.36.97-.11-.11-.17-.33-.17-.5l-.22-4.08-.11-.22c-.19-.14-.31-.31-.42-.47,0,0,0-.03-.03-.06,0-.06,0-.11-.06-.17-.11-.28-.14-.64-.14-.97s.03-.69.06-1.03c0-.75.78-1.83,1.39-3.16.31-.64.8-2.25,1.25-3.83.55-1.89,1.08-3.72,1.08-3.72.28-2.3.67-3.97,1.08-5.16.89-2.58,1.78-3.08,2.03-3.3.44-.47.86-1.89.89-1.91h0l5.63-.67s.36-.08.75-.22l-1.75,3.72v.55c0,1.28-.5,2.83-1.28,4.44-.19.42-.42.8-.64,1.22M164.85,161.46h-.03l-1.66-4.5c-.06-.11-.14-.19-.28-.19-.11,0-.22.08-.28.19l-2.19,5.52h-.03l.55-3.88h0c.14-.28.36-.75.47-1.25.17-.72.67-2.55,1.19-3.33.28-.44.78-.64,1.08-.72l.08.78,1.11,7.41-.03-.03ZM161.14,162.32l1.72-4.38,1.36,3.69-3.08.72v-.03ZM165.69,164.81c.14-.03.25-.19.22-.33l-.39-2.58,1.44-.33,8.49,1.78-15.95,4.52-8.1-2.66,8.24-1.91-.5,2.61c-.03.17.06.31.22.36.14.03.31-.06.36-.19l1.14-3.08,3.55-.83.92,2.47c.06.14.19.22.36.19M176.42,165.48l-16.62,4.88v-1.94l16.62-4.72v1.78ZM159.19,170.28l-8.63-2.91v-1.8l8.63,2.83v1.89ZM161.83,138.76c-.17-.06-.33.06-.36.19-.03.17-.42.61-.47,1.39,0,.39-.36.39-.44.42-.14-.03-.19-.19-.22-.55,0-.31.06-.61.08-.8,0-.17-.11-.31-.28-.33-.17,0-.31.11-.33.28h0s-.08.5-.08.86c0,.31.06.72.36.97,0,.11-.06.44-.11.83-.06,0-.08.06-.11.11-.25.39-.69.53-1.11.53-.14,0-.25,0-.36-.03-.39-.06-1.22-.75-1.22-.75l-.92-.78s-.14-.11-.17-.17c.14-.03.42-.08.53-.53v-.11h.19c.06,0,.78.86.8.97.11.14.22.14.28.14.44-.06.92-.47,1.08-.55.33-.36.28-.78.31-1.08h0l-.31-.03h.31c0-.19.42-1.97.47-2.16.11-.28,0-.11.89-1.3.06-.03.25-.19,1.08-.97.47-.44.89-.55,1.19-.55.28,0,.44.08.58.17-.39,1.22-.75,2.86-1.03,4.99,0,0-.5,1.69-1.03,3.5l-.06.06-.61,1-.58.78c-.14.17-.17.17-.17.17,0,0-.06,0-.11-.14-.06-.11-.11-.22-.11-.22l-.11-.06h.08c0-.25.28-1.17.42-1.33.17-.28.22-.75.33-1.28.06-.39.11-.78.14-.97.28-.03.86-.22.92-.97.03-.61.31-.86.44-1.28.06-.17-.06-.33-.19-.36M158.69,150.69c0,.31-.03.67-.03,1.03,0,.19,0,.42.03.64-.28-.08-.53-.11-.78-.11-1.36,0-2.39,1-3.75,1.44-1.3.42-2.69.58-3.39.64.47-1.3,1.86-5.16,2.22-8.32,0,0,.19-1.94.39-4.63,0-.17-.11-.31-.28-.33-.17,0-.31.11-.33.28h0c-.19,2.66-.39,4.61-.39,4.61-.33,3.22-1.86,7.33-2.25,8.35-.72-.22-2.05-1.33-3.3-2.5v-.03s-.33-4.83-.33-6.99c0-.44,0-.78.03-.89h0c.8-2.22.83-3.55,1.11-4.61v-.06c.55-1.19.69-2.47.75-3.08v-.03c0-.33-.28-1.28-.28-1.3,0,0-.06-.22-.14-.55l.55-.47h0c.14.25.33.5.5.72.5.55,1.66,1.08,2.75,1.11.22,0,.44-.03.67-.08.55-.19.75-.55.78-.5.42-.11.72-.44.89-.44.42-.11.67-.5.78-.72h.28c.31,0,.89-.11.94-.69.03-.5.06-1.61.06-2.03.25-.19.78-.69.97-1.53.5-.03,1.39-.14,1.39-.14.92-.28,1.19-1.03,1.17-1.64,0-.36-.08-.72-.17-1-.25-.61-1-1.14-1.42-1.39.11-.22.14-.42.14-.61,0-.47-.28-.78-.39-.92-.25-.64-.8-.92-1.25-1.05l-.11-5.55c1.03-.28,2.03-.89,2.58-2.05l.11.08h.28c.22,0,.55-.03.89-.17.61-.25,1.14-.8,1.17-.8.31-.22.47-.53.5-.83l3.44,1.66c.06.22.08.42.08.55v.14c0,.08-.03.19-.03.25,0,.61.5.92.5.94.06.03.08.06.14.06v.17c0,.5.03,1.03.11,1.61,0,0,.14,1.05.78,2v.06s-.33.92-.53,1c-.39.33-1.69,1.94-1.75,3.44,0,.14,0,.28.06.42.31,1.33.97,3.61.97,3.61.03.14.17.22.33.22h.25c-.17.42-.5,1.28-.64,1.36-.19.17-1.19.83-2.05,3.22-.19-.08-.44-.17-.78-.19-.47,0-1.03.19-1.61.72-.72.67-.97.89-1.03.94-.03,0-.06.06-.08.08h0c-.28-.69-.39-1.3-.39-1.86-.03-2.91,3.3-4.3,3.3-4.3.17-.06.22-.25.17-.39-.06-.17-.25-.22-.39-.17h0s-1.05.42-2.03,1.3c-.06-.69-.11-1.94-.14-2.89.06-.14.55-1.72,1.25-3.39.67-1.72,1.66-3.55,2.11-3.66.14-.06.22-.25.17-.39-.06-.17-.22-.22-.39-.17-.97.47-2.05,2.91-2.8,4.88.28-1.42.69-3.33,1.08-5.08.03-.17-.08-.33-.22-.36s-.33.08-.36.22c-.64,2.94-1.36,6.3-1.42,7.05v.58c0,1.36.17,3.55.19,3.8-.61.75-1.11,1.72-1.11,2.97,0,.69.14,1.44.53,2.3,0,.03.06.08.08.11-.47.64-.47.67-.58.94-.11.36-.5,1.97-.53,2.36h0s0,.33-.06.47c0,.08-.03.14-.06.19h0s-.22.17-.39.28c-.08.06-.17.08-.22.14-.22-.31-.61-.89-1.05-1.05-.11,0-.25-.06-.39-.06-.17,0-.58.08-.58.47v.17c-.14.03-.44.11-.53.53,0,.28.19.44.44.67l.92.78s.8.72,1.5.89c.14.03.31.06.5.06.33,0,.69-.08,1.03-.25-.03.17-.08.28-.08.28-.22.36-.5,1.17-.5,1.66,0,.08,0,.19.08.33,0-.08.06.61.75.72.28,0,.47-.17.67-.42l.14-.17c-.28.83-.5,1.55-.67,1.86-.58,1.3-1.42,2.3-1.47,3.41M143.82,148.86c.72-.78,1.39-1.61,1.58-2.28.19-.36.36-.75.5-1.11.06,1.8.22,4.5.31,5.72-1.25-1.17-2.28-2.22-2.39-2.33M141.6,150.19c-.28-.94-.5-1.72-.53-1.97-.14-.89-1.05-2.83-1.36-3.47,2.16-.42,3.8-1.64,4.58-2.75h0c1.08-.17,1.89-.67,2.47-1.36-.17.89-.36,1.94-.92,3.41,0,0-.47,1.25-1,2.36-.25,1-2.47,3.08-3.25,3.8M142.66,155.49c.17.42.67,1.03.67,2.05,0,.17,0,.39-.06.61,0,.08-.03.19-.06.28-.06.22-.17.47-.28.72-1.08,2.16-1.17,4.16-5.91,4.19h-.64l-1.33-.11h-.06c-.28-.11-.5-.19-.64-.22-.64-.22-6.88-2.69-9.68-4.05-2.77-1.3-4.83-3.63-7.27-5.72-.06-.03-.08-.08-.14-.11-1.22-1.14-1.5-2.69-1.5-3.83,0-.36,0-.69.06-.94,1.11.94,3.22,2.11,5.74,2.28,1.22.08,2.47.19,3.66.19,1.53,0,2.97-.19,4.08-.97.19,1.8.5,3.3,1.33,4.05,0,0,.97.8,1.05.89.11.08.33.22.55.42.11.08.22.17.31.22s.08.08.08.08c.06.11.19.53.19.67-.11.08-.5.25-.67.5-.06.11-.11.28-.14.53,0,.19.08.5.36.67,0,0,.08.06.25.06s.33-.08.47-.25c.11-.14.28-.19.42-.22.22-.11.86-.25,1.17-.75l1,2.11.14.14s.28.14.58.17c.08,0,.19,0,.28-.08.11-.11.36-.25.36-.58,0-.08,0-.14-.03-.19-.08-.19-.33-1.08-.33-1.08l-.31-1.03.22.31.72,1.22s.31.44.78.47h.17c.19-.08.61-.25.61-.72,0-.14-.03-.28-.08-.42-.22-.5-.64-1.5-.64-1.5,0,0-.19-.42-.5-.86l.19.08,1.72,1.11.19.06s.33,0,.58-.28c.08-.11.08-.22.08-.31,0-.28-.14-.44-.28-.61-.11-.11-1.44-1.78-1.44-1.78-.06-.06-.61-.47-.97-.64,0,0-.19-.19-.19-.22-.17-.36-.83-.92-1-1.08-.22-.19-1.28-.86-1.8-1.03-.44-.06-1.17-.31-1.11-.47h0c.08-.55,1.3-3.5,1.3-3.5l.89-1.8s.11-.19.25-.53c.25.28,1.17,1.11,2.8,1.14.14.31,1.3,2.72,1.39,3.5.08.64.8,2.94,1.42,4.83.39,1.19.72,2.19.78,2.36M143.65,158.99c.22.31.64.89,1.08,1.61.22.39.33,1.05.33,1.75,0,.89-.14,1.78-.17,2.22-.03.58-.42.64-1.58,1.97-.44.53-1.25.72-2.11.72s-1.78-.19-2.36-.36c-1.19-.33-3.91-.92-5.47-1.08-1.42-.14-4.55-2-5.33-2.36-.67-.28-4.33-3.33-4.69-3.69-.55-.5-1.55-.67-2-.78h-.08c-.78.06-3.11,1.83-3.39,2-.25.17-.61.44-.78.86-.06.08-.06.22-.06.33,0,.28.14.47.22.67.22.47.72.47.83.53.17.06.44.17.69.25-.03.06-.08.14-.14.19-.06.08-.14.17-.19.22l-.06.06c-.39.25-.31.53-.31.69-.06.03-.22.11-.31.11h-.06s-.36-.03-.5-.03h-.08l-.61-.08h0c-.06-.06-.14-.14-.19-.19-.03-.03-.06-.08-.08-.08h0c-.14-.42-1.39-2.52-1.44-2.97h0v-.03h0c0-.53.94-2.91,1.42-3.91.53-1.17.53-2.39.58-3,0-.33.25-.64.39-.8,2.36,2.03,4.44,4.38,7.33,5.74,2.86,1.36,9.05,3.83,9.77,4.08.11.03.39.14.72.28,1.22.47,3.5,1.53,3.75,1.78.11.11.31.11.42,0,.11-.11.11-.31,0-.44-.33-.31-1.33-.78-2.33-1.22h.25c4.99.06,5.52-2.52,6.47-4.55.08-.14.14-.28.19-.44M114.91,144.78s-.06-.14-.11-.19c.55-.5,2.47-1.55,2.77-1.58h.03c.44,0,1.39,0,2.19.08.61.03,1.14.22,1.14.28.36.42.53,2.05.94,2.5.25.22,2.14,1.75,2.14,1.75.11.11.31.08.42-.03.11-.14.08-.33-.06-.42,0,0-1.89-1.55-2.11-1.72-.06.06-.42-1.8-.86-2.44-.31-.33-.8-.39-1.36-.47h-.03c-.31-.22-1.03-.97-1-1.66v-.06c0-.11,0-.19.03-.33.17-.75.75-1.72,1.5-2.55.25-.31.72-.67,1.22-.97.8-.53,1.69-.97,2.03-1.14,1.44,1.5,4.27,4.44,5.72,5.27h0c-.28,1.11-.44,2.36-.44,3.72v.53c.03,1.25.06,2.58.17,3.86-.94.83-2.39,1.05-4.02,1.05-1.14,0-2.39-.11-3.63-.19-2.64-.14-4.86-1.58-5.72-2.44-.08-.08-.17-.17-.19-.22-.61-.72-.8-2.55-.83-2.55M114.19,144.39s-.08.11-.17.17c-.44.42-1.42.97-1.69,1.14h0c-1.66-.03-1.89-.92-1.94-2.11,0-.83.19-1.69.25-2.25,0-.97,2-2.19,2.66-2.33h.31c.36,0,.89.06,1.39.14.58.08,1.11.17,1.3.19,0-.03.58.31,1.14.67.47.31.94.61,1.03.67v.22c0,.67.36,1.22.69,1.61h-1.5c-.75.06-2.86,1.3-3.44,1.97M111.16,138.29h0s-.39-.33-.61-.58c-.69-.75-1.5-.64-2.61-.72-.19-.06-.14,0-.19-.08-.03-.28.61-1.11.61-1.11.19-.25.33-.5.47-.75,1.08-1.94,1.3-4.72,1.3-7.55,0-2.11-.11-4.25-.14-6.08v-.11c0-4.44,2.64-6.19,2.64-6.22h0c1,.19,2.03.31,3.05.39-.55.75-1.66,2.47-1.66,4.88,0,3.11.86,7.71.86,8.74v.14c0,.5-.28,2.14-.64,3.69-.11.55-.33,1.53-.33,2.69,0,.86.11,1.8.5,2.8-.31-.03-.58-.06-.83-.06h-.33c-.25,0-.47.03-.67.03-.8,0-1.42-.14-1.42-.14M107.17,136.76c-.31-.06-.8-.17-1.22-.31-.36-.11-.75-.22-1-.33-.14-.06-.25-.11-.31-.14h0v-.06h0c.19-.19.67-.72.89-1.08.08-.14.11-.22.42-.86.42-.92,1.14-2.52,1.14-2.52.47-1.25.55-1.72.55-1.94v-.17l.69-8.68c.08-3.66,2.11-5.77,2.33-6.02.42.11.83.22,1.28.33-.8.75-2.47,2.75-2.47,6.38v.14c0,1.83.14,4,.14,6.08,0,2.8-.25,5.49-1.22,7.24-.14.22-.28.44-.42.67,0,0-.61.67-.72,1.33M104.17,135.46l-.03-.03-2-1.39c-.28-.25-.33-.47-.33-.64,0-.31.22-.55.19-.55,0,0,2.77-2.83,4.08-5.6.69-2.19.94-7.33.94-7.33.31-2.55.97-4,1.53-4.77.42-.58.75-.78.89-.86.17.06.31.11.47.17-.61.72-2.22,2.86-2.3,6.19l-.69,8.8.08.08h-.08s-.06.53-.5,1.72c0,0-.72,1.58-1.14,2.5-.31.67-.33.69-.39.8-.11.22-.61.78-.75.92M108.8,111.37c0-.39.11-.67.22-.83.61.53,1.42,1.05,2.39,1.05h.36c1.3-.19,2.69-.58,3.69-.58.44,0,.8.08,1.05.25.69.5,1.83,1.69,3.33,1.72.5,0,1.03-.14,1.58-.5,1.39-.92,2.69-1.83,3.3-2.3,0,0,.03,0,.06-.03,0,1.03.19,1.61.22,1.64.08,1.03.22,1.94.42,2.75-.86.11-3.58.44-6.77.44-.78,0-1.58,0-2.39-.06-1.25-.08-2.52-.22-3.75-.44-.69-.14-1.33-.28-1.97-.47-.31-.08-.61-.19-.89-.31-.67-1.05-.86-1.8-.86-2.3M108.17,108.79c-.17-.11-.47-.97-.44-1.58,0-.33.08-.55.14-.58.53-.47,1.91-2.14,1.94-2.16,1.69-3.05,3.33-3.97,4-4.25-.25,1.5-.39,3.27-.42,3.63h0v.03c.08.78,1.28,2.5,2.03,3.05.69.44,2,.97,2.69,1.03.42,0,3.08,1.08,3.58,1.22l2.33.78c-.69.5-1.75,1.25-2.89,2-.44.28-.86.39-1.25.39-1.14,0-2.22-1.03-3-1.61-.39-.28-.86-.36-1.39-.36-1.14,0-2.5.39-3.77.58h-.28c-.8,0-1.55-.47-2.14-1.03,0-.03,0-.06-.06-.08-.03-.03-.08-.06-.11-.08-.44-.42-.75-.83-.97-1.03M113.97,103.88c0-.36.22-2.47.47-4,.06-.33.11-.67.19-.92.33-1.3,1.42-1.75,2.33-2.28,1-.61,1.94-2.5,2.77-3,.86-.53,3.41-1.05,5.38-1.5.64-.14,1.53-.19,2.41-.19h.58c-2.11.39-4.69,1.08-5.94,2.41-1.44,1.58-2.47,2.86-2.5,4.25,0,.64.25,1.28.75,1.89,1.28,1.58,2.61,3.08,4.16,3.11.17,0,.33,0,.5-.06,0,.11,0,.22-.03.28,0,.5.06,2.94-.19,4.8-.03.25-.06.47-.08.69,0,0-.03,0-.06.03,0,0-.06.03-.17.11h-.03l-2.72-.92c-.44-.11-3.02-1.19-3.72-1.25-.42,0-1.83-.55-2.39-.92-.47-.25-1.69-2.14-1.75-2.5v-.03h0M131.14,92.25s.08,0,.11-.03c.61.03,1.69.17,2.77.72.33.17.64.36.94.58.67.53,1.14,1.11,1.44,1.75.33.67.47,1.36.47,2.05,0,.5-.08,1-.22,1.44-.22.69-.58,1.36-.97,1.91-.55.8-1.19,1.42-1.53,1.55-.61.31-1.44.53-1.8,1.66-.33,1.03-.89,3.27-1.83,4.13,0-.06-.22.17-.19.47,0,.08,0,.22.06.33.03.14.08.33.19.55.42.94,1.69,3.5,1.69,5.33v.25c0,1.91.36,3.75.8,5.24.55,1.58,1.19,3.33,2.03,3.58.28,0,1.03.25,1.14.44.39.42,1.36.78,1.64.92.11,0,.31.14.39.22-.03,0-.08.06-.17.06-.33.11-.67.14-.94.14-.39,0-.64-.08-.64-.08,0,0-.36-.25-.72-.28h-.11c-.33.08-.5.31-.58.33-.06.06-.58.17-.92.5-.03.03-.06.06-.08.11v.06s-.08.11-.08.17c-.08.22-.22.61-.28.78-.08.28-.19,1.03-.22,1.39,0,.36-.08.61-.08.61-.03.03-.64.44-.8.42h-.44c-.25,0-.47-.06-.55-.11-.28-.22-.61-.67-.97-.94-.03-.03-.08-.08-.14-.17-.17-.22-.36-.61-.36-1.14,0-.11,0-.25.03-.36.14-.97.69-1.58.78-2.08h0c-.03-.47-1.11-3.25-1.14-3.3-.03-.08-1.78-2.41-2.03-2.94-.28-.5-1.17-1.47-1.83-3.91-.22-.83-.39-1.83-.5-3.02,0-.08-.19-.58-.19-1.58v-.36c0-.28.03-.58.08-.92.25-1.91.17-4.41.19-4.83,0-.08,0-.33.06-.61.11-.92.39-2.5.78-3.55.53-1.39,2.64-4.94,2.64-4.94.08-.14.03-.33-.11-.42-.06-.03-.11-.06-.17-.06-.11,0-.19.06-.28.14,0,0-2.11,3.52-2.69,5.02-.39,1.05-.64,2.47-.78,3.41h-.06c-.17.06-.36.08-.53.08-1.11,0-2.44-1.28-3.69-2.86-.42-.55-.61-1.03-.61-1.53,0-1.05.89-2.28,2.33-3.83,1.66-1.89,7.33-2.52,8.55-2.61M135.16,91.26s.44-.08.44-.11c.17-.03.25-.19.22-.33v-.11h0c-.06-.17.55-.61,1.3-.8.72-.22,1.47-.36,1.47-.36.14,0,.25-.14.25-.28,0-.72,1.14-1.03,2.41-1.03,1.05,0,2.03.17,2.03.17.31-.03.5-.06.69-.06.92,0,1.83.33,2.52.67.67.33,1.14.67,1.14.67l.25.06s.22-.03.31-.03c1.25-.03,2.03,1.64,2.03,1.64l.19.17c.69.22.86.8.89,1.47,0,.61-.17,1.14-.19,1.3-.08.25.11.33-.67.5h-.11c-.17,0-.42-.08-.67-.19-.78-.33-.78-.17-1.78-.78l-1.25-.94s-.22-.08-.33,0c-.11.06-.17.17-.17.28v.19c0,.31-.06.83-.25.97-.33.31-.39.31-.5.31h-.17c-.55.06-1.05.69-1.44.86-.44.28-1,.86-1.83.89-.06,0-1.03.19-1.69.19-.25,0-.44-.03-.47-.06-.19-.11-.39-.11-.58-.14-.36,0-.75.08-.97.08h-.14c-.14-.36-.47-.8-1.05-1.17-.03-.08-.08-.17-.11-.28-.36-.72-.89-1.39-1.61-1.97-.28-.22-.55-.39-.83-.53v-.08c-.03-.08-.03-.14-.03-.19-.03-.36.47-.86.69-.97M148.87,95.5c-.17.44-1.08,2.55-1.3,3.63-.08.28-.08.25-.08.28,0,0-.08-.06-.17-.08-.06-.06-.11-.11-.11-.08l-.03-.03c-.08-.06-.19-.08-.28-.06h0s-.06.03-.08.06l-.06.06c-.08.08-.31.33-.42.39,0,.03-.31.06-.47.08l-.5-.53s-.31-.14-.42,0c-.11.11-.14.31,0,.42l.42.47s-.08.08-.11.11h0c-.33.17-.58.39-.67.8-.06.19.08.11-.19.19h0c-.28,0-1.36-.53-1.39-.53l-1.78-.97-.25-.14h-.22l-4.22,1.05c.31-.5.58-1.08.78-1.66.17-.53.25-1.08.25-1.64,0-.31,0-.64-.08-.94.08.11.14.22.17.31.14.33.47.39.69.39.33,0,.69-.08.97-.08.14,0,.25,0,.28.06.22.11.47.14.78.14.78,0,1.75-.22,1.78-.22,1.05-.03,1.75-.8,2.05-.97.36-.25,1-.75,1.11-.78h.17c.28,0,.58-.11.92-.47.28-.31.39-.69.42-1.03l.78.58c.86.53,1.14.55,1.53.69-.06.11-.17.28-.22.47M140.05,102.63c-.14.17-.31.31-.47.42l-1.55,1.03c-.14.08-.19.28-.08.42.08.14.28.17.42.08l1.55-1.03s.14-.08.19-.14c0,.33,0,.72-.06.92-.08.08-.42.25-.8.42-1.5.67-4.25,1.64-4.25,1.64l-1.89.94-2.03,1.03c1.17-1.19,1.58-3.3,1.91-4.25.31-.86.78-.94,1.53-1.3.44-.22,1.05-.78,1.61-1.55.08.06.17.08.28.06h0l4.36-1.14v.28c0,.53-.11,1.5-.67,2.16M141.27,106.79l-.44-.11h-.19s-1.17.39-1.58.89c-.31.39-.67,1.17-.67,2.11v1c0,.47.08,1.03.58,1.39-.75-.03-1.64-.06-1.78-.08-2.64-.19-3.52-2.66-3.52-2.66-.11-.17-.17-.42-.14-.67,0-.39.08-.8.11-.92l1.58-.78s2.72-.94,4.27-1.64h.06c0,.06.06.08.11.11h0s1.17.86,1.66,1.42M141.68,107.54l.89.25s.17.31.19.39c-.19.08-.61.25-.8.25h-.11l-.33-.17c-.14-.08-.33,0-.42.14-.08.14,0,.33.14.42l.33.17s.25.08.39.08c.5,0,1-.25,1.25-.42.14-.11.19-.25.19-.39,0-.17-.06-.33-.11-.47h.14s1.42.22,1.64.22c.08,0,.67.11,1.08.17h0c-.14.08-.28.14-.28.14l-1.42.22s-.19.08-.22.17c-.03.08-.03.19,0,.28l.44.75s.06.17.06.22c.03.28-.53.67-.5.67l-.14.33c.03.17.06.33.06.47,0,.83-.5,1-.47,1.03-.44.31-.83.39-1.19.39-.78,0-1.53-.44-2.19-.8-.22-.14-.47-.28-.69-.36-.5-.22-.53-.47-.55-1.03v-.97c0-.78.33-1.5.53-1.75.08-.17.94-.53,1.22-.64l.92.25h-.03ZM129.89,128.46l-.89.39c-.25-.86-.94-3.22-1.47-5.74-.36-1.75-.44-3.22-.44-4.19v-.44c.11.19.22.33.25.42.31.64,2,2.91,2.03,2.94,0,.03,1.08,2.94,1.05,3h0s-.61.94-.78,2c-.03.17-.03.31-.03.47,0,.47.11.89.28,1.19M115.3,129.1h.19c0-1.19-.86-5.72-.86-8.74,0-2.83,1.64-4.63,1.8-4.86.75.03,1.47.06,2.19.06,3.33,0,6.13-.36,6.91-.47.31,1.08.69,1.89,1.03,2.5,0,0,0,.03-.03.06h0s-.06.47-.06,1.25c0,.97.08,2.5.47,4.3.55,2.61,1.25,5.02,1.5,5.85l-1.17.5s-3,.72-3.69.8c-.75.11-3.69.61-3.8,2.61v1.75c0,.53.08,1,.5,1.33.31.25.61.44.83.58-.39.28-.72.55-.97.83-.69.78-1.28,1.66-1.53,2.5-.53-.33-1.8-1.22-2.28-1.3-.11,0-.67-.08-1.25-.17v-.11c-.39-1-.53-1.94-.53-2.8,0-1.11.22-2,.33-2.55.33-1.61.61-3.19.64-3.91h-.25ZM134.78,150.55c.25.03,1.5.8,1.53.86.11.08.83.83.83.83.14.33.42.5.44.53.31.14.86.55.89.55,0,0,1.25,1.58,1.42,1.75.03.03.08.11.08.17h-.03l-1.66-1.05-1.36-.53c-.14-.06-.31,0-.39.14-.08.14-.03.31.08.39.47.36,1.11,1.55,1.11,1.58,0,0,.42.97.64,1.47.03.08.06.14.03.17-.02.02-.08.06-.19.14-.17.11-.28-.22-.28-.22l-.69-1.19-1.42-1.89s-.03-.06-.06-.06h0s-.31-.11-.42,0h0s-.11.22-.06.33l.28.8.31.78.36,1.22s.25.86.33,1.11l-.06.08s-.11-.03-.17-.06h-.03l-1.36-2.86h0s-.08-.11-.14-.14h0c-.06,0-.14-.03-.19,0h0c-.08.03-.14.08-.19.17v.11c0,.08,0,.33-.06.64,0,0-.11.17-.31.28-.22.11-.47.22-.5.22-.19.03-.5.14-.75.42v-.08c0-.08.06-.22.03-.22h.03c.17-.11.44-.28.61-.44.11-.14.11-.25.11-.33,0-.36-.19-.78-.25-.94-.22-.42-1.05-.83-1.11-.94-.14-.11-1.08-.92-1.08-.92-.64-.5-1.03-2.16-1.17-4.13v-.14c-.11-1.25-.14-2.61-.19-3.88v-.5c0-1.44.19-2.72.5-3.86.33-1.3.8-2.41,1.25-3.39.72-1.55,2.14-2.64,2.55-2.97,4.74,1.78,5.16,3,5.16,3.8,0,.25-.03.5-.06.75.08.64-2,1.05-2,1.05-.14,0-.25.14-.28.28,0,.44-.67,1.91-1.08,2.75-.22.42-.36.72-.36.72l-.89,1.83s-1.25,2.91-1.36,3.63v.11c.11.94,1.28.92,1.58,1.05M138.88,125.63c.8.22,3.27.97,4.38,1.75h.06c.14.17.28.25.33.33h0s2.94,4.16,3.27,4.91c-1.78-1.83-5.02-3.05-5.05-3.08-.17-.06-.33,0-.39.17-.06.17,0,.33.17.39,0,0,4.94,2,5.66,4.16.08.39.14.67.14.67,0,0,.31,1.08.28,1.14h0c-.06,1.14-.64,4.52-3.11,5.16.36-.8.67-1.72.67-2.77,0-1.44-.55-3.11-2.08-5.05-.11-.14-.31-.14-.42-.06-.14.11-.17.31-.06.42,1.47,1.86,1.94,3.39,1.94,4.66,0,1.14-.39,2.11-.83,2.94-.64,1.03-2.33,2.36-4.61,2.69h-.22c-.83,0-1.42-.25-1.8-.5s-.58-.47-.58-.47c-.03-.06-.08-.08-.14-.11.36-.78.8-1.75.94-2.39.58-.11,2.11-.42,2.28-1.58,0-.19.06-.47.06-.78,0-1.17-.75-2.55-5.27-4.25.5-.42,1.64-1.11,3.61-1.11,0,0,1.25-.06,2.22-.06.17,0,.31-.14.31-.31s-.14-.31-.31-.31c-1,0-2.25.06-2.25.06-2.86,0-4.19,1.44-4.33,1.61-.19.14-1.94,1.36-2.86,3.27-.42.92-.89,1.97-1.22,3.16-1.39-.92-4.3-3.88-5.6-5.27-.42-.44-.67-.72-.67-.72-.11-.11-.31-.14-.42,0-.11.11-.14.31,0,.42h0s.17.17.42.44c-.39.19-1.08.55-1.72.97-.17-.08-.55-.33-1-.67-.25-.22-.28-.33-.28-.86v-1.72c-.11-1.25,2.58-1.97,3.27-2.03.8-.08,3.8-.83,3.83-.83l1.3-.55h.14c.08,0,.14-.08.17-.14l1.17-.5s.06.06.08.08c.28.22.64.67.97.94.31.22.64.25.94.25h.47c.5-.08,1.05-.5,1.05-.53.44-.31.31-.8.36-1.11,0-.28.17-1.08.19-1.28.03-.17.25-.69.31-.86.14-.14.58-.28.78-.39.17-.11.36-.25.39-.28h0c.06,0,.14.06.25.11s.22.11.22.11c.08.03.42.14.89.14.33,0,.72-.06,1.14-.17.22-.08.42-.17.53-.33M146.18,115.7c1.08.78,1.33.89,1.47,1.3.47.78,2.36.89,3.75.97.44,0,.78,0,1.05-.14.17-.11.33-.25.47-.44h0s.78.17,1.78.17h.06c.36,0,.75-.03,1.14-.08l.11,5.33h-.28s-.11-.03-.28-.17c-.55-.33-1.58-1.03-1.83-1.22-.64-.39-3.19-.42-4.44-.64-.11,0-.25-.03-.36-.03-1.25,0-2,1.05-2.22,1.28-.22.28-.61.55-.83.58-.64.11-1.14.86-1.44,1.14-.17.19-.44.44-.58.58-.08.06-.11.08-.11.08-.53.25-.58.92-.61,1.47,0,.25,0,.5.06.69-.19-.11-.42-.22-.67-.33-.08-.72-.14-1.39-.14-2.03,0-5.63,3.14-8.02,3.86-8.55M147.87,111.9c.14-.36.06-.17.22-1.36.14-1.11,1.28-4.47,1.28-4.47.28-.53,1-1.03,1-1.03.55-1.05,1.28-1.17,1.69-1.17.19,0,.31.03.31.03h.19l.17-.08c-.14.06-.22.11-.28.14-.64.31-1.22,1.47-1.39,2.44v.31c0,.83.5,1.3.78,1.66.25.33.55,1.03.53,1.42v.19c0,.55.17,1.47.55,2.33.08.22.19.5.25.78.11.42.14.75.14,1.08,0,.22,0,.42-.03.64,0,0-.53,2.41-.97,2.52-.11.03-.42.08-.8.08-.61,0-1.42-.08-2.08-.22-.33-.08-.61-.14-.83-.22-.19-.06-.22-.14-.25-.14h0c-.28-.69-.69-.86-1.83-1.66,0,0-.03-.03-.06-.03-.17-.11-.19-.22-.19-.39-.03-.78,1.44-2.19,1.72-2.8M154.45,104.02c.33,0,.69.03,1.11.14,0,0,.61.55.72.67.06.03.14.08.22.14-.11.11-.19.31-.22.53,0,.28.22.55.53.67.55.22,1.44.8,1.83,1.08-.11.17-.31.39-.8.64-.14.08-.22.25-.14.42.06.11.17.17.28.17.06,0,.08,0,.14-.03.25-.14.47-.28.64-.42,0,.19.06.42.08.64-.06,0-.08,0-.14.06-.44.33-1.42.53-1.42.53-.17.03-.28.19-.22.36.03.17.19.28.36.22,0,0,.89-.19,1.5-.55,0,.17.03.31.06.36h0c.03.31.31,1,.31,1.47,0,.14-.03.17,0,.17-.33.28-.89.55-1.33.75-2.91,0-4.58-.58-4.8-.64-.19-.58-.28-1.14-.28-1.47v-.19c0-.61-.31-1.3-.67-1.78-.31-.42-.64-.75-.64-1.3v-.19c.06-.75.86-2,1-1.97.33-.14.83-.47,1.83-.47M157.03,105.32s.22.17.33.25.17.19.22.28c-.19-.11-.36-.19-.53-.28-.17-.08-.14-.11-.14-.11,0,0,.06-.11.11-.17M154.7,116.95c-.67,0-1.19-.08-1.47-.14.39-.89.53-1.97.55-2,0-.25.06-.47.06-.72,0-.36-.06-.75-.17-1.22-.06-.28-.14-.55-.25-.78.72.19,2.25.53,4.41.53,0,1.44.89,2,.86,2.03t0,0c-.64,1.86-2.5,2.25-4,2.28M154.14,133.26s-.11.08-.17.08c.06,0,.14-.03.17-.08M154.06,132.79s-.19-.08-.36.06c-.11.17-.08.19-.08.22h0c.11.39.39.53.61.64-.11.14-.22.31-.25.31-.11,0-.19.06-.28.08,0-.06-.06-.08-.11-.14l-.42-.33s-.33-.08-.42.06c-.11.14-.08.33.06.42l.36.31s-.08.06-.11.06c-.5.17-.53.44-.83.53-.14.03-.31.06-.5.06-.86,0-2-.53-2.28-.89-.42-.5-.83-1.36-.83-1.36-.08-.17-.25-.22-.39-.14s-.22.25-.14.42h0s.06.11.14.28c-.03,0-.08,0-.11.03l-.31.25c-.08-.33-.17-.67-.25-1l3.94-.89c1.19-.64,1.53-1.11,1.64-1.36h0s.5-.14.75-.22c.42-.14,1.47-.8,1.83-1.05.14-.11.25-.14.39-.14.08,0,.19,0,.31.03,0,0,.14.31.17.39-.19.97-.89,1.36-.89,1.39l-.14.25s-.03,1.55-.06,2.14c0,.08-.06.14-.33.14-.19,0-.36-.03-.36-.03h0s-.19-.06-.33-.14c-.08-.03-.17-.08-.19-.11h0s-.08-.17-.17-.22M157.56,125.83s1.3.8,1.39,1.22c.08.22.14.53.14.8,0,.5-.14.86-.69,1.05,0,0-.31.03-.64.06-.22,0-.47.06-.64.06-.06-.19-.19-.47-.55-.64-.14-.03-.28-.06-.44-.06-.22,0-.5.06-.75.25-.28.19-1.42.89-1.66.97-.28.14-.83.06-1.14.55-.03.11-.19.44-1.3,1.05l-4,.89c-.8-1.44-3.11-4.61-3.14-4.66,0,0,0-.03-.03-.03l-.33-.33h0s-.14-.58-.14-1.14c0-.5.11-.92.31-.94.08-.06.14-.08.19-.17.14-.14.44-.39.61-.61.25-.31.94-1,1.05-.94.53-.08.94-.47,1.22-.78.25-.31.89-1.11,1.78-1.08h.25c1.22.17,4.08.36,4.16.5.42.31,1.91,1.42,2.44,1.5.11,0,.31,0,.58.06.44.08.89.28,1.08.78l.11.14s.25.19.22.47c0,.14-.03.31-.19.53-.06.08-.06.17-.03.22,0,.08.08.14.14.19M155.5,103.21h0s1,.19,1.22.58c.14.11.97.58.94.75.39.75,1,.5.94,1.03v.14l.14.31s.44.33.42.53l.22.28s.39.11.55.75c0,.06.17.69.17.72,0,.06.17.86.36,1.25,0,.06.03.14.03.22v.25c0,.06,0,.22.19.33,0,0,.19.14.33.28.06.06.14.14.17.19h0c-.08.03-.14.11-.17.22,0,.08,0,.19.08.25,0,0,.36.39.33.75v.19c-.03.11-.06.25-.06.36,0,.36.11.64.11.83,0,.17-.03.31-.31.53-.03.03-.55.53-.97.69-.25.11-.53.11-.69.11h-.06c-.03-.06-.08-.17-.14-.25h0s-.06-.11-.08-.14c-.25-.39-.72-.47-.78-1.78v-.14c.44-.19.89-.42,1.25-.72.22-.19.22-.42.22-.64,0-.53-.28-1.25-.31-1.39v.06-.08h0c0-.28-.31-2.05-.31-2.22,0-.03-.03-.06-.03-.08.06-.08.06-.17.06-.17l-.11-.33s-.39-.28-.86-.58c0-.03.03-.08.03-.11-.03-.22-.19-.67-.64-1.08-.39-.33-.97-.69-1.08-.78-.11-.08-.8-.69-.8-.69-.5-.14-.86-.22-1.19-.22.33-.11.69-.22.83-.19M161.8,105.3s.89-1.36.89-3.69c0-1.05-.17-2.28-.67-3.66v-.08l-.92-3.5c-.06-.17-.19-.25-.36-.22s-.25.19-.22.36l.64,2.44c-.22.03-.42.14-.61.28,0-.33-.11-.69-.28-1.08-.78-1.66-3.36-2.8-4.27-3.19-.19-.08-.39-.11-.58-.11h-.03s0-.08-.03-.11h0s-.25-.44-.25-1.14c0-.58.17-1.3.83-2.08,1.58-1.86,2-2,2.55-2.08.67-.08,1.8-.22,1.8-.22.14-.06,1.14-.78,2.36-.75.44,0,.92.08,1.39.33-.19.22-.33.42-.42.58-.36.67-.83,2.03-.92,2.47-.03.28-.75,2.14-.78,2.91h0c0,.78.39,3.66.55,4.16.14.39.64,1.55.67,1.72h0c-.06.22-.19,1.05-.19,1.08-.03.11.03.22.14.31.08.06.22.08.31,0,0,0,.17-.08.33-.19.08-.06.17-.08.25-.11.06-.03.06,0,.06-.03h.06c.19,0,.75.03.94-.53.06-.28.14-.94.14-1.55,0-.19,0-.39-.03-.53-.08-.5-.19-.83-.19-1.05,0-.08,0-.14.03-.19,0-.06.03-.08.08-.14.28.78.94,2.36,2.19,2.75h.14c.33,0,2.03-.06,3.58-1.03l-.22,2.22-.64,2.19v.25s.53.97,1,1.22h.11c.58-.19.44-.55.64-.92.06-.22.11-.47.17-.58l.25-.17h0v.19c0,1,.39,3.05,3.05,5.05-1.36.72-2.19,1.83-2.22,1.83-.06.06-.06.14-.06.19-.28.03-.53.08-.61.08-.36.08-1.44.53-1.64.5h0c-.58.06-1.17.67-1.97.89-1.17.53-.61,1.5-1.5,1.55-.47.08-.8.39-1,.72-.33.64-.47,1.42-.55,1.36-.22.11-.31.33-.33.53l-3.44-1.64s-.03-.19-.03-.28v-.17c.06-.14.06-.25.06-.39,0-.36-.17-.67-.28-.89.06-.06.08-.17.11-.28h0c-.11-.53-.5-.8-.75-.97v-.17c0-.14,0-.31-.11-.5-.11-.22-.31-1.05-.31-1.05,0-.06-.03-.19-.06-.33.08-.19,1.11-2.55,1.17-2.61M159.78,98.03c-.11.17-.28.28-.44.36-.25.14-.78.28-1.14.33,0-.14-.03-.25-.06-.42-.22-1.28-.42-1.36-.72-1.55-.36-.28-.55-.55-.69-.67-.14-.08-.31-.17-.61-.19h0c-.17,0-.39.08-.53.25-.11.17-.17.33-.17.5v.08l-.33-.19c-.53-.33-1-.44-1.47-.42h-.44c.03-.5.14-1.64.39-1.78.33-.31,1-.78,1.58-.89h.25c.14,0,.25,0,.36.06.89.33,3.41,1.58,3.97,2.89.19.42.25.72.25.97,0,.28-.08.47-.19.64M157.61,99.11c.03.33-.67.31-1.72.94-.31.19-.64.28-.94.28-.33,0-.61-.08-.83-.17-.19-.08-.33-.17-.36-.17.03.03-1.86-1.78-1.89-1.86-.11-.14-.28-.25-.47-.25-.22,0-.39.11-.5.25-.03.06-.08.08-.08.11h-.5c-.42,0-.64-.17-.78-.33.22-.14.67-.33.67-.33.03,0,1.11-.64,2.16-.72.19,0,.36-.03.53-.06.28-.03.53-.06.72-.06.39,0,.69.06,1.17.33l1.05.61h0c.19.31.36.61.36.61.08.14.28.19.42.11s.19-.28.11-.42c0,0-.25-.42-.44-.78-.11-.19-.22-.39-.22-.39-.03-.08-.06-.11-.06-.17,0-.03,0-.08.06-.14h.14c.06,0,.08.03.11,0,0,0,.31.36.69.67.42.39.14-.22.53,1.22.06.19.06.33.06.47v.17M170.21,94.7h0s.17.08.42.22l-.06.19c-.06.17.06.33.22.36s.33-.06.36-.22v-.11c.22.06.47.11.72.14l-.8,1.33h0s-.03,0-.06.03c-1.5,1.14-3.33,1.19-3.63,1.19h-.08c-1-.19-1.8-2.75-1.8-2.75v-.06c.08-.19.17-.39.17-.64,0-.47.22-1.72.31-1.78.19-.28.8-1.36,1-1.75,0-.14.67-.42.89-.39h0c.17,0,.83.14,1.36.14.22,0,.42,0,.64-.11.28-.17,1.11-.83,1.61-1.22.08.31.17.69.17.86.11.55.86,1.28,1.17,1.58.08,0,.42,1.22.39,1.44h0l-.94,1.55h-.06c-.83,0-1.66-.53-1.66-.5-.14-.08-.33-.03-.42.11-.08.14-.03.33.11.42M164.6,86.98s.08-.08.11-.11v-.03c.5-.55,1.08-1.14,1.25-1.28.14-.14,2.16-.67,2.28-.69h.39c.75,0,2.25.14,3.11,1.05l.22.08s1.39.11,1.66.83c.42.89,1.19,2.44,1.17,2.77h0c-.06.39-.31.8-.33,1.22v.19c0,.39-.14,1.58-.22,1.86,0,.03-.03.08-.06.14-.11.28-.19.53-.19.83v.19c.03.31.22,1.03.22,1.39v.11c-.14.19-.53.33-.61.83,0,.22-.11,1.28-.22,1.28-.39.33-.58.75-.58,1.05h0c0,.22.08.64.08,1.08,0,.33-.06.67-.17.8-.11.14-.19.25-.31.33-.11,0-.39,0-.58.19l-.33.22-.14.19s-.08.33-.17.67c-.03.11-.06.22-.11.31-.14-.19-.33-.5-.44-.67l.61-2.11.31-2.8v-.14l2.14-3.39c.06-.17.06-.19.06-.22-.03-.47-.19-1.47-.58-1.91-.22-.17-1-1.14-.97-1.19-.06-.36-.31-1.36-.31-1.39,0-.08-.08-.19-.19-.22-.11-.03-.19,0-.28.06,0,0-1.61,1.3-1.91,1.47,0,0-.17.06-.33.03-.44,0-1.05-.11-1.33-.11h-.06c-.42.03-1.14.17-1.44.72-.17.33-.8,1.47-.94,1.66-.28.42-.42,1.5-.42,2.14,0,.19-.08.36-.22.58-.14.19-.31.39-.39.64-.06.14-.08.28-.08.42,0,.39.14.69.19,1.14v.47c0,.55-.08,1.19-.14,1.39l-.08.03c-.08,0-.22.03-.28.03h-.06c-.14,0-.28.06-.39.14.03-.19.06-.36.08-.44v-.08c0-.47-.58-1.55-.67-1.91-.11-.31-.5-3.25-.53-3.94v-.03h0c0-.53.69-2.41.78-2.83,0-.25.53-1.72.83-2.25.08-.17.28-.42.53-.69M181.17,99.08s.92,1.64.92,2.33c-.67-.44-1.42-.86-2.22-1.19-.17-.06-.33,0-.39.17s0,.33.17.39c.94.39,1.78.89,2.5,1.39,1,.72,1.53,1.39,1.78,1.72-3.88.64-7.16,2.19-8.02,2.61-2.75-1.97-3.05-3.88-3.05-4.74,0-.25.03-.39.03-.44.11-.11.25-.25.36-.39.25-.36.31-.78.31-1.19,0-.5-.08-1-.08-1.05.06-.17.17-.44.39-.61.53-.5.42-1.5.44-1.72-.03-.03.25-.25.5-.5.14-.17.14-.33.14-.47,0-.5-.22-1.25-.22-1.47v-.11c0-.11,0-.22.06-.36.53.19,4.11,1.69,6.47,5.6M187.25,104.24c.53,0,1.03,0,1.55.08-3.27,1.53-5.05,6.02-5.52,7.49-.83-1.22-2.19-1.5-3.02-1.47-.44,0-.75.06-.78.08h0c-.31-.08-.61-.03-.78-.08-.11,0-1.58-.58-2.08-.61-.06,0-.44-.11-.8-.25-.5-.19-1.08-.47-1.17-.53-.19-.11-.36-.11-.55-.11h-.25c.36-.39,1.14-1.14,2.16-1.61.33-.14,5.72-2.97,11.29-2.97M166.07,114.98v-.03c0-.14-.06-.25-.06-.33v-.08c.55-.42.44-1.11.78-1.61.14-.22.31-.39.58-.44,1.39-.39,1.03-1.58,1.55-1.58.8-.25,1.61-.8,1.78-.86h.03c.47,0,1.5-.47,1.75-.5.14,0,.5-.08.86-.11.22,0,.47-.03.64-.03h.25c.19.14.75.39,1.28.58.42.17.75.28,1,.31.28,0,1.69.58,2.08.61.11,0,.36,0,.55.06.08,0,.14.03.17.06-.06.14-.17.31-.19.58,0,.11.08.33.25.39.08.03.25.11.36.19.06.06.11.08.14.11h0s-.25.33-.28.72c0,.03,0,.11.03.17.11.33.64,1.08.72,1.28.03.11.06.25.06.36s-.03.19-.03.19c-.14.14-.36.19-.42.58,0,.11.06.25.14.31h0c0,.08-.06.22-.08.25-.22.22-.42.61-.55.75-.19.22-.67,1-.8,1.08,0,.14-.78-.08-1.11.55-.22.43-.24.44-.06.06-.22.17-.78.31-.86.31h-.08c-.39.08-.97.44-1.25.42h0c-.08-.17-.14-.53-.14-.8,0-.22,0-.44.06-.47.03-.17.36-.39.53-.75.06-.14.08-.28.08-.44,0-.19,0-.36-.17-.55-.11-.11-.33-.36-.31-.5,0-.06,0-.11.08-.19.55-.61,1.47-2.3,1.69-2.86.08-.19.08-.39.08-.58,0-.39-.08-.64-.25-.83-.25-.25-1.36-.83-1.61-.97-.31-.14-1.66-.42-2.16-.42h-.61c-.42,0-.86,0-1.22.22-.33.22-1.28.55-1.55.75-.25.17-.97.86-.97.86l-1.08.92s-1.25,1.22-1.5,3.72c-.06-.08-.08-.17-.08-.25v-.08c.03-.11.03-.22.03-.31,0-.28-.06-.55-.11-.8M176.42,125.02c-.55.86-1.17,1.78-1.47,2.11-.31.36-1,.69-1.53.92-.47.19-.86.28-.86.28l-5.85.69-.39.06c-.19-.61-.67-2.28-.89-3.33,0-.08-.03-.19-.03-.28-.06-1.11,1.3-2.86,1.5-2.97.33-.25.53-.75.64-1.03.53.47,1.58,1.28,1.58,1.28.14.06.75.17.94.19,0,0,.42.14.55.44.19.31.5,1.94,1.69,2.03.11,0,.19,0,.28-.03l.67-.58c.31.11.89.36,1,.42.06.03.39.19.89.19.36,0,.8-.08,1.3-.36M183.36,114.81v.28s-.78,2.64-2.61,3.27c-.25.11-.83.47-.97.53,0,.03-.03.08-.06.11.03-.14.06-.25.06-.25.03-.17-.08-.31-.25-.33-.17,0-.33.08-.33.25h0s-.28,1.61-.67,2.8c-.14.33-.22.55-.22.58-.17.31-.36.61-.55.89-1.11,1.58-2.05,1.86-2.61,1.86-.28,0-.44-.06-.55-.11l.33-.22c.14-.08.19-.28.11-.42-.08-.14-.28-.19-.42-.11l-.61.36-.08.08c-.31-.11-.61-.25-.64-.25l-.31.06-.64.61h0c-.44.08-.97-1.22-1.14-1.69-.28-.55-.75-.75-1.05-.78-.08,0-.67-.11-.75-.11,0-.03-1.5-1.19-1.61-1.39-.69-.83-.83-1.97-.83-1.97-.08-.55-.11-1.08-.11-1.53v-.42c.14-2.61,1.36-3.72,1.33-3.75l1.05-.92s.78-.72.94-.83c.11-.08,1.11-.47,1.53-.72.11-.08.53-.14.92-.14h.67c.28,0,1.86.33,1.89.36.14.06,1.42.8,1.42.8,0,0,.11.19.08.42,0,.11,0,.25-.08.36-.14.42-1.11,2.22-1.53,2.64-.19.17-.28.42-.28.61,0,.53.44.83.47.89,0,0,.03.06,0,.17,0,.08,0,.17-.03.22,0,.08-.39.36-.55.78-.06.19-.08.42-.08.69,0,.36.03.75.19,1.08.11.25.36.33.55.33.5,0,1.17-.39,1.28-.44h.14c.42-.06,1.11-.19,1.42-.75h0s.55,0,.89-.25c.33-.28.78-1.03.89-1.14.19-.22.44-.64.5-.69.19-.19.28-.42.28-.69,0-.11,0-.22-.08-.31.03-.03.11-.08.17-.14.19-.19.25-.42.25-.64s-.06-.39-.11-.55c-.14-.33-.69-1.17-.69-1.28,0-.08.19-.39.28-.67l-.08-.11h.11c-.11-.5-.5-.64-.75-.75.03-.08.11-.25.17-.42v-.17h.25c1.11.03,2.97.31,3.14,3.25h0v.64M190.63,104.41c.39,0,.72.06.94.14-1.11,1.08-4.25,4.38-4.25,7.88,0,2.66,1.89,5.27,7.46,6.91-.67.33-1.33.47-2.03.47-.36,0-.75-.06-1.11-.11-3.91-.78-7.69-5.69-7.74-5.74-.03-.58-.14-1.05-.31-1.47.06-.06.11-.11.11-.22,0-.06,1.97-6.1,5.49-7.49.47-.28.97-.36,1.42-.36M192.18,104.8s.03-.03.06-.06c.17.03.36.03.58.03h.67c1.08,0,2.47.11,4.02,1.3l.28.06,2.05-.64c.22-.03.5-.06.75-.06,2.75,0,4.13,2.55,4.13,4.16.06,1.64-2.47,4.05-2.47,4.08l-2.61,2.14c-.67,1.17-3.11,2.52-4.11,3.14-5.94-1.61-7.57-4.08-7.57-6.47,0-3.36,3.41-6.88,4.27-7.63M206.28,158.46c-.94-.14-2.28-3.36-2.22-6.44,0-.83.08-1.64.28-2.36.72-2.97,2.8-10.16,2.8-18.73,0-1.83-.08-3.75-.33-5.69-.67-5.69-1.42-9.85-2.64-12.87h0c.61-.8,1.14-1.83,1.17-2.77,0-1.89-1.55-4.74-4.74-4.74-.28,0-.58,0-.89.08l-1.97.61c-1.64-1.22-3.19-1.33-4.27-1.33h-.67c-.31,0-.53,0-.64-.08,0,0-.69-.28-1.55-.28-.22,0-.44,0-.67.06h-.03c-.89-.17-1.8-.22-2.69-.22s-1.78.08-2.64.19c-.14-.22-.69-1.05-1.89-1.97v-.39c0-1.03-1-2.64-1-2.66-2.5-4.13-6.3-5.66-6.8-5.85.14-.5.22-1.44.22-1.91v-.19h-.14.14c0-.11.22-.58.31-1.08v-.14c0-.72-.8-2.11-1.22-3.02-.5-1-1.69-1.14-2.08-1.17-1.08-1.05-2.69-1.17-3.47-1.17h-.5c-.06.03-2.05.47-2.55.8-.22.19-.75.72-1.25,1.25-.61-.33-1.22-.47-1.78-.47-1.39,0-2.44.72-2.55.8,0-.03-1.05.11-1.66.19-.75.08-1.36.44-2.91,2.28-.75.89-.97,1.78-.97,2.47s.19,1.17.28,1.33c-.67.22-1.25.69-1.58.97-.55.55-.58,1.83-.58,2.28h-.25c-1.22.11-2.36.78-2.36.8,0,.08-.86.14-1.08.86,0,.08,0,.14.06.17.11.28.55.78,1.39.78h.03c.64.06.94-.17,1.03-.33,0,0,0-.03.03-.03.28.33,2,1.94,2,1.97.06.06.69.47,1.55.47.39,0,.83-.08,1.28-.39.69-.53,1.58-.39,1.91-1.17.31-.06,1.03-.22,1.47-.44.19-.08.42-.25.61-.5h.03s.86-.92,1-.86h0c.64,1.58.83,2.94.83,4.02,0,2.19-.8,3.36-.8,3.36-.11.17-.58,1.3-.92,2.05-.19-.36-.47-.58-.64-.67-.11-.36-.33-.58-.53-.72h0c-.06-1.08-1.17-1.17-.97-1.22-.25-.67-1.11-1-1.14-1.03-.39-.64-1.44-.72-1.47-.75h-.14c-.53,0-1.53.42-1.83.53-.08,0-.22-.03-.42-.03-.25,0-.55.03-.89.17h-.33c-.55,0-1.58.19-2.14,1.39-.03,0-.75.47-1.11,1.19,0,.06-1.17,3.39-1.33,4.63-.19,1.3-.08.94-.19,1.25-.06.31-1.72,1.78-1.75,3,0,.19.06.42.17.58-1,.72-4,3.39-4,8.96,0,.55.03,1.14.08,1.75-1.28-.5-2.64-.89-2.97-.97-.22-.28-.55-.36-.69-.47-.25-.08-1.28-.55-1.42-.75-.39-.42-1.11-.61-1.55-.64h0c-.31-.28-1.11-1.86-1.5-3.14-.44-1.44-.78-3.22-.78-5.05v-.25c0-2.05-1.33-4.63-1.72-5.55,0-.06-.06-.11-.06-.17l1.86-.94c0,.17-.06.36-.06.58,0,.31.03.64.22.92,0-.03.97,2.75,4.02,3,.28,0,2.89.11,2.91.11h.11c.61.36,1.39.78,2.28.78.47,0,1-.14,1.5-.47,0,0,.8-.42.8-1.55,0-.11,0-.25-.03-.39.22-.17.61-.53.64-1.08,0-.17-.06-.36-.17-.55l-.22-.36,1-.17s.83-.14.94-.86c0-.06,0-.11-.03-.17l-.22-.19s-1.33-.25-1.58-.28c-.14,0-1.66-.22-1.66-.22l-.61.08-.67-.19h0c-.25-.75-1.58-1.69-2-2,.22-.11.39-.22.5-.44.11-.39.11-1.11.11-1.47v-.31c.53-.8.61-1.75.64-2.3l1.33.72s1.03.58,1.66.61h.08c.61-.06.75-.61.75-.78,0,0,.22-.22.22-.25.28-.11.44-.31.53-.44.19,0,.5-.03.78-.17.11-.08.25-.19.36-.31.11.08.28.17.47.17.33,0,.61-.31.69-.75.19-.94,1.08-3.08,1.28-3.55.08-.25.19-.39.22-.47.22.08.44.14.67.14h.19c.97-.08,1.17-.8,1.17-1,0-.06.19-.72.19-1.42s-.22-1.66-1.19-2.03c-.22-.42-1.03-1.83-2.52-1.86h-.31c-.42-.28-2.05-1.36-3.91-1.36-.22,0-.47,0-.69.06.08,0-.92-.17-2.03-.19-1.19,0-2.72.17-3,1.39-.69.11-2.77.44-3.05,1.61-.11,0-.28.06-.36.11-.33.19-.94.69-1,1.47-1.14-.47-2.22-.55-2.75-.58h-.33c.06,0-1.58-.17-3.27-.17-.89,0-1.8.06-2.52.22-1.97.44-4.5.92-5.58,1.55-1.08.69-2.03,2.58-2.77,3-.8.5-2.19,1.03-2.61,2.64-.06.19-.11.44-.14.69-.33.08-2.52.83-4.61,4.61.03-.03-1.39,1.64-1.83,2.03-.31.28-.33.64-.33,1.03,0,.78.22,1.61.64,2.03.11.11.42.47.8.89-.17.25-.39.64-.39,1.25s.22,1.42.83,2.44c-.64.44-2.08,1.89-2.58,6.05,0,.03-.28,5.19-.92,7.16-1.22,2.61-3.97,5.38-3.97,5.41s-.36.39-.39.97c0,.36.17.78.55,1.11l2.03,1.42s.11.06.19.06c0,.11.06.19.06.22.28.5.94.55,1.72.83.72.19,1.36.36,1.64.39.14.11.31.17.5.17,1.19.06,1.75,0,2.19.53.25.28.53.55.86.75.06,0,.42.11.92.14-.83.53-1.66,1.3-1.83,2.25-.06.5-.28,1.42-.28,2.3,0,1.28.55,2.72,2.55,2.72h.22s1.11-.64,1.78-1.19c.08.53.31,1.86.92,2.64.03.03.06.08.08.11-.03.17-.14.72-.14,1.44,0,1.14.25,2.77,1.47,4.05-.17.19-.5.61-.55,1.17-.03.64-.06,1.75-.5,2.77-.5,1.08-1.44,3.3-1.47,4.16v.17c.06.36.42,1.05.78,1.72.17.33.36.67.47.89.06.11.11.22.17.31,0,.03.03.06.03.08h0c.17.39.36.55.64.72.17.06.55.08.8.11h.06v-.14l.03.14c.06,0,.31,0,.5.03h.17c.17-.08.64,0,.8-.61v-.28h0c.31-.25.67-.64.78-1.14,0-.11-.08-.33-.28-.39-.22-.08-.67-.22-.89-.31-.33-.11-.47-.11-.47-.19-.11-.25-.17-.36-.17-.42v-.08c.06-.19.36-.47.55-.58.14-.14,2.66-1.8,3.02-1.89h.03c.5.11,1.39.33,1.66.61.47.44,3.97,3.39,4.86,3.8.75.33,3.83,2.25,5.52,2.41,1.5.17,4.25.75,5.38,1.05.61.17,1.55.39,2.52.39s1.91-.19,2.58-.92c1.03-1.22,1.61-1.3,1.72-2.3.03-.42.19-1.36.19-2.28,0-.72-.08-1.47-.42-2.05-.67-1.14-1.3-1.91-1.3-1.91,0-.03-.06-.06-.08-.08v-.03c.06-.25.06-.5.06-.72,0-1.22-.67-2.05-.72-2.28-.06-.17-.39-1.17-.78-2.33-.22-.67-.44-1.42-.67-2.11.22-.19.89-.8,1.61-1.53.44.42,4.86,5.19,6.8,5.6.06.03.11.03.17.03,0,0,2.08-.06,4.02-.72,1.5-.53,2.52-1.44,3.55-1.42.31,0,.64.06,1,.25,0,.03.03.08.06.11.11.19.28.39.47.55l.22,3.83v.06c0,.17,0,.89.61,1.11l-.53,3.83-9.49,2.22s-.14,0-.19.08c-.06.06-.11.14-.11.22v2.41l.19.28,9.35,3.16h.19l17.09-5.02c.14-.03.22-.17.22-.28v-2.41h0c0-.17-.11-.28-.25-.31l-9.82-2.03-1.53.36-1.05-7.1.03-.06c.42-.55.89-1.44.89-2.55,0-.33-.03-.67-.11-1-.33-1.39-.44-2.16-.44-2.66,0-.42.06-.64.17-.97.06-.28,3.25-4.16,5.38-8.05h0c0,1.36-.06,3.55-.06,4.58v.55c0,.17.03.5.03.92,0,.72-.08,1.66-.36,2-.55.8-1.11,2.03-1.14,2.77v.17c0,.19.03.53.03.83,0,.36-.03.75-.06.83-.11.31-.69,2.08-.69,2.08,0,.06-.03.17-.03.33,0,.47.19,1.55,1.42,1.72.61.08,1.3.14,1.94.14.89,0,1.69-.08,2.19-.33.69-.36,1.28-.97,1.3-1.64,0-.11,0-.22-.06-.33-.28-.61-.83-.92-1.14-1.33-.28-.36-.64-1.05-.61-1.47v-.17s.22-.67.22-1.11v-.03h0v-.61c0-.5.06-1.17.19-1.3.33-.47,2.66-4.02,2.66-4.02.03-.06,1.17-1.78,1.55-6.63h0c1.25-.14,2.16-.17,2.61-.17l-.08.28-1.14,2.44s-1.91,3.72-2.28,4.63c-.22.55-1.03,2.14-1.03,4.38,0,1.11.19,2.36.75,3.77l.64,2.33c1.05,3.39,1.61,3.94,2.97,4.13h.08c-.11.47-.25.89-.33,1.05-.14.28-.42.8-.55,1.39-.08.25-.11.53-.11.8v.25c.08.8.08,1.8,1.03,1.97h.39c.53,0,1.05-.11,1.28-.14.25.08.92.31,1.36.33.22,0,.47.06.72.06.28,0,.55,0,.8-.19.31-.19.94-.42,1.3-.69.31-.25,1.14-.89,1.22-1.66v-.06h0c-.06-.83-1.44-2.64-1.44-2.69.03.06,0,0,0-.11,1.25.25,4.99.39,8.85.58,1.25.06,1.39.06,2.5.08h.64c2.91,0,8.3-.58,8.3-.58.14,0,.25-.14.28-.28,0-.14-.08-.28-.22-.31"/>
  <path class="cls-1" d="M174.29,121.33l-2.5.53c-.17.03-.28.19-.22.36.03.17.19.28.36.22l.86-.17.22.28s.14.11.22.11.14,0,.19-.08c.14-.11.14-.31,0-.42h0l.97-.19c.17-.03.28-.19.22-.36-.03-.17-.19-.28-.36-.25"/>
  <path class="cls-1" d="M153.59,107.32s.19-.06.25-.11h0s.28-.33.55-.61v.03l.11.17s.28.17.42.08c.14-.08.17-.28.08-.42l-.11-.17-.06-.06h.08s.31.08.42-.03c.11-.14.08-.33-.06-.42-.14-.11-.28-.14-.42-.14-.86.08-1.55,1.22-1.61,1.22-.11.14-.06.33.06.42.06.03.11.06.17.06"/>
  <path class="cls-1" d="M167.07,93.67c0,.17.08.31.25.33h.06c.14,0,.28-.11.31-.25v-.14c.25.06.5.08.75.08.17,0,.31-.14.31-.31s-.14-.31-.31-.31c-.83,0-1.66-.53-1.69-.5-.14-.08-.33-.03-.42.11-.08.14-.03.33.11.42,0,0,.28.17.67.31v.25h-.03Z"/>
  <path class="cls-1" d="M145.68,95.86c-.08.14-.06.33.08.42l.47.33-.14.22c-.11.14-.06.33.08.42.14.08.33.06.42-.08l.14-.22.55.36s.11.06.17.06c.08,0,.19-.06.25-.14.08-.14.06-.33-.08-.42l-1.53-1.03c-.14-.08-.33-.06-.42.08"/>
  <path class="cls-1" d="M168.32,96.78c-.44,0-.78-.31-.78-.31-.14-.11-.31-.08-.42.03-.11.14-.08.33.03.42,0,0,.47.39,1.14.44h0c.17,0,.28-.14.31-.28,0-.17-.11-.31-.28-.31"/>
  <path class="cls-1" d="M154.86,131.82c.17.03.33-.06.36-.22.06-.17-.06-.33-.22-.36,0,0-1.03-.33-1.11-.55-.08-.14-.28-.19-.42-.11-.14.08-.19.28-.11.42.11.17.28.31.42.42h-.06c-.14.14-.14.33-.03.47.06.08.17.11.22.11s.14,0,.19-.06l.25-.22c.25.08.42.14.44.14"/>
  <path class="cls-1" d="M168.54,95.78c-.17,0-.28-.03-.33-.06,0,0-.03-.06-.06-.06-.11-.11-.31-.11-.42,0h0s-.08.11-.08.22c.03.33.31.47.86.5h0c.17,0,.28-.14.31-.28,0-.17-.11-.31-.28-.33"/>
  <path class="cls-1" d="M194.46,110.9s.17-.03.22-.08l2.41-2.41s.11-.31,0-.42c-.11-.11-.31-.11-.42,0l-2.41,2.41s-.11.31,0,.42c.06.06.14.08.22.08"/>
  <rect class="cls-1" x="155" y="189.9" width="3.05" height="7.85"/>
  <rect class="cls-1" x="142.47" y="191.51" width="7.88" height="3.05" transform="translate(-67.17 307.41) rotate(-80.99)"/>
  <rect class="cls-1" x="132.63" y="189.14" width="7.88" height="3.05" transform="translate(-86.93 261.75) rotate(-72.03)"/>
  <rect class="cls-1" x="123.25" y="185.27" width="7.88" height="3.05" transform="translate(-97 215.28) rotate(-62.99)"/>
  <rect class="cls-1" x="125.63" y="67.58" width="3.05" height="7.85" transform="translate(-18.61 65.55) rotate(-27.01)"/>
  <rect class="cls-1" x="135.03" y="63.7" width="3.05" height="7.88" transform="translate(-14.21 45.43) rotate(-17.97)"/>
  <rect class="cls-1" x="144.91" y="61.34" width="3.05" height="7.85" transform="translate(-8.41 23.74) rotate(-9.01)"/>
  <rect class="cls-1" x="155" y="60.54" width="3.05" height="7.85"/>
  <rect class="cls-1" x="162.74" y="63.75" width="7.85" height="3.05" transform="translate(76.09 219.66) rotate(-80.99)"/>
  <rect class="cls-1" x="172.59" y="66.1" width="7.85" height="3.05" transform="translate(57.73 214.67) rotate(-72.03)"/>
  <rect class="cls-1" x="181.99" y="70.01" width="7.85" height="3.05" transform="translate(37.75 204.68) rotate(-62.99)"/>
  <rect class="cls-1" x="190.64" y="75.29" width="7.88" height="3.05" transform="translate(18.05 189.05) rotate(-53.99)"/>
  <rect class="cls-1" x="198.34" y="81.88" width="7.88" height="3.05" transform="translate(.27 167.46) rotate(-45)"/>
  <rect class="cls-1" x="204.92" y="89.63" width="7.88" height="3.05" transform="translate(-13.69 140.18) rotate(-36)"/>
  <rect class="cls-1" x="210.24" y="98.27" width="7.88" height="3.05" transform="translate(-21.96 108.15) rotate(-27.01)"/>
  <rect class="cls-1" x="214.1" y="107.65" width="7.88" height="3.05" transform="translate(-23.05 72.6) rotate(-17.97)"/>
  <rect class="cls-1" x="216.49" y="117.51" width="7.85" height="3.05" transform="translate(-15.92 35.99) rotate(-9.01)"/>
  <rect class="cls-1" x="217.27" y="127.63" width="7.88" height="3.05"/>
  <rect class="cls-1" x="218.91" y="135.35" width="3.05" height="7.85" transform="translate(48.36 335.18) rotate(-80.99)"/>
  <rect class="cls-1" x="216.5" y="145.21" width="3.05" height="7.85" transform="translate(8.9 310.52) rotate(-72.03)"/>
  <rect class="cls-1" x="212.65" y="154.59" width="3.05" height="7.88" transform="translate(-24.33 277.35) rotate(-62.99)"/>
  <rect class="cls-1" x="207.33" y="163.21" width="3.05" height="7.88" transform="translate(-49.13 237.87) rotate(-54)"/>
  <rect class="cls-1" x="200.77" y="170.93" width="3.05" height="7.88" transform="translate(-64.4 194.26) rotate(-45)"/>
  <rect class="cls-1" x="193.03" y="177.55" width="3.05" height="7.88" transform="translate(-69.52 149.07) rotate(-36.01)"/>
  <rect class="cls-1" x="184.4" y="182.83" width="3.05" height="7.88" transform="translate(-64.54 104.81) rotate(-27.01)"/>
  <rect class="cls-1" x="175.01" y="186.74" width="3.05" height="7.88" transform="translate(-50.22 63.77) rotate(-17.97)"/>
  <rect class="cls-1" x="165.14" y="189.08" width="3.05" height="7.85" transform="translate(-28.17 28.48) rotate(-9.01)"/>
  <path class="cls-1" d="M87.41,303.66c.17-.19.33-.42.5-.61.33-.42.69-.69,1.14-.31.22.19,2.61,2.47,5.52,2.47,2.64,0,4.36-1.66,4.36-3.58,0-2.25-1.97-3.58-5.72-5.16-3.58-1.55-5.74-3.02-5.74-6.74,0-2.22,1.78-5.8,6.94-5.8,3.19,0,5.58,1.66,5.58,1.66.19.08.58.5.19,1.11-.14.19-.25.42-.39.61-.28.44-.61.58-1.14.31-.22-.14-2.28-1.5-4.27-1.5-3.44,0-4.5,2.22-4.5,3.58,0,2.19,1.66,3.44,4.38,4.61,4.41,1.8,7.24,3.47,7.24,7.24,0,3.39-3.22,5.88-7.05,5.88s-6.47-2.25-6.88-2.64c-.28-.22-.58-.47-.19-1.11"/>
  <path class="cls-1" d="M117.02,283.93c3.3,0,5.69,1.14,7.91,3.02.25.25.31.67.03.92l-.89.89c-.28.33-.53.31-.86,0-1.69-1.47-4-2.44-6.22-2.44-5.16,0-9.1,4.33-9.1,9.38s3.94,9.35,9.1,9.35c2.83,0,4.5-1.14,6.22-2.44.33-.28.58-.22.78-.11l.97.89c.25.19.19.67-.03.89-2.22,2.16-5.02,3.16-7.94,3.16-6.52,0-11.76-5.19-11.76-11.71s5.24-11.76,11.76-11.76"/>
  <path class="cls-1" d="M130.34,284.87c0-.33.31-.61.61-.61h1.25c.36,0,.61.31.61.61v13.6c0,3.72,2.3,6.6,6.13,6.6s6.19-2.83,6.19-6.55v-13.65c0-.33.25-.61.61-.61h1.25c.33,0,.61.31.61.61v13.79c0,4.97-3.52,8.74-8.66,8.74s-8.6-3.77-8.6-8.74c0,0,0-13.79,0-13.79Z"/>
  <path class="cls-1" d="M164.66,305.13c5.19,0,9.46-4.25,9.46-9.43s-4.27-9.49-9.46-9.49-9.41,4.3-9.41,9.49,4.25,9.43,9.41,9.43M164.66,283.93c6.52,0,11.74,5.24,11.74,11.76s-5.22,11.71-11.74,11.71-11.71-5.19-11.71-11.71,5.19-11.76,11.71-11.76"/>
  <path class="cls-1" d="M182.06,284.87c0-.33.25-.61.61-.61h1.28c.33,0,.61.31.61.61v20.01h9.38c.36,0,.64.31.64.61v.94c0,.33-.28.61-.64.61h-11.29c-.36,0-.61-.31-.61-.61v-21.59l.03.03Z"/>
  <path class="cls-1" d="M212.08,299.33c-1.58-3.55-3.16-7.13-4.77-10.68h-.25l-4.77,10.68h9.79ZM196.6,306.24l9.91-21.95c.08-.19.25-.36.55-.36h.33c.28,0,.44.17.55.36l9.85,21.95c.19.44-.06.86-.55.86h-1.3c-.31,0-.47-.19-.55-.36l-2.41-5.38h-11.57l-2.39,5.38c-.06.17-.25.36-.55.36h-1.3c-.5,0-.75-.42-.55-.86"/>
  <path class="cls-1" d="M237.27,304.85c5.36,0,9.24-3.83,9.24-9.18s-3.88-9.16-9.24-9.16h-4.88v18.34h4.88ZM229.92,284.87c0-.33.25-.61.58-.61h7.3c6.3,0,11.43,5.11,11.43,11.38s-5.16,11.43-11.43,11.43h-7.3c-.33,0-.58-.31-.58-.61v-21.59Z"/>
  <path class="cls-1" d="M254.92,284.87c0-.33.25-.61.61-.61h12.85c.36,0,.61.31.61.61v.94c0,.33-.28.61-.61.61h-10.96v7.94h9.35c.33,0,.61.31.61.61v.94c0,.36-.31.61-.61.61h-9.35v8.32h10.96c.36,0,.61.31.61.61v.94c0,.33-.28.61-.61.61h-12.85c-.36,0-.61-.31-.61-.61v-21.59.06Z"/>
  <path class="cls-1" d="M274.9,284.87c0-.33.25-.61.61-.61h1.28c.33,0,.61.31.61.61v20.01h9.38c.36,0,.64.31.64.61v.94c0,.33-.28.61-.64.61h-11.29c-.36,0-.61-.31-.61-.61v-21.59l.03.03Z"/>
  <path class="cls-1" d="M306.81,304.85c5.36,0,9.24-3.83,9.24-9.18s-3.88-9.16-9.24-9.16h-4.88v18.34h4.88ZM299.45,284.87c0-.33.25-.61.58-.61h7.3c6.3,0,11.43,5.11,11.43,11.38s-5.16,11.43-11.43,11.43h-7.3c-.33,0-.58-.31-.58-.61v-21.59Z"/>
  <path class="cls-1" d="M324.48,284.87c0-.33.25-.61.61-.61h12.85c.36,0,.61.31.61.61v.94c0,.33-.25.61-.61.61h-10.96v7.94h9.35c.33,0,.61.31.61.61v.94c0,.36-.31.61-.61.61h-9.35v8.32h10.96c.36,0,.61.31.61.61v.94c0,.33-.25.61-.61.61h-12.85c-.36,0-.61-.31-.61-.61v-21.59.06Z"/>
  <path class="cls-1" d="M342.96,303.66c.17-.19.33-.42.5-.61.33-.42.67-.69,1.14-.31.22.19,2.61,2.47,5.49,2.47,2.64,0,4.36-1.66,4.36-3.58,0-2.25-1.97-3.58-5.69-5.16-3.58-1.55-5.74-3.02-5.74-6.74,0-2.22,1.78-5.8,6.94-5.8,3.19,0,5.58,1.66,5.58,1.66.19.08.58.5.19,1.11-.14.19-.25.42-.39.61-.31.44-.61.58-1.14.31-.22-.14-2.28-1.5-4.27-1.5-3.44,0-4.5,2.22-4.5,3.58,0,2.19,1.66,3.44,4.41,4.61,4.41,1.8,7.24,3.47,7.24,7.24,0,3.39-3.22,5.88-7.05,5.88s-6.47-2.25-6.88-2.64c-.28-.22-.58-.47-.19-1.11"/>
  <path class="cls-1" d="M362.47,284.87c0-.33.28-.61.61-.61h1.3c.33,0,.61.31.61.61v21.59c0,.33-.28.61-.61.61h-1.3c-.33,0-.61-.31-.61-.61v-21.59Z"/>
  <path class="cls-1" d="M382.42,283.93c3.3,0,5.66,1.14,7.88,3.02.25.25.28.67.03.92-.31.31-.64.61-.92.92-.31.33-.5.31-.86-.03-1.66-1.47-4.02-2.55-6.19-2.55-5.16,0-9.07,4.3-9.07,9.35s3.91,9.41,9.07,9.41c3.58,0,5.88-1.36,5.88-1.36v-4.55h-3.75c-.36,0-.64-.25-.64-.58v-1.19c0-.36.28-.64.64-.64h5.63c.33,0,.58.31.58.64v7.46c0,.17-.14.42-.25.53,0,0-3.33,2.16-8.05,2.16-6.52,0-11.76-5.19-11.76-11.71s5.24-11.76,11.76-11.76"/>
  <path class="cls-1" d="M396.85,284.54c0-.33.28-.58.61-.58h.8l14.71,18.34h.08v-17.37c0-.33.25-.61.61-.61h1.14c.33,0,.61.31.61.61v21.95c0,.33-.31.58-.61.58h-.58l-14.96-18.67h-.03v17.73c0,.33-.25.61-.61.61h-1.14c-.33,0-.61-.28-.61-.61v-21.95l-.03-.03Z"/>
  <path class="cls-1" d="M512.74,268.31h0c0,.39-.31.72-.72.72H88.58c-.39,0-.72-.33-.72-.72s.31-.72.72-.72h423.42c.39,0,.72.33.72.72"/>
</svg>