<?xml version="1.0" encoding="UTF-8"?>
<svg id="Layer_1" data-name="Layer 1" xmlns="http://www.w3.org/2000/svg" viewBox="0 0 600 368">
  <defs>
    <style>
      .cls-1 {
        fill: #e12827;
      }

      .cls-2 {
        fill: #009548;
      }

      .cls-3 {
        fill: #ffcb00;
      }

      .cls-4 {
        fill: #efeff1;
      }

      .cls-5 {
        fill: #003398;
      }

      .cls-6 {
        fill: #1d1d1b;
      }

      .cls-7 {
        fill: #fff;
      }
    </style>
  </defs>
  <path class="cls-6" d="M107.21,166.31s4.61,5.43,11.29,5.43c4.21,0,7.72-2.56,7.72-6.68,0-9.42-21.75-7.96-21.75-21.99,0-6.77,5.92-12.05,14.4-12.05,4.79,0,12.81,2.17,12.81,8.3v3.69h-5.86v-2.1c0-2.35-3.39-4.09-6.95-4.09-4.85,0-7.9,2.68-7.9,6.07,0,9.12,21.66,7.08,21.66,21.87,0,6.89-5.37,12.81-14.27,12.81-9.58,0-14.91-6.68-14.91-6.68l3.75-4.51.03-.06Z"/>
  <path class="cls-6" d="M140.91,149.47h-4.21v-4.97h4.33v-8.85h6.07v8.85h7.72v4.97h-7.72v14.79c0,6.44,4.45,7.26,6.83,7.26.88,0,1.46-.12,1.46-.12v5.49s-.82.12-2.17.12c-4.09,0-12.29-1.28-12.29-12.05v-15.49h-.03Z"/>
  <path class="cls-6" d="M172.02,172.56c5.22,0,8.6-5.49,8.6-10.25v-1.07h-1.59c-4.67,0-13.05.24-13.05,6.19,0,2.62,1.98,5.15,6.07,5.15M179.16,156.67h1.4v-.31c0-5.67-2.1-7.72-7.14-7.72-1.53,0-5.28.4-5.28,2.47v1.86h-5.8v-3.17c0-5.28,8.02-6.07,11.16-6.07,10.46,0,13.27,5.49,13.27,12.63v13.69c0,.95.52,1.4,1.4,1.4h2.62v5.31h-5.8c-2.87,0-4.03-1.4-4.03-3.69,0-1.1.12-1.92.12-1.92h-.12s-2.56,6.37-10.25,6.37c-5.55,0-10.95-3.39-10.95-9.82,0-10.4,14.03-11.04,19.43-11.04"/>
  <path class="cls-6" d="M197.7,149.47h-4.21v-4.97h4.33v-8.85h6.07v8.85h7.72v4.97h-7.72v14.79c0,6.44,4.45,7.26,6.83,7.26.88,0,1.46-.12,1.46-.12v5.49s-.82.12-2.17.12c-4.09,0-12.29-1.28-12.29-12.05v-15.49h-.03Z"/>
  <path class="cls-6" d="M220.3,131.75h5.55v6.44h-5.55v-6.44ZM220.18,151.18c0-.95-.52-1.4-1.4-1.4h-2.62v-5.28h6.07c2.87,0,4.09,1.22,4.09,4.09v21.47c0,.95.52,1.4,1.4,1.4h2.62v5.31h-6.07c-2.87,0-4.09-1.22-4.09-4.09v-21.5Z"/>
  <path class="cls-6" d="M274.04,130.99c10.77,0,16.07,5.55,16.07,5.55l-3.63,4.67s-4.85-4.33-12.29-4.33c-9,0-16.2,7.2-16.2,17.2s7.2,17.48,16.32,17.48c8.02,0,12.81-5.61,12.81-5.61v-4.51c0-.88-.52-1.4-1.4-1.4h-2.75v-5.49h5.92c2.87,0,4.09,1.22,4.09,4.09v18.18h-5.61v-2.81c0-.95.06-1.92.06-1.92h-.12s-5.03,5.49-14.03,5.49c-11.99,0-21.93-9.42-21.93-23.45,0-12.99,9.82-23.12,22.69-23.12"/>
  <path class="cls-6" d="M322.6,156.85c-.18-5.37-3.57-8.24-7.59-8.24-4.73,0-8.54,2.87-9.49,8.24h17.08ZM315.07,143.74c9.06,0,13.91,6.77,13.91,15.1,0,.82-.18,2.56-.18,2.56h-23.52c.37,6.89,5.37,10.77,11.1,10.77s9.42-3.75,9.42-3.75l2.68,4.39s-4.79,4.73-12.41,4.73c-10.19,0-17.14-7.32-17.14-16.9,0-10.25,7.02-16.9,16.2-16.9"/>
  <path class="cls-6" d="M337.18,151.18c0-.95-.52-1.4-1.4-1.4h-2.62v-5.28h5.92c2.75,0,4.09,1.22,4.09,3.57v1.22c0,1.01-.12,1.86-.12,1.86h.12c1.28-2.81,5.09-7.38,12.11-7.38,7.66,0,11.1,4.15,11.1,12.35v13.97c0,.95.52,1.4,1.4,1.4h2.62v5.31h-6.13c-2.87,0-4.09-1.22-4.09-4.09v-15.16c0-4.51-.88-8.08-6.07-8.08s-8.94,3.26-10.19,7.9c-.46,1.28-.58,2.75-.58,4.33v15.1h-6.19v-25.62h.03Z"/>
  <path class="cls-6" d="M397.66,156.85c-.18-5.37-3.57-8.24-7.59-8.24-4.73,0-8.54,2.87-9.49,8.24h17.08ZM390.16,143.74c9.06,0,13.91,6.77,13.91,15.1,0,.82-.18,2.56-.18,2.56h-23.52c.37,6.89,5.37,10.77,11.1,10.77s9.42-3.75,9.42-3.75l2.68,4.39s-4.79,4.73-12.41,4.73c-10.19,0-17.14-7.32-17.14-16.9,0-10.25,7.02-16.9,16.2-16.9"/>
  <path class="cls-6" d="M412.27,151.18c0-.95-.52-1.4-1.4-1.4h-2.62v-5.28h5.86c2.81,0,4.15,1.16,4.15,3.75v2.04c0,1.28-.12,2.23-.12,2.23h.12c1.53-4.73,5.22-8.42,10.19-8.42.82,0,1.65.12,1.65.12v6.13s-.82-.18-1.86-.18c-3.93,0-7.59,2.81-9.06,7.59-.58,1.86-.76,3.81-.76,5.8v13.21h-6.19v-25.59h.06Z"/>
  <path class="cls-6" d="M444.2,172.56c5.22,0,8.6-5.49,8.6-10.25v-1.07h-1.59c-4.64,0-13.05.24-13.05,6.19,0,2.62,1.98,5.15,6.07,5.15M451.34,156.67h1.4v-.31c0-5.67-2.1-7.72-7.14-7.72-1.53,0-5.28.4-5.28,2.47v1.86h-5.8v-3.17c0-5.28,8.02-6.07,11.16-6.07,10.46,0,13.27,5.49,13.27,12.63v13.69c0,.95.52,1.4,1.4,1.4h2.62v5.31h-5.8c-2.87,0-4.03-1.4-4.03-3.69,0-1.1.12-1.92.12-1.92h-.12s-2.56,6.37-10.28,6.37c-5.55,0-10.95-3.39-10.95-9.82,0-10.4,14.03-11.04,19.43-11.04"/>
  <path class="cls-6" d="M469.49,138.46c0-.95-.52-1.4-1.4-1.4h-2.62v-5.31h6.13c2.87,0,4.09,1.22,4.09,4.09v34.22c0,.95.52,1.4,1.4,1.4h2.62v5.28h-6.13c-2.87,0-4.09-1.22-4.09-4.09v-34.19Z"/>
  <path class="cls-6" d="M487.15,131.75h5.55v6.44h-5.55v-6.44ZM487.03,151.18c0-.95-.52-1.4-1.4-1.4h-2.62v-5.28h6.07c2.87,0,4.09,1.22,4.09,4.09v21.47c0,.95.52,1.4,1.4,1.4h2.62v5.31h-6.07c-2.87,0-4.09-1.22-4.09-4.09v-21.5Z"/>
  <path class="cls-6" d="M24.71,220.02c0-5.73-2.99-11.47-9.18-11.47-5.03,0-9.24,4.21-9.24,11.53s3.75,11.53,9.12,11.53c4.79,0,9.3-3.39,9.3-11.59M14.58,203.22c7.44,0,9.94,4.97,9.94,4.97h.12s-.12-.95-.12-2.17v-8.08c0-.95-.52-1.4-1.4-1.4h-2.62v-5.28h6.13c2.87,0,4.09,1.22,4.09,4.09v34.22c0,.95.52,1.4,1.4,1.4h2.62v5.28h-5.92c-2.81,0-3.97-1.28-3.97-3.45,0-.95.06-1.65.06-1.65h-.12s-2.68,5.86-10.58,5.86c-8.72,0-14.21-6.89-14.21-16.9s6.07-16.9,14.61-16.9"/>
  <path class="cls-6" d="M62.16,216.33c-.18-5.37-3.57-8.24-7.59-8.24-4.73,0-8.54,2.87-9.49,8.24h17.08ZM54.66,203.22c9.06,0,13.91,6.77,13.91,15.1,0,.82-.18,2.56-.18,2.56h-23.52c.37,6.89,5.37,10.77,11.1,10.77s9.42-3.75,9.42-3.75l2.68,4.39s-4.79,4.73-12.44,4.73c-10.19,0-17.14-7.32-17.14-16.9,0-10.25,7.02-16.9,16.2-16.9"/>
  <path class="cls-6" d="M76.65,197.91c0-.95-.52-1.4-1.4-1.4h-2.62v-5.28h6.13c2.87,0,4.09,1.22,4.09,4.09v34.22c0,.95.52,1.4,1.4,1.4h2.62v5.28h-6.13c-2.87,0-4.09-1.22-4.09-4.09,0,0,0-34.22,0-34.22Z"/>
  <path class="cls-6" d="M93.73,197.91c0-.95-.52-1.4-1.4-1.4h-2.62v-5.28h6.13c2.87,0,4.09,1.22,4.09,4.09v34.22c0,.95.52,1.4,1.4,1.4h2.62v5.28h-6.13c-2.87,0-4.09-1.22-4.09-4.09,0,0,0-34.22,0-34.22Z"/>
  <rect class="cls-6" x="109.47" y="190.47" width="4.91" height="11.99"/>
  <polygon class="cls-6" points="120.99 230.73 125.39 230.73 125.39 196.69 120.99 196.69 120.99 191.23 135.85 191.23 135.85 196.69 131.46 196.69 131.46 230.73 135.85 230.73 135.85 236.22 120.99 236.22 120.99 230.73"/>
  <path class="cls-6" d="M144.17,208.95h-4.21v-4.97h4.33v-8.88h6.07v8.88h7.72v4.97h-7.72v14.79c0,6.44,4.45,7.26,6.83,7.26.88,0,1.46-.12,1.46-.12v5.49s-.82.12-2.17.12c-4.09,0-12.29-1.28-12.29-12.05v-15.49h-.03Z"/>
  <path class="cls-6" d="M175.28,232.01c5.22,0,8.6-5.49,8.6-10.25v-1.1h-1.59c-4.67,0-13.05.24-13.05,6.19,0,2.62,1.98,5.15,6.07,5.15M182.42,216.15h1.4v-.31c0-5.67-2.1-7.72-7.14-7.72-1.53,0-5.28.4-5.28,2.47v1.86h-5.8v-3.2c0-5.28,8.02-6.07,11.16-6.07,10.46,0,13.27,5.49,13.27,12.63v13.69c0,.95.52,1.4,1.4,1.4h2.62v5.31h-5.8c-2.87,0-4.03-1.4-4.03-3.69,0-1.1.12-1.92.12-1.92h-.12s-2.56,6.37-10.25,6.37c-5.55,0-10.95-3.39-10.95-9.82,0-10.4,14.03-11.01,19.43-11.01"/>
  <path class="cls-6" d="M200.6,197.91c0-.95-.52-1.4-1.4-1.4h-2.62v-5.28h6.13c2.87,0,4.09,1.22,4.09,4.09v34.22c0,.95.52,1.4,1.4,1.4h2.62v5.28h-6.13c-2.87,0-4.09-1.22-4.09-4.09,0,0,0-34.22,0-34.22Z"/>
  <path class="cls-6" d="M218.23,191.23h5.55v6.44h-5.55v-6.44ZM218.11,210.66c0-.95-.52-1.4-1.4-1.4h-2.62v-5.28h6.07c2.87,0,4.09,1.22,4.09,4.09v21.47c0,.95.52,1.4,1.4,1.4h2.62v5.28h-6.07c-2.87,0-4.09-1.22-4.09-4.09,0,0,0-21.47,0-21.47Z"/>
  <path class="cls-6" d="M244.55,232.01c5.22,0,8.6-5.49,8.6-10.25v-1.1h-1.59c-4.67,0-13.05.24-13.05,6.19,0,2.62,1.98,5.15,6.04,5.15M251.69,216.15h1.4v-.31c0-5.67-2.1-7.72-7.14-7.72-1.53,0-5.28.4-5.28,2.47v1.86h-5.8v-3.2c0-5.28,8.02-6.07,11.16-6.07,10.46,0,13.27,5.49,13.27,12.63v13.69c0,.95.52,1.4,1.4,1.4h2.62v5.31h-5.8c-2.87,0-4.03-1.4-4.03-3.69,0-1.1.12-1.92.12-1.92h-.12s-2.56,6.37-10.25,6.37c-5.55,0-10.95-3.39-10.95-9.82,0-10.4,14.03-11.01,19.43-11.01"/>
  <path class="cls-6" d="M296.37,232.01c5.22,0,8.6-5.49,8.6-10.25v-1.1h-1.59c-4.67,0-13.05.24-13.05,6.19,0,2.62,1.98,5.15,6.07,5.15M303.51,216.15h1.4v-.31c0-5.67-2.1-7.72-7.14-7.72-1.53,0-5.28.4-5.28,2.47v1.86h-5.8v-3.2c0-5.28,8.02-6.07,11.16-6.07,10.46,0,13.27,5.49,13.27,12.63v13.69c0,.95.52,1.4,1.4,1.4h2.62v5.31h-5.8c-2.87,0-4.03-1.4-4.03-3.69,0-1.1.12-1.92.12-1.92h-.12s-2.56,6.37-10.25,6.37c-5.55,0-10.95-3.39-10.95-9.82,0-10.4,14.03-11.01,19.43-11.01"/>
  <path class="cls-6" d="M347.79,230.73h8.02c4.79,0,7.59-3.05,7.59-7.66s-2.99-7.72-7.59-7.72h-9.42v13.97c0,.88.52,1.4,1.4,1.4M355.21,210.14c3.93,0,6.5-2.87,6.5-6.83s-2.41-6.62-6.62-6.62h-8.66v13.45h8.78ZM340.02,196.69h-4.15v-5.49h19.25c7.59,0,13.05,4.21,13.05,11.47,0,4.91-2.62,8.24-5.61,9.7v.12c4.79,1.4,7.38,5.86,7.38,10.89,0,8.48-6.5,12.81-14.46,12.81h-11.41c-2.87,0-4.09-1.22-4.09-4.09v-35.44l.03.03Z"/>
  <path class="cls-6" d="M378.26,210.66c0-.95-.52-1.4-1.4-1.4h-2.62v-5.28h5.86c2.81,0,4.15,1.16,4.15,3.75v2.04c0,1.28-.12,2.23-.12,2.23h.12c1.53-4.73,5.22-8.42,10.19-8.42.82,0,1.65.12,1.65.12v6.13s-.82-.18-1.86-.18c-3.97,0-7.59,2.81-9.06,7.59-.58,1.86-.76,3.81-.76,5.8v13.21h-6.19v-25.56l.06-.03Z"/>
  <path class="cls-6" d="M403.24,210.66c0-.95-.52-1.4-1.4-1.4h-2.62v-5.28h6.07c2.93,0,4.15,1.22,4.15,3.97v15.31c0,4.45.88,8.02,5.98,8.02,6.62,0,10.52-5.8,10.52-12.17v-15.1h6.19v25.56c0,.95.52,1.4,1.4,1.4h2.62v5.28h-5.92c-2.74,0-4.09-1.28-4.09-3.57v-1.22c0-1.01.06-1.86.06-1.86h-.12c-1.34,3.2-5.49,7.38-11.86,7.38-7.26,0-10.98-3.81-10.98-12.35v-13.97h0Z"/>
  <path class="cls-6" d="M449.39,219.65l-6.19-9.18c-.7-1.01-1.4-1.22-2.74-1.22h-1.8v-5.31h3.97c2.99,0,3.87.58,5.61,3.26l3.97,6.25c.46.82,1.01,2.04,1.01,2.04h.12s.58-1.22,1.07-2.04l3.87-6.25c1.65-2.75,2.62-3.26,5.61-3.26h4.03v5.31h-1.86c-1.28,0-2.1.18-2.74,1.16l-6.19,9.24,10.89,16.56h-6.95l-6.83-10.52c-.46-.76-.95-1.71-.95-1.71h-.12s-.52.95-1.01,1.71l-6.68,10.52h-7.02l10.89-16.56h.06Z"/>
  <path class="cls-6" d="M495.02,216.33c-.18-5.37-3.57-8.24-7.59-8.24-4.73,0-8.54,2.87-9.49,8.24h17.08ZM487.48,203.22c9.06,0,13.91,6.77,13.91,15.1,0,.82-.18,2.56-.18,2.56h-23.52c.37,6.89,5.37,10.77,11.1,10.77s9.42-3.75,9.42-3.75l2.68,4.39s-4.79,4.73-12.41,4.73c-10.19,0-17.14-7.32-17.14-16.9,0-10.25,7.02-16.9,16.2-16.9"/>
  <path class="cls-6" d="M509.48,197.91c0-.95-.52-1.4-1.4-1.4h-2.62v-5.28h6.13c2.87,0,4.09,1.22,4.09,4.09v34.22c0,.95.52,1.4,1.4,1.4h2.62v5.28h-6.13c-2.87,0-4.09-1.22-4.09-4.09,0,0,0-34.22,0-34.22Z"/>
  <path class="cls-6" d="M526.56,197.91c0-.95-.52-1.4-1.4-1.4h-2.62v-5.28h6.13c2.87,0,4.09,1.22,4.09,4.09v34.22c0,.95.52,1.4,1.4,1.4h2.62v5.28h-6.13c-2.87,0-4.09-1.22-4.09-4.09,0,0,0-34.22,0-34.22Z"/>
  <path class="cls-6" d="M564.35,216.33c-.18-5.37-3.57-8.24-7.59-8.24-4.73,0-8.54,2.87-9.49,8.24h17.08ZM556.84,203.22c9.06,0,13.91,6.77,13.91,15.1,0,.82-.18,2.56-.18,2.56h-23.52c.37,6.89,5.37,10.77,11.1,10.77s9.42-3.75,9.42-3.75l2.68,4.39s-4.79,4.73-12.41,4.73c-10.19,0-17.14-7.32-17.14-16.9,0-10.25,7.02-16.9,16.2-16.9"/>
  <path class="cls-6" d="M578.44,227.16s3.81,4.79,9.76,4.79c2.99,0,5.61-1.34,5.61-4.15,0-5.8-17.6-5.15-17.6-15.56,0-6.19,5.43-9.06,11.99-9.06,3.87,0,10.58,1.34,10.58,6.25v3.05h-5.55v-1.59c0-1.92-2.87-2.75-4.85-2.75-3.63,0-5.98,1.28-5.98,3.81,0,6.13,17.6,4.79,17.6,15.56,0,5.73-5.09,9.42-11.86,9.42-8.6,0-12.87-5.67-12.87-5.67l3.17-4.15v.03Z"/>
  <rect class="cls-2" x="26.5" y="133.1" width="19.86" height="41.45"/>
  <rect class="cls-4" x="46.36" y="133.1" width="19.86" height="41.45"/>
  <rect class="cls-1" x="66.22" y="133.1" width="19.86" height="41.45"/>
  <path class="cls-7" d="M27.02,133.58h58.53v40.44H27.02v-40.44ZM26.02,175.03h60.57v-42.46H26.02s0,42.46,0,42.46Z"/>
  <path class="cls-5" d="M573.5,132.97h-59.51v41.54h59.69v-41.54h-.18"/>
  <path class="cls-3" d="M535.31,141.85h1.34c.12,0,.21,0,.24-.18.12-.4.24-.76.37-1.16,0-.03,0-.06.06-.15.06.15.09.31.15.43.09.31.21.64.31.95,0,.09.06.12.15.12h1.43s-.06.06-.09.09c-.37.24-.7.52-1.07.76-.09.06-.09.09-.06.18.15.4.27.82.4,1.22v.09s-.06-.03-.09-.06c-.34-.24-.7-.52-1.04-.76-.09-.06-.15-.06-.21,0l-1.01.73s-.06.03-.12.09c.06-.18.09-.34.15-.49.09-.27.18-.55.27-.82.06-.12,0-.21-.09-.27-.37-.24-.73-.52-1.1-.79h0"/>
  <path class="cls-3" d="M551.57,144.23c-.21-.15-.43-.31-.67-.49-.15-.12-.31-.21-.46-.34-.06-.06-.12-.06-.21,0-.34.24-.64.49-.98.73-.03.03-.09.06-.15.06,0-.03,0-.09.03-.15.12-.37.24-.76.37-1.16.03-.09,0-.15-.06-.21-.34-.24-.67-.49-1.01-.73-.03,0-.06-.06-.12-.09h1.4c.09,0,.15,0,.18-.12.12-.4.24-.79.4-1.22,0-.03,0-.09.06-.15.06.21.12.43.18.61.09.24.15.49.24.73,0,.09.09.12.18.12h1.4c-.21.15-.4.31-.61.43-.18.12-.37.27-.55.4-.09.06-.09.12-.06.21.15.43.27.85.43,1.31h0"/>
  <path class="cls-3" d="M530.8,151.7s.09.24.12.4c.09.31.21.61.31.92,0,.09.06.12.18.12h1.43s-.06.06-.09.09c-.34.24-.7.52-1.04.76-.09.06-.12.12-.06.24.12.4.24.79.37,1.19,0,.03,0,.06.03.12-.06,0-.09-.03-.12-.06-.34-.24-.7-.52-1.04-.76-.06-.06-.12-.06-.18,0l-1.01.73s-.06.03-.12.09c.06-.24.15-.46.21-.64.06-.24.15-.46.24-.7,0-.09,0-.12-.06-.18-.37-.24-.7-.49-1.04-.76-.03,0-.06-.06-.12-.09h1.43c.09,0,.15-.03.18-.12.12-.4.24-.76.37-1.16,0-.06.03-.12.06-.15h.03"/>
  <path class="cls-3" d="M536.07,166.83c.09-.34.21-.61.31-.92.06-.15.09-.31.15-.46.03-.09,0-.15-.06-.18l-1.01-.73s-.09-.06-.15-.12h1.4c.09,0,.15,0,.18-.12.12-.4.24-.79.37-1.19,0-.03,0-.09.06-.15.09.31.18.58.27.88.06.15.12.34.15.49,0,.09.06.12.18.12h1.43c-.15.09-.24.18-.37.27-.27.18-.55.4-.79.58-.06.06-.09.09-.06.18.12.4.24.82.4,1.22,0,.03,0,.09.03.15-.06-.03-.09-.06-.12-.09-.34-.24-.7-.49-1.04-.76-.06-.06-.12-.06-.18,0l-1.01.73s-.06.06-.12.09"/>
  <path class="cls-3" d="M552.36,164.48c-.37.24-.7.52-1.07.76-.21.18-.18.09-.12.34.12.37.24.73.34,1.1,0,.03,0,.09.03.15-.06-.03-.09-.06-.12-.09l-1.01-.73c-.06-.06-.12-.06-.18,0l-1.01.73s-.06.03-.12.09c0-.09.03-.12.06-.18.12-.4.24-.79.37-1.16,0-.09,0-.15-.06-.21-.34-.24-.7-.49-1.04-.73-.03,0-.06-.06-.12-.09h1.43c.12,0,.15-.03.18-.15.12-.4.24-.82.4-1.22,0,0,0-.06.06-.12.09.27.15.49.24.73.06.21.15.43.21.64,0,.09.06.12.15.12h1.4"/>
  <path class="cls-3" d="M541.78,140.11h1.43c.09,0,.15,0,.18-.12.12-.4.24-.79.4-1.22,0-.03,0-.06.06-.15,0,.09.06.12.06.18.12.37.24.76.37,1.13.03.12.09.18.24.18h1.37c-.06.06-.09.09-.12.09-.34.24-.7.49-1.04.73-.06.06-.09.09-.06.18.12.4.24.79.4,1.19,0,.03,0,.09.03.15-.09-.06-.12-.09-.18-.12-.34-.24-.64-.46-.98-.7-.09-.06-.12-.06-.21,0-.34.24-.67.49-1.01.73-.03,0-.06.03-.12.09.06-.15.09-.27.12-.4.09-.31.21-.64.31-.95,0-.09,0-.12-.06-.18-.34-.24-.7-.49-1.04-.76-.03,0-.06-.06-.12-.09"/>
  <path class="cls-3" d="M553.88,162.01c.09-.24.15-.49.24-.76.06-.18.12-.37.18-.55.03-.09,0-.15-.06-.21-.37-.24-.7-.52-1.07-.76,0,0-.06-.03-.09-.09h1.43c.09,0,.12,0,.15-.12.15-.46.27-.88.43-1.37,0,.06.03.09.06.12.12.4.27.82.4,1.22,0,.09.06.12.18.12h1.4s-.09.06-.12.09c-.34.24-.7.49-1.04.76-.09.06-.09.09-.06.18.12.4.24.76.37,1.16,0,.06,0,.09.06.18-.06-.03-.09-.06-.12-.09-.34-.24-.67-.49-1.01-.76-.06-.06-.12-.06-.18,0-.34.24-.67.49-1.01.76-.03,0-.06.03-.09.06h0"/>
  <path class="cls-3" d="M533.78,162.07c-.4-.31-.76-.55-1.13-.82-.09-.06-.15-.06-.24,0-.34.24-.67.49-.98.73,0,0-.06.03-.12.09.09-.24.15-.49.21-.7s.12-.43.21-.61c.03-.09,0-.15-.06-.24-.34-.24-.67-.46-.98-.7-.03-.03-.09-.06-.15-.12h1.4c.12,0,.18-.03.21-.15.12-.43.27-.82.4-1.25,0,0,0-.03.03-.09.09.24.15.46.21.67.09.24.15.46.21.7,0,.09.09.12.18.12h1.37c-.09.06-.18.12-.27.18-.31.21-.58.43-.88.61-.06.06-.09.09-.06.18.15.46.27.88.46,1.37"/>
  <path class="cls-3" d="M553.88,148.96c.09-.31.18-.58.27-.88.06-.15.09-.31.15-.46,0-.06,0-.12-.06-.18-.4-.27-.76-.55-1.16-.85h1.43c.09,0,.15,0,.18-.12.12-.4.24-.79.37-1.19,0-.03.03-.09.06-.12.06.21.12.4.21.61.09.24.15.49.24.73,0,.09.06.12.15.12h1.43s-.06.06-.09.09l-1.01.73c-.12.09-.12.15-.09.27.12.37.24.73.37,1.1,0,.06,0,.09.06.18-.06-.03-.09-.06-.12-.09l-1.01-.73c-.09-.06-.15-.06-.21,0l-1.01.73s-.06.03-.09.06h0"/>
  <path class="cls-3" d="M558.06,155.48c-.21-.15-.43-.31-.64-.46-.15-.12-.34-.24-.49-.37-.06-.06-.12-.03-.18,0l-1.01.73s-.09.06-.15.09c.09-.31.18-.55.27-.82.06-.18.09-.37.18-.52.03-.09,0-.15-.06-.18-.34-.24-.67-.49-1.04-.73-.03,0-.06-.06-.12-.09h1.4c.09,0,.15-.03.15-.12.12-.43.27-.82.4-1.25,0,0,0-.06.03-.12,0,.06.03.09.06.12.12.4.27.79.4,1.22.03.12.09.15.18.15h1.34s-.06.06-.12.09l-1.01.73c-.06.06-.09.09-.06.18.12.4.27.79.4,1.19,0,.03,0,.09.03.12h0"/>
  <path class="cls-3" d="M545.83,166.22c-.34.24-.64.46-.98.7q-.27.18-.15.49c.12.34.21.7.34,1.04,0,.03,0,.06.03.12-.06-.03-.09-.06-.12-.09l-1.01-.73c-.06-.06-.12-.06-.18,0-.34.24-.67.52-1.04.76-.03,0-.06.03-.12.09.12-.37.21-.7.34-1.01.03-.09.06-.21.09-.31.03-.09,0-.15-.06-.21-.34-.24-.64-.46-.98-.7-.03,0-.09-.06-.15-.12h1.37c.12,0,.18-.03.21-.15.12-.4.24-.79.37-1.19,0-.03,0-.06.06-.15,0,.06.03.09.03.12.12.43.27.82.4,1.25,0,.09.06.12.18.12h1.37"/>
  <path class="cls-3" d="M533.75,149.02c-.37-.27-.76-.55-1.13-.82-.06-.06-.12-.06-.18,0l-1.01.73s-.06.03-.15.09c.03-.12.06-.21.09-.31.12-.34.21-.7.34-1.04,0-.09,0-.12-.06-.18-.34-.24-.67-.49-1.04-.73-.03,0-.06-.06-.12-.09h1.37c.12,0,.18-.03.21-.15.12-.43.27-.88.43-1.34,0,.09.06.12.06.18.12.4.24.79.37,1.19,0,.09.09.12.18.12h1.4c-.06.03-.09.06-.12.09-.34.24-.7.52-1.04.76-.06.06-.09.09-.06.18.12.4.24.76.37,1.16,0,.06.03.12.06.15h0"/>
  <path class="cls-7" d="M515.03,133.58h58.53v40.44h-58.53v-40.44ZM514.02,175.03h60.57v-42.46h-60.57s0,42.46,0,42.46Z"/>
</svg>